<mxfile host="Electron" modified="2024-12-07T18:23:43.265Z" agent="Mozilla/5.0 (Windows NT 10.0; Win64; x64) AppleWebKit/537.36 (KHTML, like Gecko) draw.io/21.6.8 Chrome/114.0.5735.289 Electron/25.5.0 Safari/537.36" etag="J40NeEe_3bBtycqBx9-C" version="21.6.8" type="device">
  <diagram name="Page-1" id="ukXhsutiLjWNHNxUYjJ-">
    <mxGraphModel dx="1668" dy="965" grid="1" gridSize="5" guides="1" tooltips="1" connect="1" arrows="1" fold="1" page="1" pageScale="1" pageWidth="827" pageHeight="1169" math="0" shadow="0">
      <root>
        <mxCell id="0" />
        <mxCell id="copLugqQvAR0kvUUau8e-1" value="Background" parent="0" />
        <mxCell id="copLugqQvAR0kvUUau8e-169" value="" style="endArrow=none;html=1;rounded=0;labelBackgroundColor=default;strokeColor=#A6A6A6;strokeWidth=3;fontFamily=Helvetica;fontSize=11;fontColor=default;shape=connector;" edge="1" parent="copLugqQvAR0kvUUau8e-1">
          <mxGeometry width="50" height="50" relative="1" as="geometry">
            <mxPoint x="5" y="540" as="sourcePoint" />
            <mxPoint x="820" y="540" as="targetPoint" />
          </mxGeometry>
        </mxCell>
        <mxCell id="copLugqQvAR0kvUUau8e-170" value="" style="endArrow=none;html=1;rounded=0;labelBackgroundColor=default;strokeColor=#A6A6A6;strokeWidth=3;fontFamily=Helvetica;fontSize=11;fontColor=default;shape=connector;" edge="1" parent="copLugqQvAR0kvUUau8e-1">
          <mxGeometry width="50" height="50" relative="1" as="geometry">
            <mxPoint x="5" y="60" as="sourcePoint" />
            <mxPoint x="820" y="60" as="targetPoint" />
          </mxGeometry>
        </mxCell>
        <mxCell id="copLugqQvAR0kvUUau8e-171" value="" style="endArrow=none;html=1;rounded=0;labelBackgroundColor=default;strokeColor=#A6A6A6;strokeWidth=3;fontFamily=Helvetica;fontSize=11;fontColor=default;shape=connector;" edge="1" parent="copLugqQvAR0kvUUau8e-1">
          <mxGeometry width="50" height="50" relative="1" as="geometry">
            <mxPoint x="480" y="340" as="sourcePoint" />
            <mxPoint x="820" y="340" as="targetPoint" />
          </mxGeometry>
        </mxCell>
        <mxCell id="copLugqQvAR0kvUUau8e-172" value="" style="endArrow=none;html=1;rounded=0;labelBackgroundColor=default;strokeColor=#A6A6A6;strokeWidth=3;fontFamily=Helvetica;fontSize=11;fontColor=default;shape=connector;" edge="1" parent="copLugqQvAR0kvUUau8e-1">
          <mxGeometry width="50" height="50" relative="1" as="geometry">
            <mxPoint x="480" y="340" as="sourcePoint" />
            <mxPoint x="480" y="540" as="targetPoint" />
          </mxGeometry>
        </mxCell>
        <mxCell id="copLugqQvAR0kvUUau8e-173" value="" style="endArrow=none;html=1;rounded=0;labelBackgroundColor=default;strokeColor=#A6A6A6;strokeWidth=3;fontFamily=Helvetica;fontSize=11;fontColor=default;shape=connector;" edge="1" parent="copLugqQvAR0kvUUau8e-1">
          <mxGeometry width="50" height="50" relative="1" as="geometry">
            <mxPoint x="270" y="60" as="sourcePoint" />
            <mxPoint x="270" y="540" as="targetPoint" />
          </mxGeometry>
        </mxCell>
        <mxCell id="copLugqQvAR0kvUUau8e-175" value="" style="shape=image;verticalLabelPosition=bottom;labelBackgroundColor=default;verticalAlign=top;aspect=fixed;imageAspect=0;image=data:image/svg+xml,PHN2ZyB4bWxucz0iaHR0cDovL3d3dy53My5vcmcvMjAwMC9zdmciIHhtbG5zOnhsaW5rPSJodHRwOi8vd3d3LnczLm9yZy8xOTk5L3hsaW5rIiBpZD0ic3ZnNzM2MiIgdmVyc2lvbj0iMS4xIiB2aWV3Qm94PSIwIDAgODkuOTU4MzMzIDQ3LjYyNDk4MyIgaGVpZ2h0PSIxNzkuOTk5OTQiIHdpZHRoPSIzNDAiPiYjeGE7ICA8ZGVmcyBpZD0iZGVmczczNTkiPiYjeGE7ICAgIDxsaW5lYXJHcmFkaWVudCB4Mj0iMSIgZ3JhZGllbnRUcmFuc2Zvcm09Im1hdHJpeCg0Ny4zNDg3NSwzNi45OTI1LC0zNi45OTI1LDQ3LjM0ODc1LDQ1ODAuMDgwMSw5MTE1LjAzNDEpIiBncmFkaWVudFVuaXRzPSJ1c2VyU3BhY2VPblVzZSIgaWQ9ImxpbmVhckdyYWRpZW50NDM5MSIgeGxpbms6aHJlZj0iI2EiLz4mI3hhOyAgICA8bGluZWFyR3JhZGllbnQgZ3JhZGllbnRVbml0cz0idXNlclNwYWNlT25Vc2UiIGdyYWRpZW50VHJhbnNmb3JtPSJtYXRyaXgoNDcuMzQ4NzUsMzYuOTkyNSwtMzYuOTkyNSw0Ny4zNDg3NSwzNDQuMzI1LDE2Mi4xODc1KSIgeDI9IjEiIGlkPSJhIj4mI3hhOyAgICAgIDxzdG9wIGlkPSJzdG9wMTUiIG9mZnNldD0iMCIgc3RvcC1jb2xvcj0iIzBjNTQyYSIvPiYjeGE7ICAgICAgPHN0b3AgaWQ9InN0b3AxNyIgb2Zmc2V0PSIuMjE0NzIiIHN0b3AtY29sb3I9IiMwYzU0MmEiLz4mI3hhOyAgICAgIDxzdG9wIGlkPSJzdG9wMTkiIG9mZnNldD0iLjU3OTk1IiBzdG9wLWNvbG9yPSIjMjVhZjY0Ii8+JiN4YTsgICAgICA8c3RvcCBpZD0ic3RvcDIxIiBvZmZzZXQ9Ii44NDY2MyIgc3RvcC1jb2xvcj0iIzI1YWY2NCIvPiYjeGE7ICAgICAgPHN0b3AgaWQ9InN0b3AyMyIgb2Zmc2V0PSIxIiBzdG9wLWNvbG9yPSIjMjVhZjY0Ii8+JiN4YTsgICAgPC9saW5lYXJHcmFkaWVudD4mI3hhOyAgICA8bGluZWFyR3JhZGllbnQgeDI9IjEiIGdyYWRpZW50VHJhbnNmb3JtPSJtYXRyaXgoNDYuNDUzNzIyLDM2LjI5MzIzNSwtMzYuMjkzMjM1LDQ2LjQ1MzcyMiw0MzUxLjgzODQsODU5My40Mjk1KSIgZ3JhZGllbnRVbml0cz0idXNlclNwYWNlT25Vc2UiIGlkPSJsaW5lYXJHcmFkaWVudDQzMzIiIHhsaW5rOmhyZWY9IiNhIi8+JiN4YTsgIDwvZGVmcz4mI3hhOyAgPGcgdHJhbnNmb3JtPSJ0cmFuc2xhdGUoLTExOS4wNjI0OSwtMjQ2LjA2MjUpIiBzdHlsZT0iZGlzcGxheTppbmxpbmUiIGlkPSJsYXllcjQiPiYjeGE7ICAgIDxnIHN0eWxlPSJkaXNwbGF5OmlubGluZSIgaWQ9ImxheWVyMTMiPiYjeGE7ICAgICAgPHJlY3QgeT0iMjQ2LjcyMzk1IiB4PSIxMTkuNzIzOTUiIGhlaWdodD0iNDYuMzAyMDc4IiB3aWR0aD0iODguNjM1NDA2IiBpZD0icmVjdDU5OTI4IiBzdHlsZT0iZGlzcGxheTppbmxpbmU7ZmlsbDojZmZmZmZmO3N0cm9rZTojMDAwMDAwO3N0cm9rZS13aWR0aDoxLjMyMjkyO3N0cm9rZS1saW5lY2FwOnJvdW5kO3N0cm9rZS1taXRlcmxpbWl0OjQ7c3Ryb2tlLWRhc2hhcnJheTpub25lO3N0cm9rZS1vcGFjaXR5OjE7cGFpbnQtb3JkZXI6c3Ryb2tlIG1hcmtlcnMgZmlsbDtzdG9wLWNvbG9yOiMwMDAwMDAiLz4mI3hhOyAgICAgIDx0ZXh0IGlkPSJ0ZXh0NjE0MjUiIHk9IjI1Mi40MzcyMyIgeD0iMTIyLjIzNTQ0IiBzdHlsZT0iZm9udC1zaXplOjQuMjMzMzNweDtsaW5lLWhlaWdodDoxLjI1O2ZvbnQtZmFtaWx5OkNvbW1pc3Npb25lcjstaW5rc2NhcGUtZm9udC1zcGVjaWZpY2F0aW9uOkNvbW1pc3Npb25lcjtsZXR0ZXItc3BhY2luZzowcHg7ZGlzcGxheTppbmxpbmU7c3Ryb2tlLXdpZHRoOjAuMjY0NTgzIiB4bWw6c3BhY2U9InByZXNlcnZlIj48dHNwYW4geT0iMjUyLjQzNzIzIiB4PSIxMjIuMjM1NDQiIHN0eWxlPSJmb250LXN0eWxlOm5vcm1hbDtmb250LXZhcmlhbnQ6bm9ybWFsO2ZvbnQtd2VpZ2h0OmJvbGQ7Zm9udC1zdHJldGNoOm5vcm1hbDtmb250LWZhbWlseTonTWF2ZW4gUHJvJzstaW5rc2NhcGUtZm9udC1zcGVjaWZpY2F0aW9uOidNYXZlbiBQcm8gQm9sZCc7c3Ryb2tlLXdpZHRoOjAuMjY0NTgzIiBpZD0idHNwYW42MTQyMyI+Tm90ZXM8L3RzcGFuPjwvdGV4dD4mI3hhOyAgICAgIDx0ZXh0IGlkPSJ0ZXh0NjE0MjUtMiIgeT0iMjUyLjQyMjc0IiB4PSIxOTMuOTA0NDUiIHN0eWxlPSJmb250LXNpemU6NC4yMzMzM3B4O2xpbmUtaGVpZ2h0OjEuMjU7Zm9udC1mYW1pbHk6Q29tbWlzc2lvbmVyOy1pbmtzY2FwZS1mb250LXNwZWNpZmljYXRpb246Q29tbWlzc2lvbmVyO2xldHRlci1zcGFjaW5nOjBweDtkaXNwbGF5OmlubGluZTtzdHJva2Utd2lkdGg6MC4yNjQ1ODMiIHhtbDpzcGFjZT0icHJlc2VydmUiPjx0c3BhbiB5PSIyNTIuNDIyNzQiIHg9IjE5My45MDQ0NSIgc3R5bGU9ImZvbnQtc3R5bGU6bm9ybWFsO2ZvbnQtdmFyaWFudDpub3JtYWw7Zm9udC13ZWlnaHQ6Ym9sZDtmb250LXN0cmV0Y2g6bm9ybWFsO2ZvbnQtZmFtaWx5OidNYXZlbiBQcm8nOy1pbmtzY2FwZS1mb250LXNwZWNpZmljYXRpb246J01hdmVuIFBybyBCb2xkJztzdHJva2Utd2lkdGg6MC4yNjQ1ODMiIGlkPSJ0c3BhbjYxNDIzLTAiPnYxLjEuMDwvdHNwYW4+PC90ZXh0PiYjeGE7ICAgICAgPHRleHQgaWQ9InRleHQ2MTQyNS0xIiB5PSIyNTguMDMyNzgiIHg9IjEyMi4zNDUiIHN0eWxlPSJmb250LXNpemU6NC4yMzMzM3B4O2xpbmUtaGVpZ2h0OjEuMjU7Zm9udC1mYW1pbHk6Q29tbWlzc2lvbmVyOy1pbmtzY2FwZS1mb250LXNwZWNpZmljYXRpb246Q29tbWlzc2lvbmVyO2xldHRlci1zcGFjaW5nOjBweDtkaXNwbGF5OmlubGluZTtzdHJva2Utd2lkdGg6MC4yNjQ1ODMiIHhtbDpzcGFjZT0icHJlc2VydmUiPjx0c3BhbiB5PSIyNTguMDMyNzgiIHg9IjEyMi4zNDUiIHN0eWxlPSJmb250LXN0eWxlOm5vcm1hbDtmb250LXZhcmlhbnQ6bm9ybWFsO2ZvbnQtd2VpZ2h0OjUwMDtmb250LXN0cmV0Y2g6bm9ybWFsO2ZvbnQtZmFtaWx5OidNYXZlbiBQcm8nOy1pbmtzY2FwZS1mb250LXNwZWNpZmljYXRpb246J01hdmVuIFBybyBNZWRpdW0nO3N0cm9rZS13aWR0aDowLjI2NDU4MyIgaWQ9InRzcGFuNjE0MjMtNCI+U3Ryb2tlIHdpZHRoOiAxMHB4PC90c3Bhbj48L3RleHQ+JiN4YTsgICAgICA8dGV4dCBpZD0idGV4dDYxNDI1LTEtOCIgeT0iMjYzLjMyNDQzIiB4PSIxMjIuMzQ1IiBzdHlsZT0iZm9udC1zaXplOjQuMjMzMzNweDtsaW5lLWhlaWdodDoxLjI1O2ZvbnQtZmFtaWx5OkNvbW1pc3Npb25lcjstaW5rc2NhcGUtZm9udC1zcGVjaWZpY2F0aW9uOkNvbW1pc3Npb25lcjtsZXR0ZXItc3BhY2luZzowcHg7ZGlzcGxheTppbmxpbmU7c3Ryb2tlLXdpZHRoOjAuMjY0NTgzIiB4bWw6c3BhY2U9InByZXNlcnZlIj48dHNwYW4geT0iMjYzLjMyNDQzIiB4PSIxMjIuMzQ1IiBzdHlsZT0iZm9udC1zdHlsZTpub3JtYWw7Zm9udC12YXJpYW50Om5vcm1hbDtmb250LXdlaWdodDo1MDA7Zm9udC1zdHJldGNoOm5vcm1hbDtmb250LWZhbWlseTonTWF2ZW4gUHJvJzstaW5rc2NhcGUtZm9udC1zcGVjaWZpY2F0aW9uOidNYXZlbiBQcm8gTWVkaXVtJztzdHJva2Utd2lkdGg6MC4yNjQ1ODMiIGlkPSJ0c3BhbjYxNDIzLTQtNSI+Rm9udDogTWF2ZW4gUHJvPC90c3Bhbj48L3RleHQ+JiN4YTsgICAgICA8dGV4dCBpZD0idGV4dDc2NDg5IiB5PSIyNjguNjE2MDkiIHg9IjEyMi40NzcyNyIgc3R5bGU9ImZvbnQtc2l6ZTo0LjIzMzMzcHg7bGluZS1oZWlnaHQ6MS41NTtmb250LWZhbWlseTpDb21taXNzaW9uZXI7LWlua3NjYXBlLWZvbnQtc3BlY2lmaWNhdGlvbjpDb21taXNzaW9uZXI7bGV0dGVyLXNwYWNpbmc6MHB4O2Rpc3BsYXk6aW5saW5lO3N0cm9rZS13aWR0aDowLjI2NDU4MyIgeG1sOnNwYWNlPSJwcmVzZXJ2ZSI+PHRzcGFuIGlkPSJ0c3Bhbjc3NjkzIiB5PSIyNjguNjE2MDkiIHg9IjEyMi40NzcyNyIgc3R5bGU9ImZvbnQtc3R5bGU6bm9ybWFsO2ZvbnQtdmFyaWFudDpub3JtYWw7Zm9udC13ZWlnaHQ6NTAwO2ZvbnQtc3RyZXRjaDpub3JtYWw7Zm9udC1mYW1pbHk6J01hdmVuIFBybyc7LWlua3NjYXBlLWZvbnQtc3BlY2lmaWNhdGlvbjonTWF2ZW4gUHJvIE1lZGl1bSc7c3Ryb2tlLXdpZHRoOjAuMjY0NTgzIj5Db21wb25lbnRzIG9yaWdpbmFsbHkgZGVzaWduZWQgYnkgPC90c3Bhbj48dHNwYW4gaWQ9InRzcGFuODUzOTAiIHk9IjI3NS4yMjEyOCIgeD0iMTIyLjQ3NzI3IiBzdHlsZT0iZm9udC1zdHlsZTpub3JtYWw7Zm9udC12YXJpYW50Om5vcm1hbDtmb250LXdlaWdodDo1MDA7Zm9udC1zdHJldGNoOm5vcm1hbDtmb250LWZhbWlseTonTWF2ZW4gUHJvJzstaW5rc2NhcGUtZm9udC1zcGVjaWZpY2F0aW9uOidNYXZlbiBQcm8gTWVkaXVtJztzdHJva2Utd2lkdGg6MC4yNjQ1ODMiPkphbWVzIEEuIEZlbGxvd3MgWWF0ZXMgJmFtcDs8L3RzcGFuPjx0c3BhbiBpZD0idHNwYW4zIiB5PSIyODEuODI2NDUiIHg9IjEyMi40NzcyNyIgc3R5bGU9ImZvbnQtc3R5bGU6bm9ybWFsO2ZvbnQtdmFyaWFudDpub3JtYWw7Zm9udC13ZWlnaHQ6NTAwO2ZvbnQtc3RyZXRjaDpub3JtYWw7Zm9udC1mYW1pbHk6J01hdmVuIFBybyc7LWlua3NjYXBlLWZvbnQtc3BlY2lmaWNhdGlvbjonTWF2ZW4gUHJvIE1lZGl1bSc7c3Ryb2tlLXdpZHRoOjAuMjY0NTgzIj5VcGRhdGUgYnkgTWF4aW1lIEdhcmNpYSAmYW1wOyBMb3VpcyBMZSBOw6l6ZXQgICA8L3RzcGFuPjx0c3BhbiBpZD0idHNwYW4xMjExMDIiIHk9IjI4OC40MzE2NCIgeD0iMTIyLjQ3NzI3IiBzdHlsZT0iZm9udC1zdHlsZTpub3JtYWw7Zm9udC12YXJpYW50Om5vcm1hbDtmb250LXdlaWdodDo1MDA7Zm9udC1zdHJldGNoOm5vcm1hbDtmb250LWZhbWlseTonTWF2ZW4gUHJvJzstaW5rc2NhcGUtZm9udC1zcGVjaWZpY2F0aW9uOidNYXZlbiBQcm8gTWVkaXVtJztzdHJva2Utd2lkdGg6MC4yNjQ1ODMiPkxpY2Vuc2U6IDwvdHNwYW4+PC90ZXh0PiYjeGE7ICAgICAgPGcgc3R5bGU9ImRpc3BsYXk6aW5saW5lIiB0cmFuc2Zvcm09Im1hdHJpeCgwLjAyNzQ4NDI0LDAsMCwwLjAyNzQ4NDI0LDE3MS43ODA2OSwyNjkuMDI0NjYpIiBpZD0iZzk1ODM0Ij4mI3hhOyAgICAgICAgPGcgc3R5bGU9ImRpc3BsYXk6bm9uZSIgaWQ9ImxheWVyMS05Ij4mI3hhOyAgICAgICAgICA8ZyB0cmFuc2Zvcm09Im1hdHJpeCgxLjAwMDAwMTMsMCwwLDEuMDAwMDAxMywtNi44NzgxODQ0ZS01LC0zLjM2NDY3MzFlLTQpIiBpZD0iZzQzNDAiPiYjeGE7ICAgICAgICAgICAgPHBhdGggc3R5bGU9ImZpbGw6IzIyYWU2MyIgaWQ9InBhdGgzNCIgZD0ibSA4NC4zMzg3NSwxMjQuMjI1IGMgMTMuOTksLTMuMTQ3NSAyNi40OTYyNSwtNC43MjEyNSAzNy41MTM3NSwtNC43MjEyNSAxOC43MTEyNSwwIDMyLjc5MjUsMy42NzI1IDQyLjIzNjI1LDExLjAxNzUgOS40NDM3NSw3LjM0NSAxNC4xNjYyNSwxOS40MTI1IDE0LjE2NjI1LDM2LjIwMjUgdiA4OS4xOTM3NSBoIC0zOS4wODg3NSB2IC04MS4zMjM3NSBjIDAsLTE1LjIxNSAtOC41NywtMjIuODIzNzUgLTI1LjcwODc1LC0yMi44MjM3NSAtMy44NDg3NSwwIC03Ljc4Mzc1LDAuNDM4NzUgLTExLjgwMzc1LDEuMzExMjUgLTQuMDI2MjUsMC44Nzc1IC03LjE3Mzc1LDEuOTI3NSAtOS40NDUsMy4xNDg3NSB2IDk5LjY4NzUgSCA1My4xMjEyNSBWIDEzNC40NTYyNSBjIDYuODIsLTMuNjcyNSAxNy4yMjM3NSwtNy4wODI1IDMxLjIxNzUsLTEwLjIzMTI1Ii8+JiN4YTsgICAgICAgICAgICA8cGF0aCBzdHlsZT0iZmlsbDojMjJhZTYzIiBpZD0icGF0aDM4IiBkPSJtIDIyMi44NSwxNTMuMDg3NSBoIC0xOS40MTI1IHYgLTI5LjkwNjI1IGggMTkuNjc1IHYgLTMuMTQ3NSBjIDAuMTcyNSwtMTkuOTM3NSA0Ljc2Mzc1LC0zMy43OTYyNSAxMy43NzI1LC00MS41OCA5LjAwNSwtNy43OCAyMS4yOSwtMTEuNjczNzUgMzYuODU3NSwtMTEuNjczNzUgMi43OTUsMCA1Ljg1NzUsMC4yNjI1IDkuMTgyNSwwLjc4NjI1IDMuMzIsMC41MjUgNi4wMzM3NSwxLjE0IDguMTMxMjUsMS44MzYyNSB2IDM0LjM2NjI1IGMgLTEuOTI2MjUsLTEuOTIyNSAtMy44NDg3NSwtMy4zNjUgLTUuNzcxMjUsLTQuMzI3NSAtMS45MjYyNSwtMC45NiAtNC4zNzM3NSwtMS40NDM3NSAtNy4zNDUsLTEuNDQzNzUgLTQuODk4NzUsMCAtOC43NDc1LDEuMzEyNSAtMTEuNTQyNSwzLjkzNSAtMi43OTg3NSwyLjYyMzc1IC00LjE5NzUsNy4wODM3NSAtNC4xOTc1LDEzLjM3ODc1IHYgNy44NyBoIDI4Ljg1NjI1IHYgMjkuOTA2MjUgaCAtMjkuMTE3NSB2IDEwMi44MzUgSCAyMjIuODUgWiIvPiYjeGE7ICAgICAgICAgICAgPHBhdGggZD0ibSAzMTkuNjUsMTYyIGggODAuMDEyNSB2IDI3LjAyIEggMzE5LjY1IFoiIGlkPSJwYXRoNDAiIHN0eWxlPSJmaWxsOiMyMmFmNjIiLz4mI3hhOyAgICAgICAgICAgIDxwYXRoIHN0eWxlPSJmaWxsOiMyMzFmMjAiIGlkPSJwYXRoNDQiIGQ9Ik0gNDY0Ljk3NSwyNTEuNzIzNzUgQyA0NTQuNDgxMjUsMjQ2LjY1Mzc1IDQ0Ni4xMjc1LDIzOSA0MzkuOTIxMjUsMjI4Ljc3IGMgLTYuMjEsLTEwLjIzMTI1IC05LjMxMjUsLTIyLjY5MjUgLTkuMzEyNSwtMzcuMzgzNzUgMCwtMjMuNjEgNi4yOTYyNSwtNDEuNDg4NzUgMTguODg3NSwtNTMuNjQ3NSAxMi41OTI1LC0xMi4xNTI1IDI5LjM4MjUsLTE4LjIzMTI1IDUwLjM2ODc1LC0xOC4yMzEyNSA3LjM0NSwwIDE0Ljc3NjI1LDAuNzQ2MjUgMjIuMjk4NzUsMi4yMyA3LjUxNzUsMS40ODc1IDE0LjE2NjI1LDMuNTQxMjUgMTkuOTM3NSw2LjE2NSB2IDMzLjU3ODc1IGMgLTcuMTczNzUsLTMuMTQ4NzUgLTEzLjU1NjI1LC01LjU1IC0xOS4xNSwtNy4yMTUgLTUuNiwtMS42NTg3NSAtMTEuMTk1LC0yLjQ5MTI1IC0xNi43OSwtMi40OTEyNSAtMTEuNTQyNSwwIC0yMC41NTI1LDIuODQzNzUgLTI3LjAyLDguNTI1IC02LjQ3MjUsNS42ODYyNSAtOS43MDc1LDE0LjU2IC05LjcwNzUsMjYuNjI3NSAwLDEzLjQ2ODc1IDMuMDE3NSwyMy40Mzc1IDkuMDUxMjUsMjkuOTA2MjUgNi4wMzM3NSw2LjQ3MjUgMTUuODcxMjUsOS43MDYyNSAyOS41MTI1LDkuNzA2MjUgMTAuMzE3NSwwIDIxLjc3Mzc1LC0zLjQ5NjI1IDM0LjM2NSwtMTAuNDkzNzUgdiAzMy4zMTYyNSBjIC02LjI5NSwzLjMyNSAtMTIuODEyNSw1LjgxNjI1IC0xOS41NDM3NSw3LjQ3NjI1IC02LjczMzc1LDEuNjYgLTE0LjI5NjI1LDIuNDkyNSAtMjIuNjkxMjUsMi40OTI1IC0xMi45NDM3NSwwIC0yNC42NTg3NSwtMi41Mzc1IC0zNS4xNTI1LC03LjYwNzUiLz4mI3hhOyAgICAgICAgICAgIDxwYXRoIHN0eWxlPSJmaWxsOiMyMzFmMjAiIGlkPSJwYXRoNDgiIGQ9Im0gNjUxLjIzNzUsMjE4LjUzODc1IGMgNC44OTM3NSwtNi43MyA3LjM0NSwtMTYuNTY3NSA3LjM0NSwtMjkuNTEyNSAwLC0xNC4xNjYyNSAtMi40MDYyNSwtMjQuMjY1IC03LjIxNSwtMzAuMyAtNC44MTEyNSwtNi4wMzI1IC0xMi4xMTEyNSwtOS4wNSAtMjEuOTAzNzUsLTkuMDUgLTEwLjE0NSwwIC0xNy40NDUsMy4wMTc1IC0yMS45MDUsOS4wNSAtNC40Niw2LjAzNSAtNi42OSwxNi4xMzM3NSAtNi42OSwzMC4zIDAsMTMuNDcgMi4zMTYyNSwyMy40Mzg3NSA2Ljk1MjUsMjkuOTA2MjUgNC42MzI1LDYuNDcyNSAxMS44NDUsOS43MDYyNSAyMS42NDI1LDkuNzA2MjUgOS42MTUsMCAxNi44NzUsLTMuMzY1IDIxLjc3Mzc1LC0xMC4xIE0gNTc5LjA5NSwyNDIuMDE3NSBjIC0xMS4xOTM3NSwtMTEuODkgLTE2Ljc5LC0yOS41NTI1IC0xNi43OSwtNTIuOTkxMjUgMCwtMjQuNDgyNSA1LjU1MTI1LC00Mi4zMjEyNSAxNi42NiwtNTMuNTE2MjUgMTEuMTAyNSwtMTEuMTkgMjcuOTM3NSwtMTYuNzg4NzUgNTAuNDk4NzUsLTE2Ljc4ODc1IDIyLjU2MTI1LDAgMzkuNTIxMjUsNS43MyA1MC44OTI1LDE3LjE4MjUgMTEuMzY3NSwxMS40NTYyNSAxNy4wNTI1LDI5LjE2Mzc1IDE3LjA1MjUsNTMuMTIyNSAwLDIzLjA4NSAtNS44NjI1LDQwLjY2MTI1IC0xNy41Nzc1LDUyLjcyODc1IC0xMS43MTg3NSwxMi4wNjg3NSAtMjguNTA4NzUsMTguMTAxMjUgLTUwLjM2NzUsMTguMTAxMjUgLTIyLjM4ODc1LDAgLTM5LjE3ODc1LC01Ljk0Mzc1IC01MC4zNjg3NSwtMTcuODM4NzUiLz4mI3hhOyAgICAgICAgICAgIDxwYXRoIHN0eWxlPSJmaWxsOiMyMzFmMjAiIGlkPSJwYXRoNTIiIGQ9Im0gNzI0LjQyNSwxMzcuMDg3NSBjIDIuNjIzNzUsLTIuMjcxMjUgNy4yMTM3NSwtNC44MDg3NSAxMy43NzI1LC03LjYwNzUgNi41NTg3NSwtMi43OTYyNSAxMy45MDM3NSwtNS4yMDI1IDIyLjAzNSwtNy4yMTM3NSA4LjEzMjUsLTIuMDA4NzUgMTUuOTU3NSwtMy4wMTc1IDIzLjQ4LC0zLjAxNzUgMTQuNTEzNzUsMCAyNC41Njg3NSwyLjE4ODc1IDMwLjE2NzUsNi41NTg3NSB2IDI4LjU5Mzc1IEMgODA2Ljg4Mzc1LDE1Mi44Mjc1IDc5Ni44Mjg3NSwxNTIuMDQgNzgzLjcxMjUsMTUyLjA0IGMgLTguMjIyNSwwIC0xNC45NTM3NSwwLjQzODc1IC0yMC4yLDEuMzEyNSBWIDI1NS45MjUgSCA3MjQuNDI1IFoiLz4mI3hhOyAgICAgICAgICAgIDxwYXRoIHN0eWxlPSJmaWxsOiMyMzFmMjAiIGlkPSJwYXRoNTYiIGQ9Im0gODY0LjI1LDE3NC44NjI1IGggNDkuMDU2MjUgYyAtMS4yMjUsLTkuNDQzNzUgLTMuNzE3NSwtMTYuMTczNzUgLTcuNDc2MjUsLTIwLjIgLTMuNzYyNSwtNC4wMiAtOS4zMTM3NSwtNi4wMzI1IC0xNi42NTg3NSwtNi4wMzI1IC0xMy45OTM3NSwwIC0yMi4yOTc1LDguNzQ2MjUgLTI0LjkyMTI1LDI2LjIzMjUgbSA4Ny44ODI1LDI0LjkyMTI1IGggLTg3LjYyIGMgMy4zMiwxOC4zNjM3NSAxNS42NDg3NSwyNy41NDYyNSAzNi45ODg3NSwyNy41NDYyNSA2LjQ2ODc1LDAgMTIuODEsLTAuOTE4NzUgMTkuMDIsLTIuNzU1IDYuMjA1LC0xLjgzNjI1IDEyLjgwODc1LC00LjIzODc1IDE5LjgwNSwtNy4yMTM3NSBWIDI1MC45NCBjIC0xNC4zNDEyNSw1Ljk0MjUgLTMwLjQzLDguOTE4NzUgLTQ4LjI2ODc1LDguOTE4NzUgLTEzLjQ2ODc1LDAgLTI1LjI3NSwtMi43NTUgLTM1LjQxNSwtOC4yNjM3NSAtMTAuMTQ1LC01LjUwODc1IC0xOC4wMTUsLTEzLjQyIC0yMy42MTEyNSwtMjMuNzQgLTUuNTk4NzUsLTEwLjMxNzUgLTguMzkzNzUsLTIyLjQ3MTI1IC04LjM5Mzc1LC0zNi40NjUgMCwtMjMuMDg2MjUgNS43MjYyNSwtNDAuOTY1IDE3LjE4Mzc1LC01My42NDc1IDExLjQ1MTI1LC0xMi42Nzc1IDI3Ljc2MTI1LC0xOS4wMiA0OC45MjM3NSwtMTkuMDIgNDEuNDQ4NzUsMCA2MS45MTI1LDI3LjAyMTI1IDYxLjM4NzUsODEuMDYxMjUiLz4mI3hhOyAgICAgICAgICAgIDxwYXRoIGQ9Im0gMzUwLjIxMjUsMTYyLjA4NzUgLTI2Ljg3NSwyNi45OCBoIDc2LjI1IHYgLTI2Ljk4IHoiIGlkPSJwYXRoNjAiIHN0eWxlPSJmaWxsOnVybCgjbGluZWFyR3JhZGllbnQ0MzkxKSIvPiYjeGE7ICAgICAgICAgIDwvZz4mI3hhOyAgICAgICAgPC9nPiYjeGE7ICAgICAgICA8ZyBzdHlsZT0iZGlzcGxheTppbmxpbmUiIGlkPSJsYXllcjIiPiYjeGE7ICAgICAgICAgIDxnIGlkPSJnNDMwMSI+JiN4YTsgICAgICAgICAgICA8cGF0aCBzdHlsZT0iZmlsbDojMjJhZTYzIiBpZD0icGF0aDY2IiBkPSJtIDEyMDkuMDYyNSwxNDcuMSB2IDQuMjUyNSBjIC0wLjA4OCwwLjAyMjUgLTAuMTc3NSwwLjA0NSAtMC4yNjUsMC4wNjYyIC0wLjcyMzcsLTAuNTk1IC0xLjQ1MzcsLTEuMTgzNzUgLTIuMTcxMiwtMS43ODYyNSAtNC43ODI1LC00LjAxMjUgLTkuODQ1LC03LjYxNSAtMTUuNDQ1LC0xMC40MTUgLTAuOTY4OCwtMC40ODUgLTEuOTEsLTEuMDU1IC0yLjk5NSwtMS4yNzYyNSAtMC4wNzksLTAuMTcyNSAtMC4yNSwtMC4xOTg3NSAtMC40MDI1LC0wLjI2MTI1IC0yLjExMjUsLTAuODcxMjUgLTQuMjc3NSwtMS41NzUgLTYuNTA1LC0yLjA5IC00LjgzNzUsLTEuMTIgLTkuNjkyNSwtMS4yMjYyNSAtMTQuNTYyNSwtMC4yNDc1IC02LjI1NzUsMS4yNTg3NSAtMTEuODU3NSw0LjAxNjI1IC0xNy4xMDM4LDcuNTU4NzUgLTUuMjA2MiwzLjUxNjI1IC05Ljg5ODgsNy42NDUgLTE0LjMwMjUsMTIuMTExMjUgLTAuNzk1LDAuODA2MjUgLTAuODA4NywwLjgwMzc1IC0xLjI5ODcsLTAuMjE1IC0yLjM0MTMsLTQuODc1IC00LjkxNjMsLTkuNjEzNzUgLTguMTQsLTEzLjk3MjUgLTIuNDYyNSwtMy4zMjg3NSAtNS4yMTM4LC02LjM3MTI1IC04Ljc4MTMsLTguNTY2MjUgLTMuNTk3NSwtMi4yMTM3NSAtNy40NTEyLC0zLjAxNzUgLTExLjYwNzUsLTIuMDEyNSAtNS4xMDEyLDEuMjMyNSAtOS4xOTg3LDQuMjA2MjUgLTEzLjA2MzcsNy41NzUgLTIuMzU3NSwxLjgyNSAtNC40NzEzLDMuOTIzNzUgLTYuNjU4OCw1LjkzNzUgLTEuOTYyNSwxLjgwNjI1IC0zLjkzMjUsMy42MDI1IC01Ljk3LDUuMzI2MjUgLTAuMzcyNSwwLjMxNjI1IC0wLjU3LDAuMzExMjUgLTAuOTA4NywtMC4wNDM4IC0xLjk3NzUsLTIuMDc1IC00LjEwMTMsLTMuOTcxMjUgLTYuNjUsLTUuMzQyNSAtMy42NjM4LC0xLjk3MjUgLTcuNDYxMywtMi4yMTM3NSAtMTEuMzg2MywtMC45MzYyNSAtMy4yOSwxLjA3IC02LjIwMTIsMi44NzEyNSAtOS4xMTUsNC42NzUgLTEuMTQ4NywwLjcxMTI1IC0yLjIyLDEuNTUgLTMuNDU4NywyLjExMzc1IHYgLTAuMjg2MjUgYyAwLjE2OTksLTAuMjA1IDAuMTA4NywtMC40NTUgMC4xMTc1LC0wLjY4NSAwLjE4NjIsLTUuMjYgMC42MzM3LC0xMC40OTUgMS40NDk5LC0xNS42OTg3NSAxLjEyNSwtNy4xNzI1IDIuOTMxMywtMTQuMTQzNzUgNi4xMjc2LC0yMC43IDIuMzkyNCwtNC45MDM3NSA1LjUxODcsLTkuMjggOS41Nzc1LC0xMi45NDg3NSA1LjMzLC00LjgyIDExLjYyMjUsLTcuODY2MjUgMTguNDcyNSwtOS44MzUgNy40MjYyLC0yLjEzMzc1IDE1LjA1MTIsLTMuMDEzNzUgMjIuNzM3NSwtMy40MzYyNSAzLjA0MTIsLTAuMTY3NSA2LjA4NzUsLTAuMjQgOS4xMzI1LC0wLjM1NSAxLjQ4MzcsMC42MTYyNSAzLjA1MjUsMC45NjI1IDQuNTcyNSwxLjQ2MjUgMi4yMjc1LDAuNjgyNSA0LjQ1NjIsMS4zNjI1IDYuNjgzNywyLjA0Mzc1IDEuMTMzNywwLjQxNjI1IDIuMjY2MywwLjgzNzUgMy40MDM3LDEuMjQ3NSA0LjQwMjYsMS41OSA4LjYwNSwzLjU2MjUgMTIuMzMwMSw2LjQ1MTI1IDAuOTY1LDAuNzQ4NzUgMS44OTEyLDEuNTQ1IDIuODM3NCwyLjM1MjUgLTAuMTg4NywtMC43MDEyNSAtMC40NDc0LC0xLjM1NjI1IC0wLjY5NDksLTIuMDEzNzUgLTEuNjI4OCwtNC4zMjEyNSAtNC4xMTUsLTcuOTU4NzUgLTguMTU3NSwtMTAuMzk4NzUgLTEuNjcxMywtMS4wMDg3NSAtMy40NDc1LC0xLjgxMjUgLTUuMTQ1LC0yLjc2NSAwLjE2NSwtMC4wMjEyNSAwLjMzMTIsLTAuMDM4NzUgMC40OTYyLC0wLjA2NjI1IDUuMzU4OCwtMC44OTEyNSAxMC43NTg4LC0xLjQyMTI1IDE2LjE4MjUsLTEuNjM1IDQuNjYxMywtMC4xODUgOS4zMywtMC4xMTYyNSAxMy45ODI1LDAuMzY3NSA1LjQzNzUsMC41NjYyNSAxMC43NTYzLDEuNjM3NSAxNS44OTUsMy41Mzc1IDcuNjAyNSwyLjgxMTI1IDE0LjA3NjIsNy4yMSAxOS4wOTc1LDEzLjYyMTI1IDQuMzgxMyw1LjU5MjUgNy4xNzM4LDExLjk1NzUgOC45NjM4LDE4Ljc5IDEuNzc3NSw2Ljc3ODc1IDIuNTMzNywxMy42OTUgMi43Mjc1LDIwLjY4Mzc1IDAsMi42MDUgMCw1LjIxIDAsNy44MTUiLz4mI3hhOyAgICAgICAgICAgIDxwYXRoIHN0eWxlPSJmaWxsOiNlY2RjODYiIGlkPSJwYXRoNzAiIGQ9Im0gMTIwOS4wNjI1LDEzOS4yODc1IGMgMC4wNDQsMCAwLjA4NSwtMC4wMDkgMC4xMjc1LC0wLjAyMzggdiA3Ljg2MTI1IGMgLTAuMDQzLC0wLjAxIC0wLjA4NCwtMC4wMTc1IC0wLjEyNjIsLTAuMDIyNSAwLC0yLjYwNSAwLC01LjIxIDAsLTcuODE1Ii8+JiN4YTsgICAgICAgICAgICA8cGF0aCBzdHlsZT0iZmlsbDojYTA5MThmIiBpZD0icGF0aDc0IiBkPSJtIDExNjUuODg3NSwyNy4wODc1IGMgMCwwLjA0NjI1IDAsMC4wOTEyNSAwLjAxLDAuMTM2MjUgLTEuNzY1LDAgLTMuNTMxMywwLjAwMTMgLTUuMjk3NSwwLjAwMTMgMC4wMSwtMC4wMyAwLjAyNCwtMC4wNiAwLjAyOSwtMC4wOSAwLC0wLjAxNSAtMC4wMTYsLTAuMDMxMjUgLTAuMDI0LC0wLjA0NzUgaCA1LjI4NjIgeiIvPiYjeGE7ICAgICAgICAgICAgPHBhdGggc3R5bGU9ImZpbGw6IzIyYWU2MyIgaWQ9InBhdGg3OCIgZD0ibSAxMTY5LjMzNzUsMjQ5LjgxODc1IGMgMi45ODEzLC0xLjE5NzUgNS44MjEzLC0yLjY2NzUgOC41ODUsLTQuMzA2MjUgMy4yOTUsLTEuOTUzNzUgNi40MzM4LC00LjEzNzUgOS40ODg4LC02LjQzNSAyLjU3NzUsLTEuOTM3NSA1LjEsLTMuOTUxMjUgNy41NTEyLC02LjA1MTI1IDEuNDE2MywtMS4yMTI1IDIuODczOCwtMi4zNzc1IDQuMywtMy41Nzc1IDAuMjg3NSwtMC4yNDEyNSAwLjI5MjUsLTAuMTM2MjUgMC4zNjg4LDAuMTU3NSAwLjUxNzUsMS45NDI1IDAuODc2MiwzLjkxODc1IDEuMjY3NSw1Ljg4ODc1IDAuNTMzNywyLjY4Mzc1IDAuOTYxMiw1LjM4NzUgMS4yNTg3LDguMTA2MjUgMC4zNDM4LDMuMTM4NzUgMC40Njg4LDYuMjk1IDAuMjgxMyw5LjQ0NjI1IC0wLjIzMjUsMy45MzYyNSAtMC45NCw3Ljc5NjI1IC0yLjMwNzUsMTEuNTA4NzUgLTAuODI1LDIuMjM3NSAtMS45MDYzLDQuMzUzNzUgLTMuMTg2Myw2LjM2NSAtMS42NDM3LDIuNTgyNSAtMy42LDQuOTEyNSAtNS44NjM3LDYuOTYzNzUgLTIuNzU2MywyLjQ5NjI1IC01LjgsNC41ODc1IC05LjA2MTMsNi4zODYyNSAtNC40MjYyLDIuNDQxMjUgLTkuMTEzNyw0LjIzIC0xMy45MjUsNS43IC00LjU5MjUsMS40MDI1IC05LjI4MzcsMi40MTc1IC0xNC4wMTc1LDMuMjE4NzUgLTEuMjgzNywwLjIxNzUgLTIuNTcsMC40NSAtMy44Nzg3LDAuNDE2MjUgLTIuNzYzOCwtMC4wNjg3IC01LjQxNSwtMC42OSAtNy45ODc1LC0xLjY4ODc1IC0zLjkxLC0xLjUxNjI1IC03LjM4NzUsLTMuODg2MjUgLTExLjE3ODgsLTUuNjQgLTIuMDc3NSwtMC45NjI1IC00LjIyMTIsLTEuNjY3NSAtNi41Mjg3LC0xLjgyMjUgLTIuOTY3NSwtMC4yIC01LjQ4MzgsMC44MTUgLTcuNjA2MywyLjgyMjUgLTEuNTkyNSwxLjUwMzc1IC0zLjA5NzUsMy4wOTg3NSAtNC42NjYyLDQuNjI4NzUgLTIuNjM2MywyLjU3Mzc1IC01LjcyMzgsNC4zMTc1IC05LjM5LDQuOTI2MjUgLTIuNDMzOCwwLjQwMzc1IC00Ljg3LDAuMjc2MjUgLTcuMzAyNSwtMC4wNyAtMy4zOCwtMC40ODI1IC02LjY5MTMsLTEuMjU4NzUgLTkuOTM4OCwtMi4zMDM3NSAtNC43NDI1LC0xLjUyMzc1IC05LjE1NjIsLTMuNzEzNzUgLTEzLjExMTIsLTYuNzQ2MjUgLTMuNzQ3NSwtMi44NzI1IC02Ljc5MjUsLTYuMzgyNSAtOS4yMDI1LC0xMC40NjEyNSAtMi40MjM4LC00LjEwMjUgLTMuOTM3NSwtOC41Mzg3NSAtNC45NjEzLC0xMy4xNTEyNSAtMC40NDg3LC0yLjAyMjUgLTAuNzIxMiwtNC4wODc1IC0wLjkzMjUsLTYuMTU4NzUgLTAuMjk2MiwtMi45MDI1IC0wLjQ3MzcsLTUuODA3NSAtMC4zOTg3LC04LjcyMTI1IDAuMTAzNywtNC4wOSAwLjQxNzUsLTguMTY3NSAxLjA1LC0xMi4zMzc1IDAuNDg1LDAuNDM1IDAuOTIyNSwwLjgxODc1IDEuMzUzNywxLjIxMjUgMi42MzYzLDIuNDEyNSA1LjUsNC41MzI1IDguNTc2Myw2LjMzNjI1IDMuNDc2MiwyLjAzNzUgNy4xNjUsMy42Mzc1IDExLjA2NSw0LjY3NzUgMi42Mzg3LDAuNzAzNzUgNS4zMzM3LDEuMTM2MjUgOC4wNjUsMS4zNiAyLjI1NSwwLjE4Mzc1IDQuNTE1LDAuMjIgNi43NiwwLjA4MTMgMi42NDM3LC0wLjE2MTI1IDUuMzAxMiwtMC4zNDYyNSA3Ljg4LC0xLjA2MTI1IDAuMzI4NywtMC4wNCAwLjY2MjUsLTAuMDU3NSAwLjk4NzUsLTAuMTI1IDIuMzY3NSwtMC40OTM3NSA0LjcxNjIsLTEuMDU1IDcuMDQyNSwtMS43MzM3NSAyLjY3NzUsLTAuNzgxMjUgNS4zMjEyLC0xLjY1NzUgNy45MzI1LC0yLjYyNSAyLjU0MTIsLTAuOTQyNSA1LjA1MTIsLTEuOTcxMjUgNy41Mzc1LC0zLjA1MjUgMC43MzM3LC0wLjMyIDEuMTc3NSwtMC4xODEyNSAxLjc1NSwwLjI2NSA0LjE0ODcsMy4yMTEyNSA4LjU4MzcsNS45NCAxMy40ODEyLDcuODcyNSA1LjM5MjUsMi4xMjc1IDEwLjk1MTMsMy4xNTM3NSAxNi43Njc1LDIuNjcyNSA0LjE5MzgsLTAuMzQ1IDguMjAxMywtMS4zODYyNSAxMi4wOSwtMi45NDM3NSIvPiYjeGE7ICAgICAgICAgICAgPHBhdGggc3R5bGU9ImZpbGw6I2VjZGM4NiIgaWQ9InBhdGg4MiIgZD0ibSAxMTY5LjMzNzUsMjQ5LjgxODc1IGMgLTMuODg4NywxLjU1NzUgLTcuODk2MiwyLjU5ODc1IC0xMi4wOSwyLjk0Mzc1IC01LjgxNjIsMC40ODEyNSAtMTEuMzc1LC0wLjU0NSAtMTYuNzY3NSwtMi42NzI1IC00Ljg5NzUsLTEuOTMyNSAtOS4zMzI1LC00LjY2MTI1IC0xMy40ODEyLC03Ljg3MjUgLTAuNTc3NSwtMC40NDYyNSAtMS4wMjEzLC0wLjU4NSAtMS43NTUsLTAuMjY1IC0yLjQ4NjMsMS4wODEyNSAtNC45OTYzLDIuMTEgLTcuNTM3NSwzLjA1MjUgLTIuNjExMywwLjk2NzUgLTUuMjU1LDEuODQzNzUgLTcuOTMyNSwyLjYyNSAtMi4zMjYzLDAuNjc4NzUgLTQuNjc1LDEuMjQgLTcuMDQyNSwxLjczMzc1IC0wLjMyNSwwLjA2NzUgLTAuNjU4OCwwLjA4NSAtMC45ODc1LDAuMTI1IDAuODE2MiwtMC45NDg3NSAxLjYzMjUsLTEuODk4NzUgMi40NTI1LC0yLjg0NzUgMy4zMTYyLC0zLjg0IDUuNjUxMiwtOC4yMDUgNy4wMjUsLTEzLjA4ODc1IDEuODc3NSwtNi42NzM3NSAzLjg0MTIsLTEzLjMyNSA1LjQwMTIsLTIwLjA4Mzc1IDEuMTQ2MywtNC45NzI1IDIuMTU2MywtOS45NzEyNSAyLjgzNjMsLTE1LjAzMjUgMC40ODYyLC0zLjYyNzUgMC43OTYyLC03LjI2NjI1IDEuMDA4NywtMTAuOTIgMC4xOTYzLC0zLjM1NzUgMC4xNDM4LC02LjcxIC0wLjA2NSwtMTAuMDU1IC0wLjYzMjUsLTEwLjExNzUgLTIuODU1LC0xOS44OTI1IC02Ljk1MzcsLTI5LjE2MjUgLTIuNDU2MywtNS41NTUgLTYuNjg2MywtOS4zNjEyNSAtMTIuNjg3NSwtMTAuOTI1IC0yLjU5MzgsLTAuNjc2MjUgLTUuMTgyNSwtMC40NjM3NSAtNy43MywwLjMzMjUgLTAuMjAxMywwLjA2MjUgLTAuMzkyNSwwLjE4Mzc1IC0wLjYxODgsMC4xMjEyNSAzLjg2NjMsLTMuMzY4NzUgNy45NjI1LC02LjM0MjUgMTMuMDYzOCwtNy41NzYyNSA0LjE1NjIsLTEuMDA1IDguMDEsLTAuMiAxMS42MDc1LDIuMDEzNzUgMy41Njg3LDIuMTkzNzUgNi4zMTg3LDUuMjM2MjUgOC43ODI1LDguNTY2MjUgMy4yMjM3LDQuMzU3NSA1Ljc5NzUsOS4wOTc1IDguMTM4NywxMy45NzEyNSAwLjQ5LDEuMDIgMC41MDUsMS4wMjEyNSAxLjI5ODgsMC4yMTYyNSA0LjQwNSwtNC40NjYyNSA5LjA5NzUsLTguNTk1IDE0LjMwMzcsLTEyLjExMTI1IDUuMjQ1LC0zLjU0MjUgMTAuODQ2MywtNi4zIDE3LjEwMjUsLTcuNTU4NzUgNC44NywtMC45OCA5LjcyNjMsLTAuODcyNSAxNC41NjM4LDAuMjQ2MjUgMi4yMjYyLDAuNTE1IDQuMzkyNSwxLjIxODc1IDYuNTAzNywyLjA5IDAuMTUyNSwwLjA2MzcgMC4zMjUsMC4wODg4IDAuNDAyNSwwLjI2MjUgLTYuMjEyNSwwLjEyMTI1IC0xMS41ODc1LDIuNDkgLTE2LjQ4MjUsNi4xNDYyNSAtMi4zNjEyLDEuNzY1IC00LjQ2NjIsMy43OTUgLTYuMDg4Nyw2LjI2MTI1IC0xLjM0ODgsMi4wNDc1IC0yLjQzLDQuMjUzNzUgLTMuNDg1LDYuNDY1IC0yLjE1MzgsNC41MTUgLTMuOTE1LDkuMTc2MjUgLTUuMTcxMywxNC4wMjM3NSAtMS4wNzM3LDQuMTQ1IC0xLjc1MzcsOC4zNTI1IC0yLjExLDEyLjYyMjUgLTAuMjc2MiwzLjMwMzc1IC0wLjMzNSw2LjYxIC0wLjIwNjIsOS45MTEyNSAwLjE1ODcsNC4wNTUgMC41Mzc1LDguMDk3NSAxLjA2LDEyLjEyNzUgMC44NzM3LDYuNzU2MjUgMi4wNjc1LDEzLjQ1ODc1IDMuMTU2MiwyMC4xOCAwLjYwNSwzLjcyMzc1IDEuMTIxMyw3LjQ2MTI1IDEuNzE2MywxMS4xODUgMC44Njg3LDUuNDE3NSAzLjg0NzUsOS40NjUgOC4yNDUsMTIuNTc3NSAwLjE3NSwwLjEyMjUgMC4zNDg3LDAuMjQ3NSAwLjUyMzcsMC4zNzEyNSIvPiYjeGE7ICAgICAgICAgICAgPHBhdGggc3R5bGU9ImZpbGw6IzNmMmIyOSIgaWQ9InBhdGg4NiIgZD0ibSAxMTYwLjU4NzUsMjcuMjI1IGMgMS43NjYzLDAgMy41MzI1LC0wLjAwMTMgNS4yOTc1LC0wLjAwMTMgNC4yOTc1LDAuMTk1IDguNDk3NSwwLjkxMzc1IDEyLjU3MzgsMi4zMTEyNSAzLjE0NzUsMS4wNzg3NSAzLjg1MjUsMy4xNDI1IDEuOTUzNyw1Ljg3MTI1IC0xLjM1MzcsMS45NDg3NSAtMy4yMjYyLDMuMzU1IC01LjE2NzUsNC42NTg3NSAtMi41MzM3LDEuNzAxMjUgLTUuMjQ2MiwzLjA2MjUgLTguMSw0LjEzODc1IC0yLjk5LDEuMTI3NSAtNS44NDI1LDAuMDI2MjUgLTcuNjUxMiwtMi45NDUgLTAuNTcxMywtMC45MzYyNSAtMS4wMSwtMS45MzYyNSAtMS4zMTEzLC0yLjk5IC0wLjA5LC0wLjMxNSAtMC4yMjEyLC0wLjQ1NjI1IC0wLjU1ODcsLTAuNTE2MjUgLTYuNjQ1LC0xLjE3NzUgLTEyLjUwNzUsMC4zNTc1IC0xNy40MjYzLDUuMDY2MjUgLTQuMDAzNywzLjgzNSAtNi4zNzc1LDguNjQxMjUgLTguMDM2MiwxMy44NDEyNSAtMS40OTYzLDQuNjkxMjUgLTIuMjM2Myw5LjUxNSAtMi40NzEzLDE0LjQzMTI1IC0wLjIwODcsNC4zNyAwLjA4NSw4LjcwMzc1IDAuNzYxMywxMy4wMTg3NSAwLjEzMjUsMC43NCAwLjMxMjUsMS40NzUgMC4zODg3LDIuMjIgMC4wOTQsMC45MTg3NSAtMC4xNzc1LDEuNzIgLTAuOTc2MiwyLjI4NjI1IC0wLjgzNSwwLjU5MjUgLTEuNzksMC40OTEyNSAtMi43Mjg4LDAuNTA2MjUgLTIuMjI3NSwtMC42ODEyNSAtNC40NTUsLTEuMzYyNSAtNi42ODI1LC0yLjA0Mzc1IC0wLjAxNCwtMC41Mjg3NSAtMC4wMjgsLTEuMDU2MjUgLTAuMDQsLTEuNTgzNzUgMC4wMzMsLTIuMzA4NzUgMC4wNDEsLTQuNjE3NSAwLjE2ODgsLTYuOTIyNSAwLjUwNSwtOS4xMzI1IDEuODgxMiwtMTguMDg2MjUgNS40MTUsLTI2LjU5ODc1IDIuNjMsLTYuMzM1IDYuMzQ4NywtMTEuODkgMTEuNjgsLTE2LjI4NSA0LjM4MTIsLTMuNjExMjUgOS4zNzYyLC01Ljk4NSAxNC44ODEyLC03LjMxMTI1IDIuNjQsLTAuNjM1IDUuMzE3NSwtMS4wMiA4LjAzLC0xLjE1MjUiLz4mI3hhOyAgICAgICAgICAgIDxwYXRoIHN0eWxlPSJmaWxsOiMzODZlMzUiIGlkPSJwYXRoOTAiIGQ9Im0gMTEyNy4xMzc1LDg5LjExMjUgYyAwLjkzODgsLTAuMDE1IDEuODkzOCwwLjA4NjI1IDIuNzI4OCwtMC41MDYyNSAwLjc5NzUsLTAuNTY2MjUgMS4wNywtMS4zNjc1IDAuOTc2MiwtMi4yODYyNSAtMC4wNzcsLTAuNzQ2MjUgLTAuMjU2MiwtMS40OCAtMC4zOSwtMi4yMiAwLjQxODgsLTAuMDM4NzUgMC44Mzg4LC0wLjA3NjI1IDEuMjU4OCwtMC4xMTM3NSAxLjY5ODcsMC45NTEyNSAzLjQ3MzcsMS43NTUgNS4xNDUsMi43NjM3NSA0LjA0MjUsMi40NDEyNSA2LjUyODcsNi4wNzc1IDguMTU3NSwxMC4zOTg3NSAwLjI0NzUsMC42NTg3NSAwLjUwNjIsMS4zMTM3NSAwLjY5NSwyLjAxNSAtMC45NDUsLTAuODA3NSAtMS44NzI1LC0xLjYwNSAtMi44Mzc1LC0yLjM1Mzc1IC0zLjcyNSwtMi44ODc1IC03LjkyNzUsLTQuODYgLTEyLjMzLC02LjQ1IC0xLjEzNzUsLTAuNDExMjUgLTIuMjcsLTAuODMxMjUgLTMuNDAzOCwtMS4yNDc1Ii8+JiN4YTsgICAgICAgICAgICA8cGF0aCBzdHlsZT0iZmlsbDojMzg2ZTM1IiBpZD0icGF0aDk0IiBkPSJtIDExMjAuNDEyNSw4NS40ODc1IGMgMC4wMTMsMC41Mjc1IDAuMDI2LDEuMDU2MjUgMC4wMzksMS41ODM3NSAtMS41MiwtMC41IC0zLjA4ODcsLTAuODQ2MjUgLTQuNTcyNSwtMS40NjI1IDEuNTExMywtMC4wNDEyNSAzLjAyMjUsLTAuMDgxMjUgNC41MzM4LC0wLjEyMTI1Ii8+JiN4YTsgICAgICAgICAgPC9nPiYjeGE7ICAgICAgICA8L2c+JiN4YTsgICAgICAgIDxnIHN0eWxlPSJkaXNwbGF5OmlubGluZSIgaWQ9ImxheWVyMyI+JiN4YTsgICAgICAgICAgPGcgdHJhbnNmb3JtPSJtYXRyaXgoMS4wMjA4MTUsMCwwLDEuMDIwODE1LDEzNy44OTc4MiwzNDIuNjYzNzkpIiBpZD0iZzQzNzQiPiYjeGE7ICAgICAgICAgICAgPHRleHQgeD0iLTEwMC4wMDkwMyIgeT0iLTg0Ljk3MTM5IiBmb250LXNpemU9IjIwOS44N3B4IiBmb250LXdlaWdodD0iYm9sZCIgaWQ9InRleHQ1MyIgc3R5bGU9ImZvbnQtd2VpZ2h0OmJvbGQ7Zm9udC1zaXplOjI1Ni45OXB4O2xpbmUtaGVpZ2h0OjAlO2ZvbnQtZmFtaWx5OidNYXZlbiBQcm8nO2Rpc3BsYXk6aW5saW5lIj48dHNwYW4gY2xhc3M9InN0MCBzdDEgc3QyIiB4PSItMTAwLjAwOTAzIiB5PSItODQuOTcxMzkiIGZvbnQtc2l6ZT0iMjA5Ljg3cHgiIGZvbnQtd2VpZ2h0PSJib2xkIiBpZD0idHNwYW41NSIgc3R5bGU9ImZvbnQtd2VpZ2h0OmJvbGQ7Zm9udC1zaXplOjI1Ni45ODZweDtmb250LWZhbWlseTonTWF2ZW4gUHJvJztmaWxsOiMyNGFmNjMiPm5mLTx0c3BhbiBpZD0idHNwYW41NyIgc3R5bGU9ImZpbGw6IzAwMDAwMCIvPjwvdHNwYW4+PC90ZXh0PiYjeGE7ICAgICAgICAgICAgPHRleHQgeD0iMjc3LjQzOTc5IiB5PSItODQuOTcxMzkiIGZvbnQtc2l6ZT0iMjA5Ljg3cHgiIGZvbnQtd2VpZ2h0PSJib2xkIiBpZD0idGV4dDY5IiBzdHlsZT0iZm9udC13ZWlnaHQ6Ym9sZDtmb250LXNpemU6MjU2Ljk5cHg7bGluZS1oZWlnaHQ6MCU7Zm9udC1mYW1pbHk6J01hdmVuIFBybyc7ZGlzcGxheTppbmxpbmUiPjx0c3BhbiBjbGFzcz0ic3QwIHN0MSBzdDIiIHg9IjI3Ny40Mzk3OSIgeT0iLTg0Ljk3MTM5IiBmb250LXNpemU9IjIwOS44N3B4IiBmb250LXdlaWdodD0iYm9sZCIgaWQ9InRzcGFuNzEiIHN0eWxlPSJmb250LXdlaWdodDpib2xkO2ZvbnQtc2l6ZToyNTYuOTg2cHg7Zm9udC1mYW1pbHk6J01hdmVuIFBybyc7ZmlsbDojMjRhZjYzIj48dHNwYW4gaWQ9InRzcGFuNzMiIHN0eWxlPSJmaWxsOiMwMDAwMDAiPmNvcmU8L3RzcGFuPjwvdHNwYW4+PC90ZXh0PiYjeGE7ICAgICAgICAgICAgPHBhdGggc3R5bGU9ImZpbGw6dXJsKCNsaW5lYXJHcmFkaWVudDQzMzIpIiBpZD0icGF0aDQzMzAiIGQ9Im0gMjA4LjIyMzU2LC0xNzYuOTcyOTMgLTI2LjM2Njk4LDI2LjQ3IGggNzQuODA4NjUgdiAtMjYuNDcgeiIvPiYjeGE7ICAgICAgICAgIDwvZz4mI3hhOyAgICAgICAgPC9nPiYjeGE7ICAgICAgPC9nPiYjeGE7ICAgICAgPGcgc3R5bGU9ImRpc3BsYXk6aW5saW5lIiB0cmFuc2Zvcm09Im1hdHJpeCgwLjA5MTYwNDE5LDAsMCwwLjA5MTYwNDE5LDE0OC42MTM2NywyODQuMjY3MjUpIiBpZD0iZzEyMzYwMCI+JiN4YTsgICAgICAgIDxjaXJjbGUgaWQ9ImNpcmNsZTEyMzU5NiIgcj0iMzAuMDk2MDAxIiBjeT0iMzIuODczMDAxIiBjeD0iMzEuMzI1MDAxIiBmaWxsPSIjZmZmZmZmIi8+JiN4YTsgICAgICAgIDxwYXRoIGQ9Im0gMzEuNSwxNC4wOCBjIC0xMC41NjUsMCAtMTMuMjIyLDkuOTY5IC0xMy4yMjIsMTguNDIgMCw4LjQ1MiAyLjY1NiwxOC40MiAxMy4yMjIsMTguNDIgMTAuNTY0LDAgMTMuMjIxLC05Ljk2OCAxMy4yMjEsLTE4LjQyIDAsLTguNDUxIC0yLjY1NywtMTguNDIgLTEzLjIyMSwtMTguNDIgeiBtIDAsNi45NDYgYyAwLjQyOSwwIDAuODIsMC4wNjYgMS4xODgsMC4xNTcgMC43NjEsMC42NTYgMS4xMzMsMS41NjEgMC40MDMsMi44MjMgbCAtNy4wMzYsMTIuOTMgYyAtMC4yMTYsLTEuNjM2IC0wLjI0NywtMy4yNCAtMC4yNDcsLTQuNDM3IDAsLTMuNzIyIDAuMjU4LC0xMS40NzMgNS42OTIsLTExLjQ3MyB6IG0gNS4yNjYsNS45NjEgYyAwLjM3MywxLjk4NCAwLjQyNiw0LjA1NiAwLjQyNiw1LjUxMyAwLDMuNzIzIC0wLjI1OCwxMS40NzUgLTUuNjksMTEuNDc1IC0wLjQyOCwwIC0wLjgyMiwtMC4wNDUgLTEuMTg4LC0wLjEzNiAtMC4wNywtMC4wMjEgLTAuMTM0LC0wLjA0MyAtMC4yMDIsLTAuMDY3IC0wLjExMiwtMC4wMzIgLTAuMjMsLTAuMDY4IC0wLjMzNiwtMC4xMSAtMS4yMSwtMC41MTUgLTEuOTcyLC0xLjQ0NiAtMC44NzQsLTMuMDkzIHoiIGlkPSJ0ZXh0MjgwOV8xXyIvPiYjeGE7ICAgICAgICA8cGF0aCBkPSJNIDMxLjQzMywwLjUgQyAyMi41NTYsMC41IDE1LjA3NCwzLjU5IDguOTc5LDkuOCA1Ljg5MiwxMi44ODcgMy41MzYsMTYuNDA3IDEuODk3LDIwLjMzMiAwLjI5NywyNC4yMTkgLTAuNSwyOC4yNzEgLTAuNSwzMi41IGMgMCw0LjI2OCAwLjc5Nyw4LjMyIDIuMzk3LDEyLjE2OCAxLjYsMy44NSAzLjkyMSw3LjMxMiA2Ljk2OSwxMC4zOTYgMy4wODUsMy4wNDkgNi41NDksNS4zOTkgMTAuMzk4LDcuMDM3IDMuODg2LDEuNjAyIDcuOTM5LDIuMzk4IDEyLjE2OSwyLjM5OCA0LjIyOSwwIDguMzQsLTAuODI2IDEyLjMwMywtMi40NjUgMy45NjIsLTEuNjM5IDcuNDk2LC0zLjk5NCAxMC42MjEsLTcuMDgxIDMuMDExLC0yLjkzMyA1LjI4OSwtNi4yOTcgNi44MTIsLTEwLjEwNiBDIDYyLjczLDQxIDYzLjUsMzYuODgzIDYzLjUsMzIuNSA2My41LDI4LjE1NyA2Mi43MywyNC4wNDYgNjEuMTcsMjAuMTk3IDU5LjYwOCwxNi4zMTIgNTcuMzIyLDEyLjg3NyA1NC4zMTMsOS44NjcgNDguMDI1LDMuNjE5IDQwLjM4NSwwLjUgMzEuNDMzLDAuNSBaIG0gMC4xMzQsNS43NTkgYyA3LjIzOCwwIDEzLjQxMiwyLjU2NiAxOC41NTQsNy43MDkgMi40NzcsMi40NzcgNC4zNzUsNS4zMSA1LjY3LDguNDcxIDEuMjk2LDMuMTYyIDEuOTQ5LDYuNTE4IDEuOTQ5LDEwLjA2MSAwLDcuMzU0IC0yLjUxNiwxMy40NTQgLTcuNTA2LDE4LjMzIC0yLjU5MiwyLjUxNiAtNS41MDIsNC40NDcgLTguNzQsNS43ODEgLTMuMiwxLjMzNCAtNi40OTgsMS45OTQgLTkuOTI3LDEuOTk0IC0zLjQ2OCwwIC02Ljc4OCwtMC42NTMgLTkuOTQ5LC0xLjk0OCBDIDE4LjQ1NSw1NS4zMjMgMTUuNjE3LDUzLjQxOSAxMy4xMDIsNTAuOTQxIDEwLjU4Nyw0OC40MjcgOC42NDcsNDUuNTg4IDcuMjc2LDQyLjQyNSA1Ljk0MywzOS4yMjYgNS4yNTksMzUuOTI3IDUuMjU5LDMyLjQ5OCBjIDAsLTMuNDY3IDAuNjg0LC02Ljc4NyAyLjAxNywtOS45NDkgMS4zNzEsLTMuMiAzLjMxMiwtNi4wNzQgNS44MjYsLTguNjI4IDQuOTksLTUuMTAzIDExLjE1LC03LjY2MiAxOC40NjUsLTcuNjYyIHoiIGlkPSJwYXRoMjgxNV8xXyIvPiYjeGE7ICAgICAgPC9nPiYjeGE7ICAgICAgPGcgc3R5bGU9ImRpc3BsYXk6aW5saW5lIiB0cmFuc2Zvcm09Im1hdHJpeCgwLjA5MTYwNDE5LDAsMCwwLjA5MTYwNDE5LDE0MC42OTc1NiwyODQuNjMzNjcpIiBpZD0iZzEyMzU4NiI+JiN4YTsgICAgICAgIDxjaXJjbGUgaWQ9ImNpcmNsZTEyMzU4MiIgcj0iMjguODM2IiBjeT0iMjguNTAwOTk5IiBjeD0iMzcuNzg1IiBmaWxsPSIjZmZmZmZmIi8+JiN4YTsgICAgICAgIDxwYXRoIGlkPSJwYXRoMTIzNTg0IiBkPSJtIDM3LjQ0MSwtMy41IGMgOC45NTEsMCAxNi41NzIsMy4xMjUgMjIuODU3LDkuMzcyIDMuMDA4LDMuMDA5IDUuMjk1LDYuNDQ4IDYuODU3LDEwLjMxNCAxLjU2MSwzLjg2NyAyLjM0NCw3Ljk3MSAyLjM0NCwxMi4zMTQgMCw0LjM4MSAtMC43NzMsOC40ODYgLTIuMzE0LDEyLjMxMyAtMS41NDMsMy44MjggLTMuODIsNy4yMSAtNi44MjgsMTAuMTQzIC0zLjEyMywzLjA4NSAtNi42NjYsNS40NDggLTEwLjYyOSw3LjA4NiAtMy45NjEsMS42MzggLTguMDU3LDIuNDU3IC0xMi4yODUsMi40NTcgLTQuMjI4LDAgLTguMjc2LC0wLjgwOCAtMTIuMTQzLC0yLjQyOSBDIDIxLjQzNCw1Ni40NTIgMTcuOTY3LDU0LjEwOSAxNC45LDUxLjA0MyAxMS44MzMsNDcuOTc3IDkuNSw0NC41MTkgNy45LDQwLjY3MSA2LjMsMzYuODIzIDUuNSwzMi43NjcgNS41LDI4LjUgNS41LDI0LjI3MSA2LjMwOSwyMC4yMDUgNy45MjgsMTYuMyA5LjU0NywxMi4zOTUgMTEuOSw4LjkgMTQuOTg1LDUuODE0IDIxLjA4LC0wLjM5NCAyOC41NjUsLTMuNSAzNy40NDEsLTMuNSBaIG0gMC4xMTYsNS43NzIgYyAtNy4zMTQsMCAtMTMuNDY3LDIuNTUzIC0xOC40NTgsNy42NTcgLTIuNTE1LDIuNTUzIC00LjQ0OCw1LjQxOSAtNS44LDguNiAtMS4zNTQsMy4xODEgLTIuMDI5LDYuNTA1IC0yLjAyOSw5Ljk3MiAwLDMuNDI5IDAuNjc1LDYuNzM0IDIuMDI5LDkuOTEzIDEuMzUzLDMuMTgzIDMuMjg1LDYuMDIxIDUuOCw4LjUxNiAyLjUxNCwyLjQ5NiA1LjM1MSw0LjM5OSA4LjUxNSw1LjcxNSAzLjE2MSwxLjMxNCA2LjQ3NiwxLjk3MSA5Ljk0MywxLjk3MSAzLjQyOCwwIDYuNzUsLTAuNjY1IDkuOTczLC0xLjk5OSAzLjIxOSwtMS4zMzUgNi4xMjEsLTMuMjU3IDguNzEzLC01Ljc3MSA0Ljk5LC00Ljg3NiA3LjQ4NCwtMTAuOTkgNy40ODQsLTE4LjM0NCAwLC0zLjU0MyAtMC42NDgsLTYuODk1IC0xLjk0MywtMTAuMDU3IEMgNjAuNDkxLDE1LjI4MyA1OC42MDQsMTIuNDY1IDU2LjEzLDkuOTg3IDUwLjk4NCw0Ljg0NCA0NC43OTUsMi4yNzIgMzcuNTU3LDIuMjcyIFogbSAtMC40MDEsMjAuOTE1IC00LjI4NywyLjIyOSBjIC0wLjQ1OCwtMC45NTEgLTEuMDE5LC0xLjYxOSAtMS42ODUsLTIgLTAuNjY3LC0wLjM4IC0xLjI4NiwtMC41NzEgLTEuODU4LC0wLjU3MSAtMi44NTYsMCAtNC4yODYsMS44ODUgLTQuMjg2LDUuNjU3IDAsMS43MTQgMC4zNjIsMy4wODQgMS4wODUsNC4xMTMgMC43MjQsMS4wMjkgMS43OTEsMS41NDQgMy4yMDEsMS41NDQgMS44NjcsMCAzLjE4MSwtMC45MTUgMy45NDQsLTIuNzQzIGwgMy45NDIsMiBjIC0wLjgzOCwxLjU2MyAtMiwyLjc5MSAtMy40ODYsMy42ODYgLTEuNDg0LDAuODk2IC0zLjEyMywxLjM0MyAtNC45MTQsMS4zNDMgLTIuODU3LDAgLTUuMTYzLC0wLjg3NSAtNi45MTUsLTIuNjI5IC0xLjc1MiwtMS43NTIgLTIuNjI4LC00LjE5IC0yLjYyOCwtNy4zMTMgMCwtMy4wNDggMC44ODYsLTUuNDY2IDIuNjU3LC03LjI1NyAxLjc3MSwtMS43OSA0LjAwOSwtMi42ODYgNi43MTUsLTIuNjg2IDMuOTYzLC0wLjAwMiA2LjgsMS41NDEgOC41MTUsNC42MjcgeiBtIDE4LjQ1NywwIC00LjIyOSwyLjIyOSBjIC0wLjQ1NywtMC45NTEgLTEuMDIsLTEuNjE5IC0xLjY4NiwtMiAtMC42NjgsLTAuMzggLTEuMzA3LC0wLjU3MSAtMS45MTQsLTAuNTcxIC0yLjg1NywwIC00LjI4NywxLjg4NSAtNC4yODcsNS42NTcgMCwxLjcxNCAwLjM2MywzLjA4NCAxLjA4Niw0LjExMyAwLjcyMywxLjAyOSAxLjc4OSwxLjU0NCAzLjIwMSwxLjU0NCAxLjg2NSwwIDMuMTgsLTAuOTE1IDMuOTQxLC0yLjc0MyBsIDQsMiBjIC0wLjg3NSwxLjU2MyAtMi4wNTcsMi43OTEgLTMuNTQxLDMuNjg2IC0xLjQ4NiwwLjg5NiAtMy4xMDUsMS4zNDMgLTQuODU3LDEuMzQzIC0yLjg5NiwwIC01LjIwOSwtMC44NzUgLTYuOTQxLC0yLjYyOSAtMS43MzYsLTEuNzUyIC0yLjYwMiwtNC4xOSAtMi42MDIsLTcuMzEzIDAsLTMuMDQ4IDAuODg1LC01LjQ2NiAyLjY1OCwtNy4yNTcgMS43NywtMS43OSA0LjAwOCwtMi42ODYgNi43MTMsLTIuNjg2IDMuOTYyLC0wLjAwMiA2Ljc4MywxLjU0MSA4LjQ1OCw0LjYyNyB6Ii8+JiN4YTsgICAgICA8L2c+JiN4YTsgICAgPC9nPiYjeGE7ICA8L2c+JiN4YTs8L3N2Zz4=;" vertex="1" parent="copLugqQvAR0kvUUau8e-1">
          <mxGeometry x="505" y="993.24" width="315" height="166.76" as="geometry" />
        </mxCell>
        <mxCell id="copLugqQvAR0kvUUau8e-176" value="" style="shape=image;verticalLabelPosition=bottom;labelBackgroundColor=default;verticalAlign=top;aspect=fixed;imageAspect=0;image=data:image/svg+xml,PHN2ZyB4bWxucz0iaHR0cDovL3d3dy53My5vcmcvMjAwMC9zdmciIGlkPSJzdmc3MzYyIiB2ZXJzaW9uPSIxLjEiIHZpZXdCb3g9IjAgMCA0OS43NzY4MTUgMjYuNzYyMTc0IiBoZWlnaHQ9IjEwMS4xNDgzOCIgd2lkdGg9IjE4OC4xMzI4NCI+JiN4YTsgIDxkZWZzIGlkPSJkZWZzNzM1OSIvPiYjeGE7ICA8ZyB0cmFuc2Zvcm09InRyYW5zbGF0ZSgtNTguMjA4MzMyLC0yNjYuOTI1MzEpIiBzdHlsZT0iZGlzcGxheTppbmxpbmUiIGlkPSJsYXllcjQiPiYjeGE7ICAgIDxnIHN0eWxlPSJkaXNwbGF5OmlubGluZSIgaWQ9ImxheWVyMTQiPiYjeGE7ICAgICAgPHRleHQgaWQ9InRleHQyMDc5Mi04LTctNC0yLTMiIHk9IjI2OS44NDE5MiIgeD0iNzYuNDcwNzc5IiBzdHlsZT0iZm9udC1zaXplOjQuMjMzMzNweDtsaW5lLWhlaWdodDoxLjI1O2ZvbnQtZmFtaWx5OkNvbW1pc3Npb25lcjstaW5rc2NhcGUtZm9udC1zcGVjaWZpY2F0aW9uOkNvbW1pc3Npb25lcjtsZXR0ZXItc3BhY2luZzowcHg7ZGlzcGxheTppbmxpbmU7c3Ryb2tlLXdpZHRoOjAuMjY0NTgzIiB4bWw6c3BhY2U9InByZXNlcnZlIj48dHNwYW4geT0iMjY5Ljg0MTkyIiB4PSI3Ni40NzA3NzkiIHN0eWxlPSJmb250LXN0eWxlOm5vcm1hbDtmb250LXZhcmlhbnQ6bm9ybWFsO2ZvbnQtd2VpZ2h0OmJvbGQ7Zm9udC1zdHJldGNoOm5vcm1hbDtmb250LWZhbWlseTonTWF2ZW4gUHJvJzstaW5rc2NhcGUtZm9udC1zcGVjaWZpY2F0aW9uOidNYXZlbiBQcm8gQm9sZCc7c3Ryb2tlLXdpZHRoOjAuMjY0NTgzIiBpZD0idHNwYW4yMDc5MC05LTMtNy03LTkiPkNvbG9yczwvdHNwYW4+PC90ZXh0PiYjeGE7ICAgICAgPHJlY3Qgcng9IjAuNzkzNzQ4NzQiIHJ5PSIwLjc5Mzc0ODc0IiB5PSIyNzIuNTIwNzgiIHg9IjU4LjIwODMzMiIgaGVpZ2h0PSI1LjI5MTY2NjUiIHdpZHRoPSI1LjI5MTY2NjUiIGlkPSJyZWN0MjM0MTUiIHN0eWxlPSJkaXNwbGF5OmlubGluZTtmaWxsOiMyNGIwNjQ7ZmlsbC1vcGFjaXR5OjE7c3Ryb2tlOm5vbmU7c3Ryb2tlLXdpZHRoOjIuNjQ1ODM7c3Ryb2tlLWxpbmVjYXA6cm91bmQ7c3Ryb2tlLWxpbmVqb2luOm1pdGVyO3N0cm9rZS1taXRlcmxpbWl0OjAuNjtzdHJva2UtZGFzaGFycmF5Om5vbmU7c3Ryb2tlLWRhc2hvZmZzZXQ6Mi4wMDAwMTtzdHJva2Utb3BhY2l0eToxO3BhaW50LW9yZGVyOmZpbGwgbWFya2VycyBzdHJva2U7c3RvcC1jb2xvcjojMDAwMDAwIi8+JiN4YTsgICAgICA8cmVjdCByeD0iMC43OTM3NDg3NCIgcnk9IjAuNzkzNzQ4NzQiIHk9IjI4MC40NTgzMSIgeD0iNTguMjA4MzMyIiBoZWlnaHQ9IjUuMjkxNjY2NSIgd2lkdGg9IjUuMjkxNjY2NSIgaWQ9InJlY3QyMzQxNS01IiBzdHlsZT0iZGlzcGxheTppbmxpbmU7ZmlsbDojZjE4MDQ2O2ZpbGwtb3BhY2l0eToxO3N0cm9rZTpub25lO3N0cm9rZS13aWR0aDoyLjY0NTgzO3N0cm9rZS1saW5lY2FwOnJvdW5kO3N0cm9rZS1saW5lam9pbjptaXRlcjtzdHJva2UtbWl0ZXJsaW1pdDowLjY7c3Ryb2tlLWRhc2hhcnJheTpub25lO3N0cm9rZS1kYXNob2Zmc2V0OjIuMDAwMDE7c3Ryb2tlLW9wYWNpdHk6MTtwYWludC1vcmRlcjpmaWxsIG1hcmtlcnMgc3Ryb2tlO3N0b3AtY29sb3I6IzAwMDAwMCIvPiYjeGE7ICAgICAgPHJlY3Qgcng9IjAuNzkzNzQ4NzQiIHJ5PSIwLjc5Mzc0ODc0IiB5PSIyODguMzk1ODEiIHg9IjU4LjIwODMzMiIgaGVpZ2h0PSI1LjI5MTY2NjUiIHdpZHRoPSI1LjI5MTY2NjUiIGlkPSJyZWN0MjM0MTUtMSIgc3R5bGU9ImRpc3BsYXk6aW5saW5lO2ZpbGw6IzNkOTVmZDtmaWxsLW9wYWNpdHk6MTtzdHJva2U6bm9uZTtzdHJva2Utd2lkdGg6Mi42NDU4MztzdHJva2UtbGluZWNhcDpyb3VuZDtzdHJva2UtbGluZWpvaW46bWl0ZXI7c3Ryb2tlLW1pdGVybGltaXQ6MC42O3N0cm9rZS1kYXNoYXJyYXk6bm9uZTtzdHJva2UtZGFzaG9mZnNldDoyLjAwMDAxO3N0cm9rZS1vcGFjaXR5OjE7cGFpbnQtb3JkZXI6ZmlsbCBtYXJrZXJzIHN0cm9rZTtzdG9wLWNvbG9yOiMwMDAwMDAiLz4mI3hhOyAgICAgIDxyZWN0IHJ4PSIwLjc5Mzc0ODc0IiByeT0iMC43OTM3NDg3NCIgeT0iMjg4LjM5NTgxIiB4PSI4NC42NjY2NzIiIGhlaWdodD0iNS4yOTE2NjY1IiB3aWR0aD0iNS4yOTE2NjY1IiBpZD0icmVjdDIzNDE1LTEtNCIgc3R5bGU9ImRpc3BsYXk6aW5saW5lO2ZpbGw6I2ZhNjg2MztmaWxsLW9wYWNpdHk6MTtzdHJva2U6bm9uZTtzdHJva2Utd2lkdGg6Mi42NDU4MztzdHJva2UtbGluZWNhcDpyb3VuZDtzdHJva2UtbGluZWpvaW46bWl0ZXI7c3Ryb2tlLW1pdGVybGltaXQ6MC42O3N0cm9rZS1kYXNoYXJyYXk6bm9uZTtzdHJva2UtZGFzaG9mZnNldDoyLjAwMDAxO3N0cm9rZS1vcGFjaXR5OjE7cGFpbnQtb3JkZXI6ZmlsbCBtYXJrZXJzIHN0cm9rZTtzdG9wLWNvbG9yOiMwMDAwMDAiLz4mI3hhOyAgICAgIDxyZWN0IHJ4PSIwLjc5Mzc0ODc0IiByeT0iMC43OTM3NDg3NCIgeT0iMjcyLjUyMDgxIiB4PSI4NC42NjY2NzIiIGhlaWdodD0iNS4yOTE2NjY1IiB3aWR0aD0iNS4yOTE2NjY1IiBpZD0icmVjdDIzNDE1LTMiIHN0eWxlPSJkaXNwbGF5OmlubGluZTtmaWxsOiNlY2RjODY7ZmlsbC1vcGFjaXR5OjE7c3Ryb2tlOm5vbmU7c3Ryb2tlLXdpZHRoOjIuNjQ1ODM7c3Ryb2tlLWxpbmVjYXA6cm91bmQ7c3Ryb2tlLWxpbmVqb2luOm1pdGVyO3N0cm9rZS1taXRlcmxpbWl0OjAuNjtzdHJva2UtZGFzaGFycmF5Om5vbmU7c3Ryb2tlLWRhc2hvZmZzZXQ6Mi4wMDAwMTtzdHJva2Utb3BhY2l0eToxO3BhaW50LW9yZGVyOmZpbGwgbWFya2VycyBzdHJva2U7c3RvcC1jb2xvcjojMDAwMDAwIi8+JiN4YTsgICAgICA8cmVjdCByeD0iMC43OTM3NDg3NCIgcnk9IjAuNzkzNzQ4NzQiIHk9IjI4MC40NTgzMSIgeD0iODQuNjY2NjcyIiBoZWlnaHQ9IjUuMjkxNjY2NSIgd2lkdGg9IjUuMjkxNjY2NSIgaWQ9InJlY3QyMzQxNS0xOCIgc3R5bGU9ImRpc3BsYXk6aW5saW5lO2ZpbGw6IzNmMmIyOTtmaWxsLW9wYWNpdHk6MTtzdHJva2U6bm9uZTtzdHJva2Utd2lkdGg6Mi42NDU4MztzdHJva2UtbGluZWNhcDpyb3VuZDtzdHJva2UtbGluZWpvaW46bWl0ZXI7c3Ryb2tlLW1pdGVybGltaXQ6MC42O3N0cm9rZS1kYXNoYXJyYXk6bm9uZTtzdHJva2UtZGFzaG9mZnNldDoyLjAwMDAxO3N0cm9rZS1vcGFjaXR5OjE7cGFpbnQtb3JkZXI6ZmlsbCBtYXJrZXJzIHN0cm9rZTtzdG9wLWNvbG9yOiMwMDAwMDAiLz4mI3hhOyAgICAgIDx0ZXh0IGlkPSJ0ZXh0MjU1NTYiIHk9IjI3Ni4zOTc0MyIgeD0iNzMuNzg4NDA2IiBzdHlsZT0iZm9udC13ZWlnaHQ6Ym9sZDtmb250LXNpemU6NS4yOTE2N3B4O2ZvbnQtZmFtaWx5OidNYXZlbiBQcm8nOy1pbmtzY2FwZS1mb250LXNwZWNpZmljYXRpb246J01hdmVuIFBybywgQm9sZCc7dGV4dC1hbGlnbjpjZW50ZXI7dGV4dC1vcmllbnRhdGlvbjp1cHJpZ2h0O3RleHQtYW5jaG9yOm1pZGRsZTtmaWxsOiMwMDAwMDA7ZmlsbC1vcGFjaXR5OjE7c3Ryb2tlOm5vbmU7c3Ryb2tlLXdpZHRoOjAuMjY0NTgzO3N0cm9rZS1saW5lY2FwOnJvdW5kO3N0cm9rZS1saW5lam9pbjptaXRlcjtzdHJva2UtbWl0ZXJsaW1pdDowLjY7c3Ryb2tlLWRhc2hhcnJheTpub25lO3N0cm9rZS1kYXNob2Zmc2V0OjIuMDAwMDE7c3Ryb2tlLW9wYWNpdHk6MTtwYWludC1vcmRlcjpmaWxsIG1hcmtlcnMgc3Ryb2tlO3N0b3AtY29sb3I6IzAwMDAwMCIgeG1sOnNwYWNlPSJwcmVzZXJ2ZSI+PHRzcGFuIHk9IjI3Ni4zOTc0MyIgeD0iNzMuNzg4NDA2IiBzdHlsZT0iZm9udC1zdHlsZTpub3JtYWw7Zm9udC12YXJpYW50Om5vcm1hbDtmb250LXdlaWdodDpib2xkO2ZvbnQtc3RyZXRjaDpub3JtYWw7Zm9udC1zaXplOjMuNzA0MTdweDtmb250LWZhbWlseTonTWF2ZW4gUHJvJzstaW5rc2NhcGUtZm9udC1zcGVjaWZpY2F0aW9uOidNYXZlbiBQcm8sIEJvbGQnO2ZvbnQtdmFyaWFudC1saWdhdHVyZXM6bm9ybWFsO2ZvbnQtdmFyaWFudC1jYXBzOm5vcm1hbDtmb250LXZhcmlhbnQtbnVtZXJpYzpub3JtYWw7Zm9udC12YXJpYW50LWVhc3QtYXNpYW46bm9ybWFsO2ZpbGw6IzAwMDAwMDtmaWxsLW9wYWNpdHk6MTtzdHJva2U6bm9uZTtzdHJva2Utd2lkdGg6MC4yNjQ1ODMiIGlkPSJ0c3BhbjI1NTU0Ij4jMjRCMDY0PC90c3Bhbj48L3RleHQ+JiN4YTsgICAgICA8dGV4dCBpZD0idGV4dDI1NTU2LTEiIHk9IjI4NC4zMzQ5NiIgeD0iNzMuNDU2NTEyIiBzdHlsZT0iZm9udC13ZWlnaHQ6Ym9sZDtmb250LXNpemU6NS4yOTE2N3B4O2ZvbnQtZmFtaWx5OidNYXZlbiBQcm8nOy1pbmtzY2FwZS1mb250LXNwZWNpZmljYXRpb246J01hdmVuIFBybywgQm9sZCc7dGV4dC1hbGlnbjpjZW50ZXI7dGV4dC1vcmllbnRhdGlvbjp1cHJpZ2h0O3RleHQtYW5jaG9yOm1pZGRsZTtkaXNwbGF5OmlubGluZTtmaWxsOiMwMDAwMDA7ZmlsbC1vcGFjaXR5OjE7c3Ryb2tlOm5vbmU7c3Ryb2tlLXdpZHRoOjAuMjY0NTgzO3N0cm9rZS1saW5lY2FwOnJvdW5kO3N0cm9rZS1saW5lam9pbjptaXRlcjtzdHJva2UtbWl0ZXJsaW1pdDowLjY7c3Ryb2tlLWRhc2hhcnJheTpub25lO3N0cm9rZS1kYXNob2Zmc2V0OjIuMDAwMDE7c3Ryb2tlLW9wYWNpdHk6MTtwYWludC1vcmRlcjpmaWxsIG1hcmtlcnMgc3Ryb2tlO3N0b3AtY29sb3I6IzAwMDAwMCIgeG1sOnNwYWNlPSJwcmVzZXJ2ZSI+PHRzcGFuIHk9IjI4NC4zMzQ5NiIgeD0iNzMuNDU2NTEyIiBzdHlsZT0iZm9udC1zdHlsZTpub3JtYWw7Zm9udC12YXJpYW50Om5vcm1hbDtmb250LXdlaWdodDpib2xkO2ZvbnQtc3RyZXRjaDpub3JtYWw7Zm9udC1zaXplOjMuNzA0MTdweDtmb250LWZhbWlseTonTWF2ZW4gUHJvJzstaW5rc2NhcGUtZm9udC1zcGVjaWZpY2F0aW9uOidNYXZlbiBQcm8sIEJvbGQnO2ZvbnQtdmFyaWFudC1saWdhdHVyZXM6bm9ybWFsO2ZvbnQtdmFyaWFudC1jYXBzOm5vcm1hbDtmb250LXZhcmlhbnQtbnVtZXJpYzpub3JtYWw7Zm9udC12YXJpYW50LWVhc3QtYXNpYW46bm9ybWFsO2ZpbGw6IzAwMDAwMDtmaWxsLW9wYWNpdHk6MTtzdHJva2U6bm9uZTtzdHJva2Utd2lkdGg6MC4yNjQ1ODMiIGlkPSJ0c3BhbjI1NTU0LTkiPiNGMTgwNDY8L3RzcGFuPjwvdGV4dD4mI3hhOyAgICAgIDx0ZXh0IGlkPSJ0ZXh0MjU1NTYtOCIgeT0iMjkyLjMzMzA0IiB4PSI3My4wNjY3NDIiIHN0eWxlPSJmb250LXdlaWdodDpib2xkO2ZvbnQtc2l6ZTo1LjI5MTY3cHg7Zm9udC1mYW1pbHk6J01hdmVuIFBybyc7LWlua3NjYXBlLWZvbnQtc3BlY2lmaWNhdGlvbjonTWF2ZW4gUHJvLCBCb2xkJzt0ZXh0LWFsaWduOmNlbnRlcjt0ZXh0LW9yaWVudGF0aW9uOnVwcmlnaHQ7dGV4dC1hbmNob3I6bWlkZGxlO2Rpc3BsYXk6aW5saW5lO2ZpbGw6IzAwMDAwMDtmaWxsLW9wYWNpdHk6MTtzdHJva2U6bm9uZTtzdHJva2Utd2lkdGg6MC4yNjQ1ODM7c3Ryb2tlLWxpbmVjYXA6cm91bmQ7c3Ryb2tlLWxpbmVqb2luOm1pdGVyO3N0cm9rZS1taXRlcmxpbWl0OjAuNjtzdHJva2UtZGFzaGFycmF5Om5vbmU7c3Ryb2tlLWRhc2hvZmZzZXQ6Mi4wMDAwMTtzdHJva2Utb3BhY2l0eToxO3BhaW50LW9yZGVyOmZpbGwgbWFya2VycyBzdHJva2U7c3RvcC1jb2xvcjojMDAwMDAwIiB4bWw6c3BhY2U9InByZXNlcnZlIj48dHNwYW4geT0iMjkyLjMzMzA0IiB4PSI3My4wNjY3NDIiIHN0eWxlPSJmb250LXN0eWxlOm5vcm1hbDtmb250LXZhcmlhbnQ6bm9ybWFsO2ZvbnQtd2VpZ2h0OmJvbGQ7Zm9udC1zdHJldGNoOm5vcm1hbDtmb250LXNpemU6My43MDQxN3B4O2ZvbnQtZmFtaWx5OidNYXZlbiBQcm8nOy1pbmtzY2FwZS1mb250LXNwZWNpZmljYXRpb246J01hdmVuIFBybywgQm9sZCc7Zm9udC12YXJpYW50LWxpZ2F0dXJlczpub3JtYWw7Zm9udC12YXJpYW50LWNhcHM6bm9ybWFsO2ZvbnQtdmFyaWFudC1udW1lcmljOm5vcm1hbDtmb250LXZhcmlhbnQtZWFzdC1hc2lhbjpub3JtYWw7ZmlsbDojMDAwMDAwO2ZpbGwtb3BhY2l0eToxO3N0cm9rZTpub25lO3N0cm9rZS13aWR0aDowLjI2NDU4MyIgaWQ9InRzcGFuMjU1NTQtOTgiPiMzZDk1ZmQ8L3RzcGFuPjwvdGV4dD4mI3hhOyAgICAgIDx0ZXh0IGlkPSJ0ZXh0MjU1NTYtNyIgeT0iMjc2LjQwMzc4IiB4PSIxMDAuMjQ2NzMiIHN0eWxlPSJmb250LXdlaWdodDpib2xkO2ZvbnQtc2l6ZTo1LjI5MTY3cHg7Zm9udC1mYW1pbHk6J01hdmVuIFBybyc7LWlua3NjYXBlLWZvbnQtc3BlY2lmaWNhdGlvbjonTWF2ZW4gUHJvLCBCb2xkJzt0ZXh0LWFsaWduOmNlbnRlcjt0ZXh0LW9yaWVudGF0aW9uOnVwcmlnaHQ7dGV4dC1hbmNob3I6bWlkZGxlO2Rpc3BsYXk6aW5saW5lO2ZpbGw6IzAwMDAwMDtmaWxsLW9wYWNpdHk6MTtzdHJva2U6bm9uZTtzdHJva2Utd2lkdGg6MC4yNjQ1ODM7c3Ryb2tlLWxpbmVjYXA6cm91bmQ7c3Ryb2tlLWxpbmVqb2luOm1pdGVyO3N0cm9rZS1taXRlcmxpbWl0OjAuNjtzdHJva2UtZGFzaGFycmF5Om5vbmU7c3Ryb2tlLWRhc2hvZmZzZXQ6Mi4wMDAwMTtzdHJva2Utb3BhY2l0eToxO3BhaW50LW9yZGVyOmZpbGwgbWFya2VycyBzdHJva2U7c3RvcC1jb2xvcjojMDAwMDAwIiB4bWw6c3BhY2U9InByZXNlcnZlIj48dHNwYW4geT0iMjc2LjQwMzc4IiB4PSIxMDAuMjQ2NzMiIHN0eWxlPSJmb250LXN0eWxlOm5vcm1hbDtmb250LXZhcmlhbnQ6bm9ybWFsO2ZvbnQtd2VpZ2h0OmJvbGQ7Zm9udC1zdHJldGNoOm5vcm1hbDtmb250LXNpemU6My43MDQxN3B4O2ZvbnQtZmFtaWx5OidNYXZlbiBQcm8nOy1pbmtzY2FwZS1mb250LXNwZWNpZmljYXRpb246J01hdmVuIFBybywgQm9sZCc7Zm9udC12YXJpYW50LWxpZ2F0dXJlczpub3JtYWw7Zm9udC12YXJpYW50LWNhcHM6bm9ybWFsO2ZvbnQtdmFyaWFudC1udW1lcmljOm5vcm1hbDtmb250LXZhcmlhbnQtZWFzdC1hc2lhbjpub3JtYWw7ZmlsbDojMDAwMDAwO2ZpbGwtb3BhY2l0eToxO3N0cm9rZTpub25lO3N0cm9rZS13aWR0aDowLjI2NDU4MyIgaWQ9InRzcGFuMjU1NTQtMSI+I0VDREM4NjwvdHNwYW4+PC90ZXh0PiYjeGE7ICAgICAgPHRleHQgaWQ9InRleHQyNTU1Ni02IiB5PSIyODQuMzQxMjgiIHg9IjEwMC4xMDIwNCIgc3R5bGU9ImZvbnQtd2VpZ2h0OmJvbGQ7Zm9udC1zaXplOjUuMjkxNjdweDtmb250LWZhbWlseTonTWF2ZW4gUHJvJzstaW5rc2NhcGUtZm9udC1zcGVjaWZpY2F0aW9uOidNYXZlbiBQcm8sIEJvbGQnO3RleHQtYWxpZ246Y2VudGVyO3RleHQtb3JpZW50YXRpb246dXByaWdodDt0ZXh0LWFuY2hvcjptaWRkbGU7ZGlzcGxheTppbmxpbmU7ZmlsbDojMDAwMDAwO2ZpbGwtb3BhY2l0eToxO3N0cm9rZTpub25lO3N0cm9rZS13aWR0aDowLjI2NDU4MztzdHJva2UtbGluZWNhcDpyb3VuZDtzdHJva2UtbGluZWpvaW46bWl0ZXI7c3Ryb2tlLW1pdGVybGltaXQ6MC42O3N0cm9rZS1kYXNoYXJyYXk6bm9uZTtzdHJva2UtZGFzaG9mZnNldDoyLjAwMDAxO3N0cm9rZS1vcGFjaXR5OjE7cGFpbnQtb3JkZXI6ZmlsbCBtYXJrZXJzIHN0cm9rZTtzdG9wLWNvbG9yOiMwMDAwMDAiIHhtbDpzcGFjZT0icHJlc2VydmUiPjx0c3BhbiB5PSIyODQuMzQxMjgiIHg9IjEwMC4xMDIwNCIgc3R5bGU9ImZvbnQtc3R5bGU6bm9ybWFsO2ZvbnQtdmFyaWFudDpub3JtYWw7Zm9udC13ZWlnaHQ6Ym9sZDtmb250LXN0cmV0Y2g6bm9ybWFsO2ZvbnQtc2l6ZTozLjcwNDE3cHg7Zm9udC1mYW1pbHk6J01hdmVuIFBybyc7LWlua3NjYXBlLWZvbnQtc3BlY2lmaWNhdGlvbjonTWF2ZW4gUHJvLCBCb2xkJztmb250LXZhcmlhbnQtbGlnYXR1cmVzOm5vcm1hbDtmb250LXZhcmlhbnQtY2Fwczpub3JtYWw7Zm9udC12YXJpYW50LW51bWVyaWM6bm9ybWFsO2ZvbnQtdmFyaWFudC1lYXN0LWFzaWFuOm5vcm1hbDtmaWxsOiMwMDAwMDA7ZmlsbC1vcGFjaXR5OjE7c3Ryb2tlOm5vbmU7c3Ryb2tlLXdpZHRoOjAuMjY0NTgzIiBpZD0idHNwYW4yNTU1NC02Ij4jM0YyQjI5PC90c3Bhbj48L3RleHQ+JiN4YTsgICAgICA8dGV4dCBpZD0idGV4dDI1NTU2LTUiIHk9IjI5Mi4yNzg3OCIgeD0iMTAwLjI0NjczIiBzdHlsZT0iZm9udC13ZWlnaHQ6Ym9sZDtmb250LXNpemU6NS4yOTE2N3B4O2ZvbnQtZmFtaWx5OidNYXZlbiBQcm8nOy1pbmtzY2FwZS1mb250LXNwZWNpZmljYXRpb246J01hdmVuIFBybywgQm9sZCc7dGV4dC1hbGlnbjpjZW50ZXI7dGV4dC1vcmllbnRhdGlvbjp1cHJpZ2h0O3RleHQtYW5jaG9yOm1pZGRsZTtkaXNwbGF5OmlubGluZTtmaWxsOiMwMDAwMDA7ZmlsbC1vcGFjaXR5OjE7c3Ryb2tlOm5vbmU7c3Ryb2tlLXdpZHRoOjAuMjY0NTgzO3N0cm9rZS1saW5lY2FwOnJvdW5kO3N0cm9rZS1saW5lam9pbjptaXRlcjtzdHJva2UtbWl0ZXJsaW1pdDowLjY7c3Ryb2tlLWRhc2hhcnJheTpub25lO3N0cm9rZS1kYXNob2Zmc2V0OjIuMDAwMDE7c3Ryb2tlLW9wYWNpdHk6MTtwYWludC1vcmRlcjpmaWxsIG1hcmtlcnMgc3Ryb2tlO3N0b3AtY29sb3I6IzAwMDAwMCIgeG1sOnNwYWNlPSJwcmVzZXJ2ZSI+PHRzcGFuIHk9IjI5Mi4yNzg3OCIgeD0iMTAwLjI0NjczIiBzdHlsZT0iZm9udC1zdHlsZTpub3JtYWw7Zm9udC12YXJpYW50Om5vcm1hbDtmb250LXdlaWdodDpib2xkO2ZvbnQtc3RyZXRjaDpub3JtYWw7Zm9udC1zaXplOjMuNzA0MTdweDtmb250LWZhbWlseTonTWF2ZW4gUHJvJzstaW5rc2NhcGUtZm9udC1zcGVjaWZpY2F0aW9uOidNYXZlbiBQcm8sIEJvbGQnO2ZvbnQtdmFyaWFudC1saWdhdHVyZXM6bm9ybWFsO2ZvbnQtdmFyaWFudC1jYXBzOm5vcm1hbDtmb250LXZhcmlhbnQtbnVtZXJpYzpub3JtYWw7Zm9udC12YXJpYW50LWVhc3QtYXNpYW46bm9ybWFsO2ZpbGw6IzAwMDAwMDtmaWxsLW9wYWNpdHk6MTtzdHJva2U6bm9uZTtzdHJva2Utd2lkdGg6MC4yNjQ1ODMiIGlkPSJ0c3BhbjI1NTU0LTciPiNGQTY4NjM8L3RzcGFuPjwvdGV4dD4mI3hhOyAgICA8L2c+JiN4YTsgIDwvZz4mI3hhOzwvc3ZnPg==;" vertex="1" parent="copLugqQvAR0kvUUau8e-1">
          <mxGeometry x="247" y="1059" width="188" height="101" as="geometry" />
        </mxCell>
        <mxCell id="copLugqQvAR0kvUUau8e-2" value="Text" parent="0" />
        <mxCell id="copLugqQvAR0kvUUau8e-177" value="Files" style="text;html=1;strokeColor=none;fillColor=none;align=center;verticalAlign=middle;whiteSpace=wrap;rounded=0;fontSize=15;fontFamily=Helvetica;fontColor=default;strokeWidth=6;fontStyle=1" vertex="1" parent="copLugqQvAR0kvUUau8e-2">
          <mxGeometry x="620" y="345" width="60" height="30" as="geometry" />
        </mxCell>
        <mxCell id="copLugqQvAR0kvUUau8e-178" value="Single" style="text;html=1;strokeColor=none;fillColor=none;align=center;verticalAlign=middle;whiteSpace=wrap;rounded=0;fontSize=14;fontFamily=Helvetica;fontColor=default;" vertex="1" parent="copLugqQvAR0kvUUau8e-2">
          <mxGeometry x="495" y="370" width="60" height="30" as="geometry" />
        </mxCell>
        <mxCell id="copLugqQvAR0kvUUau8e-179" value="Double" style="text;html=1;strokeColor=none;fillColor=none;align=center;verticalAlign=middle;whiteSpace=wrap;rounded=0;fontSize=14;fontFamily=Helvetica;fontColor=default;" vertex="1" parent="copLugqQvAR0kvUUau8e-2">
          <mxGeometry x="605" y="370" width="60" height="30" as="geometry" />
        </mxCell>
        <mxCell id="copLugqQvAR0kvUUau8e-180" value="Multiple" style="text;html=1;strokeColor=none;fillColor=none;align=center;verticalAlign=middle;whiteSpace=wrap;rounded=0;fontSize=14;fontFamily=Helvetica;fontColor=default;" vertex="1" parent="copLugqQvAR0kvUUau8e-2">
          <mxGeometry x="720" y="370" width="60" height="30" as="geometry" />
        </mxCell>
        <mxCell id="copLugqQvAR0kvUUau8e-181" value="Metromap style pipeline workflow components" style="text;whiteSpace=wrap;fontSize=30;fontFamily=Helvetica;fontColor=default;" vertex="1" parent="copLugqQvAR0kvUUau8e-2">
          <mxGeometry x="15" y="10" width="805" height="50" as="geometry" />
        </mxCell>
        <mxCell id="copLugqQvAR0kvUUau8e-182" value="&lt;b style=&quot;font-size: 15px;&quot;&gt;&lt;font style=&quot;font-size: 15px;&quot;&gt;Station Icons&lt;/font&gt;&lt;/b&gt;" style="text;html=1;strokeColor=none;fillColor=none;align=center;verticalAlign=middle;whiteSpace=wrap;rounded=0;fontSize=15;fontFamily=Helvetica;fontColor=default;" vertex="1" parent="copLugqQvAR0kvUUau8e-2">
          <mxGeometry x="15" y="75" width="245" height="30" as="geometry" />
        </mxCell>
        <mxCell id="copLugqQvAR0kvUUau8e-183" value="Single" style="text;html=1;strokeColor=none;fillColor=none;align=center;verticalAlign=middle;whiteSpace=wrap;rounded=0;fontSize=14;fontFamily=Helvetica;fontColor=default;" vertex="1" parent="copLugqQvAR0kvUUau8e-2">
          <mxGeometry x="20" y="120" width="60" height="30" as="geometry" />
        </mxCell>
        <mxCell id="copLugqQvAR0kvUUau8e-184" value="Double" style="text;html=1;strokeColor=none;fillColor=none;align=center;verticalAlign=middle;whiteSpace=wrap;rounded=0;fontSize=14;fontFamily=Helvetica;fontColor=default;" vertex="1" parent="copLugqQvAR0kvUUau8e-2">
          <mxGeometry x="100" y="120" width="60" height="30" as="geometry" />
        </mxCell>
        <mxCell id="copLugqQvAR0kvUUau8e-185" value="Triple" style="text;html=1;strokeColor=none;fillColor=none;align=center;verticalAlign=middle;whiteSpace=wrap;rounded=0;fontSize=14;fontFamily=Helvetica;fontColor=default;" vertex="1" parent="copLugqQvAR0kvUUau8e-2">
          <mxGeometry x="180" y="120" width="60" height="30" as="geometry" />
        </mxCell>
        <mxCell id="copLugqQvAR0kvUUau8e-186" value="&lt;font style=&quot;font-size: 15px;&quot;&gt;&lt;b style=&quot;font-size: 15px;&quot;&gt;Lines&lt;/b&gt;&lt;/font&gt;" style="text;html=1;strokeColor=none;fillColor=none;align=center;verticalAlign=middle;whiteSpace=wrap;rounded=0;fontSize=15;fontFamily=Helvetica;fontColor=default;" vertex="1" parent="copLugqQvAR0kvUUau8e-2">
          <mxGeometry x="300" y="70" width="60" height="30" as="geometry" />
        </mxCell>
        <mxCell id="copLugqQvAR0kvUUau8e-187" value="0" style="text;html=1;strokeColor=none;fillColor=none;align=center;verticalAlign=middle;whiteSpace=wrap;rounded=0;fontSize=14;fontFamily=Helvetica;fontColor=default;" vertex="1" parent="copLugqQvAR0kvUUau8e-2">
          <mxGeometry x="300" y="100" width="60" height="30" as="geometry" />
        </mxCell>
        <mxCell id="copLugqQvAR0kvUUau8e-188" value="45" style="text;html=1;strokeColor=none;fillColor=none;align=center;verticalAlign=middle;whiteSpace=wrap;rounded=0;fontSize=14;fontFamily=Helvetica;fontColor=default;" vertex="1" parent="copLugqQvAR0kvUUau8e-2">
          <mxGeometry x="420" y="100" width="60" height="30" as="geometry" />
        </mxCell>
        <mxCell id="copLugqQvAR0kvUUau8e-189" value="90" style="text;html=1;strokeColor=none;fillColor=none;align=center;verticalAlign=middle;whiteSpace=wrap;rounded=0;fontSize=14;fontFamily=Helvetica;fontColor=default;" vertex="1" parent="copLugqQvAR0kvUUau8e-2">
          <mxGeometry x="540" y="100" width="60" height="30" as="geometry" />
        </mxCell>
        <mxCell id="copLugqQvAR0kvUUau8e-190" value="90 short" style="text;html=1;strokeColor=none;fillColor=none;align=center;verticalAlign=middle;whiteSpace=wrap;rounded=0;fontSize=14;fontFamily=Helvetica;fontColor=default;" vertex="1" parent="copLugqQvAR0kvUUau8e-2">
          <mxGeometry x="660" y="100" width="60" height="30" as="geometry" />
        </mxCell>
        <mxCell id="copLugqQvAR0kvUUau8e-191" value="Bridges" style="text;html=1;strokeColor=none;fillColor=none;align=center;verticalAlign=middle;whiteSpace=wrap;rounded=0;fontSize=15;fontFamily=Helvetica;fontColor=default;fontStyle=1" vertex="1" parent="copLugqQvAR0kvUUau8e-2">
          <mxGeometry x="740" y="70" width="60" height="30" as="geometry" />
        </mxCell>
        <mxCell id="copLugqQvAR0kvUUau8e-192" value="Long" style="text;html=1;strokeColor=none;fillColor=none;align=center;verticalAlign=middle;whiteSpace=wrap;rounded=0;fontSize=14;fontFamily=Helvetica;fontColor=default;" vertex="1" parent="copLugqQvAR0kvUUau8e-2">
          <mxGeometry x="740" y="155" width="60" height="30" as="geometry" />
        </mxCell>
        <mxCell id="copLugqQvAR0kvUUau8e-193" value="Short" style="text;html=1;strokeColor=none;fillColor=none;align=center;verticalAlign=middle;whiteSpace=wrap;rounded=0;fontSize=14;fontFamily=Helvetica;fontColor=default;" vertex="1" parent="copLugqQvAR0kvUUau8e-2">
          <mxGeometry x="740" y="105" width="60" height="30" as="geometry" />
        </mxCell>
        <mxCell id="copLugqQvAR0kvUUau8e-194" value="1" style="text;html=1;strokeColor=none;fillColor=none;align=center;verticalAlign=middle;whiteSpace=wrap;rounded=0;fontSize=14;fontFamily=Helvetica;fontColor=default;" vertex="1" parent="copLugqQvAR0kvUUau8e-2">
          <mxGeometry x="480" y="240" width="60" height="30" as="geometry" />
        </mxCell>
        <mxCell id="copLugqQvAR0kvUUau8e-195" value="2" style="text;html=1;strokeColor=none;fillColor=none;align=center;verticalAlign=middle;whiteSpace=wrap;rounded=0;fontSize=14;fontFamily=Helvetica;fontColor=default;" vertex="1" parent="copLugqQvAR0kvUUau8e-2">
          <mxGeometry x="560" y="240" width="60" height="30" as="geometry" />
        </mxCell>
        <mxCell id="copLugqQvAR0kvUUau8e-196" value="3" style="text;html=1;strokeColor=none;fillColor=none;align=center;verticalAlign=middle;whiteSpace=wrap;rounded=0;fontSize=14;fontFamily=Helvetica;fontColor=default;" vertex="1" parent="copLugqQvAR0kvUUau8e-2">
          <mxGeometry x="640" y="240" width="60" height="30" as="geometry" />
        </mxCell>
        <mxCell id="copLugqQvAR0kvUUau8e-197" value="4" style="text;html=1;strokeColor=none;fillColor=none;align=center;verticalAlign=middle;whiteSpace=wrap;rounded=0;fontSize=14;fontFamily=Helvetica;fontColor=default;" vertex="1" parent="copLugqQvAR0kvUUau8e-2">
          <mxGeometry x="720" y="240" width="60" height="30" as="geometry" />
        </mxCell>
        <mxCell id="copLugqQvAR0kvUUau8e-198" value="Steps" style="text;html=1;strokeColor=none;fillColor=none;align=center;verticalAlign=middle;whiteSpace=wrap;rounded=0;fontSize=15;fontFamily=Helvetica;fontColor=default;fontStyle=1" vertex="1" parent="copLugqQvAR0kvUUau8e-2">
          <mxGeometry x="610" y="220" width="60" height="30" as="geometry" />
        </mxCell>
        <mxCell id="copLugqQvAR0kvUUau8e-199" value="Start" style="text;html=1;strokeColor=none;fillColor=none;align=center;verticalAlign=middle;whiteSpace=wrap;rounded=0;fontSize=14;fontFamily=Helvetica;fontColor=default;" vertex="1" parent="copLugqQvAR0kvUUau8e-2">
          <mxGeometry x="280" y="150" width="60" height="30" as="geometry" />
        </mxCell>
        <mxCell id="copLugqQvAR0kvUUau8e-200" value="Stop" style="text;html=1;strokeColor=none;fillColor=none;align=center;verticalAlign=middle;whiteSpace=wrap;rounded=0;fontSize=14;fontFamily=Helvetica;fontColor=default;" vertex="1" parent="copLugqQvAR0kvUUau8e-2">
          <mxGeometry x="375" y="150" width="60" height="30" as="geometry" />
        </mxCell>
        <mxCell id="copLugqQvAR0kvUUau8e-201" value="Angle Reference" style="text;html=1;strokeColor=none;fillColor=none;align=center;verticalAlign=middle;whiteSpace=wrap;rounded=0;fontSize=15;fontFamily=Helvetica;fontColor=default;strokeWidth=6;fontStyle=1" vertex="1" parent="copLugqQvAR0kvUUau8e-2">
          <mxGeometry x="300" y="260" width="160" height="30" as="geometry" />
        </mxCell>
        <mxCell id="copLugqQvAR0kvUUau8e-202" value="&lt;b style=&quot;font-size: 18px;&quot;&gt;&lt;font style=&quot;font-size: 18px;&quot;&gt;Connection Examples&lt;/font&gt;&lt;/b&gt;" style="text;html=1;strokeColor=none;fillColor=none;align=center;verticalAlign=middle;whiteSpace=wrap;rounded=0;fontSize=18;fontFamily=Helvetica;fontColor=default;" vertex="1" parent="copLugqQvAR0kvUUau8e-2">
          <mxGeometry x="20" y="555" width="195" height="30" as="geometry" />
        </mxCell>
        <mxCell id="copLugqQvAR0kvUUau8e-4" value="Example" parent="0" />
        <mxCell id="copLugqQvAR0kvUUau8e-70" value="" style="endArrow=none;html=1;rounded=1;strokeWidth=10;strokeColor=#24b064;entryX=0;entryY=0.5;entryDx=0;entryDy=0;" edge="1" parent="copLugqQvAR0kvUUau8e-4" target="copLugqQvAR0kvUUau8e-75">
          <mxGeometry width="50" height="50" relative="1" as="geometry">
            <mxPoint x="570" y="921.0699999999999" as="sourcePoint" />
            <mxPoint x="663" y="920.8299999999999" as="targetPoint" />
          </mxGeometry>
        </mxCell>
        <mxCell id="copLugqQvAR0kvUUau8e-71" value="" style="endArrow=none;html=1;rounded=1;strokeWidth=10;strokeColor=#24b064;entryX=0.001;entryY=0.899;entryDx=0;entryDy=0;entryPerimeter=0;" edge="1" parent="copLugqQvAR0kvUUau8e-4">
          <mxGeometry width="50" height="50" relative="1" as="geometry">
            <mxPoint x="457" y="891.0699999999999" as="sourcePoint" />
            <mxPoint x="550" y="890.8299999999999" as="targetPoint" />
          </mxGeometry>
        </mxCell>
        <mxCell id="copLugqQvAR0kvUUau8e-72" value="" style="endArrow=none;html=1;rounded=1;strokeWidth=10;strokeColor=#24b064;entryX=0.001;entryY=0.899;entryDx=0;entryDy=0;entryPerimeter=0;" edge="1" parent="copLugqQvAR0kvUUau8e-4">
          <mxGeometry width="50" height="50" relative="1" as="geometry">
            <mxPoint x="457" y="951.12" as="sourcePoint" />
            <mxPoint x="550" y="950.88" as="targetPoint" />
          </mxGeometry>
        </mxCell>
        <mxCell id="copLugqQvAR0kvUUau8e-73" value="" style="shape=image;verticalLabelPosition=bottom;verticalAlign=top;imageAspect=0;aspect=fixed;image=data:image/svg+xml,PHN2ZyB4bWxucz0iaHR0cDovL3d3dy53My5vcmcvMjAwMC9zdmciIGlkPSJzdmc3MzYyIiB2ZXJzaW9uPSIxLjEiIHZpZXdCb3g9IjAgMCA3LjkzNzQ5ODEgMTUuODc1IiBoZWlnaHQ9IjE1Ljg3NW1tIiB3aWR0aD0iNy45Mzc0OTgxbW0iPiYjeGE7ICAmI3hhOyAgICAmI3hhOyAgJiN4YTsgIDxkZWZzIGlkPSJkZWZzNzM1OSIvPiYjeGE7ICA8ZyB0cmFuc2Zvcm09InRyYW5zbGF0ZSgtMjIuNTEwMjYyLC02Mi4xNzcwODQpIiBpZD0ibGF5ZXI1Ij4mI3hhOyAgICA8ZyBpZD0ibGF5ZXI3Ij4mI3hhOyAgICAgIDxyZWN0IHJ5PSIwLjc5Mzc0ODc0IiB5PSI2My41IiB4PSIyMy44MzMxNzgiIGhlaWdodD0iMTMuMjI5MTY2IiB3aWR0aD0iNS4yOTE2Njc5IiBpZD0icmVjdDkxOC05IiBzdHlsZT0iZmlsbDojZmZmZmZmO3N0cm9rZTojMDAwMDAwO3N0cm9rZS13aWR0aDoyLjY0NTgzO3N0cm9rZS1saW5lY2FwOnJvdW5kO3BhaW50LW9yZGVyOnN0cm9rZSBtYXJrZXJzIGZpbGw7c3RvcC1jb2xvcjojMDAwMDAwIi8+JiN4YTsgICAgPC9nPiYjeGE7ICA8L2c+JiN4YTs8L3N2Zz4=" vertex="1" parent="copLugqQvAR0kvUUau8e-4">
          <mxGeometry x="590" y="696" width="30" height="60" as="geometry" />
        </mxCell>
        <mxCell id="copLugqQvAR0kvUUau8e-74" value="" style="shape=image;verticalLabelPosition=bottom;verticalAlign=top;imageAspect=0;aspect=0;image=data:image/svg+xml,PHN2ZyB4bWxucz0iaHR0cDovL3d3dy53My5vcmcvMjAwMC9zdmciIGlkPSJzdmc3MzYyIiB2ZXJzaW9uPSIxLjEiIHZpZXdCb3g9IjAgMCAyLjY0NTgyODIgNy45Mzc1IiBoZWlnaHQ9IjcuOTM3NW1tIiB3aWR0aD0iMi42NDU4MjgybW0iPiYjeGE7ICA8ZGVmcyBpZD0iZGVmczczNTkiLz4mI3hhOyAgPGcgdHJhbnNmb3JtPSJ0cmFuc2xhdGUoLTEwOC40NzkxNiwtNTIuOTE2NjY2KSIgaWQ9ImxheWVyOSI+JiN4YTsgICAgPHBhdGggaWQ9InBhdGgyNTAwLTUtMjItMi03IiBkPSJtIDEwOS44MDIwOCw1Mi45MTY2NjYgdiA3LjkzNzUiIHN0eWxlPSJmaWxsOm5vbmU7c3Ryb2tlOiMwMDAwMDA7c3Ryb2tlLXdpZHRoOjIuNjQ1ODM7c3Ryb2tlLWxpbmVjYXA6YnV0dDtzdHJva2UtbGluZWpvaW46bWl0ZXI7c3Ryb2tlLW1pdGVybGltaXQ6NDtzdHJva2UtZGFzaGFycmF5Om5vbmU7c3Ryb2tlLW9wYWNpdHk6MSIvPiYjeGE7ICA8L2c+JiN4YTs8L3N2Zz4=;points=[[0,0,0,0,0],[0,0.25,0,0,0],[0,0.5,0,0,0],[0,0.75,0,0,0],[0,1,0,0,0],[1,0,0,0,0],[1,0.25,0,0,0],[1,0.5,0,0,0],[1,0.75,0,0,0],[1,1,0,0,0]];" vertex="1" parent="copLugqQvAR0kvUUau8e-4">
          <mxGeometry x="650" y="836" width="10" height="30" as="geometry" />
        </mxCell>
        <mxCell id="copLugqQvAR0kvUUau8e-75" value="" style="shape=image;verticalLabelPosition=bottom;verticalAlign=top;imageAspect=0;aspect=0;image=data:image/svg+xml,PHN2ZyB4bWxucz0iaHR0cDovL3d3dy53My5vcmcvMjAwMC9zdmciIGlkPSJzdmc3MzYyIiB2ZXJzaW9uPSIxLjEiIHZpZXdCb3g9IjAgMCAyLjY0NTgyODIgNy45Mzc1IiBoZWlnaHQ9IjcuOTM3NW1tIiB3aWR0aD0iMi42NDU4MjgybW0iPiYjeGE7ICA8ZGVmcyBpZD0iZGVmczczNTkiLz4mI3hhOyAgPGcgdHJhbnNmb3JtPSJ0cmFuc2xhdGUoLTEwOC40NzkxNiwtNTIuOTE2NjY2KSIgaWQ9ImxheWVyOSI+JiN4YTsgICAgPHBhdGggaWQ9InBhdGgyNTAwLTUtMjItMi03IiBkPSJtIDEwOS44MDIwOCw1Mi45MTY2NjYgdiA3LjkzNzUiIHN0eWxlPSJmaWxsOm5vbmU7c3Ryb2tlOiMwMDAwMDA7c3Ryb2tlLXdpZHRoOjIuNjQ1ODM7c3Ryb2tlLWxpbmVjYXA6YnV0dDtzdHJva2UtbGluZWpvaW46bWl0ZXI7c3Ryb2tlLW1pdGVybGltaXQ6NDtzdHJva2UtZGFzaGFycmF5Om5vbmU7c3Ryb2tlLW9wYWNpdHk6MSIvPiYjeGE7ICA8L2c+JiN4YTs8L3N2Zz4=" vertex="1" parent="copLugqQvAR0kvUUau8e-4">
          <mxGeometry x="740" y="906" width="10" height="30" as="geometry" />
        </mxCell>
        <mxCell id="copLugqQvAR0kvUUau8e-76" value="" style="endArrow=none;html=1;rounded=1;strokeWidth=10;exitX=0;exitY=0.75;exitDx=0;exitDy=0;strokeColor=#24b064;entryX=1;entryY=0.75;entryDx=0;entryDy=0;" edge="1" parent="copLugqQvAR0kvUUau8e-4">
          <mxGeometry width="50" height="50" relative="1" as="geometry">
            <mxPoint x="485.0000000000002" y="861.0000000000001" as="sourcePoint" />
            <mxPoint x="485.0000000000002" y="841.0000000000001" as="targetPoint" />
          </mxGeometry>
        </mxCell>
        <mxCell id="copLugqQvAR0kvUUau8e-77" value="" style="endArrow=none;html=1;rounded=1;strokeWidth=10;strokeColor=#24b064;" edge="1" parent="copLugqQvAR0kvUUau8e-4">
          <mxGeometry width="50" height="50" relative="1" as="geometry">
            <mxPoint x="410" y="821" as="sourcePoint" />
            <mxPoint x="500" y="821" as="targetPoint" />
          </mxGeometry>
        </mxCell>
        <mxCell id="copLugqQvAR0kvUUau8e-78" value="" style="endArrow=none;html=1;rounded=1;strokeWidth=10;strokeColor=#24b064;" edge="1" parent="copLugqQvAR0kvUUau8e-4">
          <mxGeometry width="50" height="50" relative="1" as="geometry">
            <mxPoint x="220" y="831" as="sourcePoint" />
            <mxPoint x="300" y="831" as="targetPoint" />
          </mxGeometry>
        </mxCell>
        <mxCell id="copLugqQvAR0kvUUau8e-79" value="" style="endArrow=none;html=1;rounded=1;strokeWidth=10;strokeColor=#24b064;" edge="1" parent="copLugqQvAR0kvUUau8e-4">
          <mxGeometry width="50" height="50" relative="1" as="geometry">
            <mxPoint x="110" y="691" as="sourcePoint" />
            <mxPoint x="190" y="691" as="targetPoint" />
          </mxGeometry>
        </mxCell>
        <mxCell id="copLugqQvAR0kvUUau8e-80" value="" style="endArrow=none;html=1;rounded=1;strokeWidth=10;strokeColor=#24b064;" edge="1" parent="copLugqQvAR0kvUUau8e-4">
          <mxGeometry width="50" height="50" relative="1" as="geometry">
            <mxPoint x="270" y="726" as="sourcePoint" />
            <mxPoint x="330" y="786" as="targetPoint" />
          </mxGeometry>
        </mxCell>
        <mxCell id="copLugqQvAR0kvUUau8e-81" value="" style="endArrow=none;html=1;rounded=1;strokeWidth=10;strokeColor=#24b064;" edge="1" parent="copLugqQvAR0kvUUau8e-4">
          <mxGeometry width="50" height="50" relative="1" as="geometry">
            <mxPoint x="350" y="575" as="sourcePoint" />
            <mxPoint x="430" y="575" as="targetPoint" />
          </mxGeometry>
        </mxCell>
        <mxCell id="copLugqQvAR0kvUUau8e-82" value="" style="endArrow=none;html=1;rounded=1;strokeWidth=10;strokeColor=#24b064;" edge="1" parent="copLugqQvAR0kvUUau8e-4">
          <mxGeometry width="50" height="50" relative="1" as="geometry">
            <mxPoint x="190" y="645" as="sourcePoint" />
            <mxPoint x="430" y="645" as="targetPoint" />
          </mxGeometry>
        </mxCell>
        <mxCell id="copLugqQvAR0kvUUau8e-83" value="" style="endArrow=none;html=1;rounded=1;strokeWidth=10;strokeColor=#24b064;entryX=0.001;entryY=0.899;entryDx=0;entryDy=0;entryPerimeter=0;" edge="1" parent="copLugqQvAR0kvUUau8e-4">
          <mxGeometry width="50" height="50" relative="1" as="geometry">
            <mxPoint x="570" y="851" as="sourcePoint" />
            <mxPoint x="650" y="850.8299999999999" as="targetPoint" />
          </mxGeometry>
        </mxCell>
        <mxCell id="copLugqQvAR0kvUUau8e-84" value="" style="group" vertex="1" connectable="0" parent="copLugqQvAR0kvUUau8e-4">
          <mxGeometry x="20" y="640" width="80" height="90" as="geometry" />
        </mxCell>
        <mxCell id="copLugqQvAR0kvUUau8e-85" value="" style="shape=image;aspect=fixed;image=data:image/svg+xml,PD94bWwgdmVyc2lvbj0iMS4wIiBlbmNvZGluZz0iVVRGLTgiIHN0YW5kYWxvbmU9Im5vIj8+CjwhLS0gQ3JlYXRlZCB3aXRoIElua3NjYXBlIChodHRwOi8vd3d3Lmlua3NjYXBlLm9yZy8pIC0tPgoKPHN2ZwogICB3aWR0aD0iMjEuMTY2NjdtbSIKICAgaGVpZ2h0PSIyMy44MTI1MDJtbSIKICAgdmlld0JveD0iMCAwIDIxLjE2NjY3IDIzLjgxMjUwMiIKICAgdmVyc2lvbj0iMS4xIgogICBpZD0ic3ZnNzM2MiIKICAgeG1sbnM9Imh0dHA6Ly93d3cudzMub3JnLzIwMDAvc3ZnIgogICB4bWxuczpzdmc9Imh0dHA6Ly93d3cudzMub3JnLzIwMDAvc3ZnIj4KICA8ZGVmcwogICAgIGlkPSJkZWZzNzM1OSIgLz4KICA8ZwogICAgIGlkPSJsYXllcjEiCiAgICAgc3R5bGU9ImRpc3BsYXk6aW5saW5lIgogICAgIHRyYW5zZm9ybT0idHJhbnNsYXRlKDM3LjA0MTY3MywtMTQwLjIyOTE3KSI+CiAgICA8ZwogICAgICAgaWQ9ImcxODQ4OC0zLTIiCiAgICAgICB0cmFuc2Zvcm09InRyYW5zbGF0ZSgtMTY2LjY4NzQ5LDQ3LjYyNDk5NykiCiAgICAgICBzdHlsZT0iZGlzcGxheTppbmxpbmUiPgogICAgICA8cGF0aAogICAgICAgICBpZD0icGF0aDYyNzYtNC0wLTYiCiAgICAgICAgIHN0eWxlPSJmaWxsOiNmZmZmZmY7c3Ryb2tlLXdpZHRoOjAuMjMwNzAyIgogICAgICAgICBkPSJtIDEzMi4yOTE2Niw5My45MjcwNzIgdiAyMS4xNjY2NjggaCAxNS44NzUwMSBWIDk5LjIxODc0OCBsIC01LjI5MTY4LC01LjI5MTY3NiB6IiAvPgogICAgICA8cGF0aAogICAgICAgICBpZD0icGF0aDU4NjItMy03IgogICAgICAgICBkPSJtIDE0OS40ODk1OCw5Ny44OTU4MzIgYyAwLC0wLjI2NDU3NiAtMC4yNjQ1OCwtMC41MjkxNjQgLTAuNTI5MTcsLTAuNzkzNzUyIGwgLTQuNDk3OTEsLTMuOTY4NzQ4IGMgLTAuMjY0NTgsLTAuMjY0NTg4IC0wLjUyOTE3LC0wLjUyOTE2NCAtMC44Mjc4OCwtMC41MjkxNjQgaCAtMy40MDU0NSAtNy45Mzc1MSBjIC0wLjc5Mzc1LDAgLTEuMzIyOTIsMC41MjkxNjQgLTEuMzIyOTIsMS4zMjI5MTYgMCw3LjA1NTU1NiAwLDE0LjExMTEwNiAwLDIxLjE2NjY2NiAwLDAuNzkzNzUgMC41MjkxNywxLjMyMjkyIDEuMzIyOTIsMS4zMjI5MiBoIDcuOTM3NTEgNy45Mzc1IGMgMC43OTM3NCwwIDEuMzIyOTEsLTAuNTI5MTcgMS4zMjI5MSwtMS4zMjI5MiB6IG0gLTEuMzIyOTEsMTcuMTk3OTE4IEggMTMyLjI5MTY2IFYgOTMuOTI3MDg0IGggMTAuNTgzMzMgdiA0Ljc2MjUgYyAwLDAuMzE3NTA4IDAuMjAzNTMsMC41MjkxNjQgMC41MjkxNywwLjUyOTE2NCBoIDQuNzYyNTEgeiIKICAgICAgICAgc3R5bGU9InN0cm9rZS13aWR0aDowLjIzMTY3IiAvPgogICAgICA8cGF0aAogICAgICAgICBpZD0icmVjdDE4MzQ3LTYtMSIKICAgICAgICAgc3R5bGU9ImZpbGwtcnVsZTpldmVub2RkO3N0cm9rZS13aWR0aDowLjEyMjAyNztwYWludC1vcmRlcjpmaWxsIG1hcmtlcnMgc3Ryb2tlIgogICAgICAgICBkPSJtIDEzMS4wMTc1MiwxMDEuODY0NiBjIDYuMTQxMDksMCAxMi4yODIxNywwIDE4LjQyMzI2LDAgMC43NTk5MywwIDEuMzcxNzEsMC40OTcwNiAxLjM3MTcxLDEuMTE0NSB2IDIuODU0MjIgMi44NTQyNSBjIDAsMC42MTc0NCAtMC42MTE3OCwxLjExNDUgLTEuMzcxNzEsMS4xMTQ1IC02LjE0MTA5LDAgLTEyLjI4MjE3LDAgLTE4LjQyMzI2LDAgLTAuNzU5OTIsMCAtMS4zNzE3LC0wLjQ5NzA2IC0xLjM3MTcsLTEuMTE0NSB2IC0yLjg1NDI1IC0yLjg1NDIyIGMgMCwtMC42MTc0NCAwLjYxMTc4LC0xLjExNDUgMS4zNzE3LC0xLjExNDUgeiIgLz4KICAgIDwvZz4KICA8L2c+Cjwvc3ZnPgo=;points=[[0,0,0,0,0],[0,0.25,0,0,0],[0,0.5,0,0,0],[0,0.75,0,0,0],[0,1,0,0,0],[0.25,0,0,0,0],[0.25,1,0,0,0],[0.5,0,0,0,0],[0.5,1,0,0,0],[0.75,0,0,0,0],[0.75,1,0,0,0],[1,0,0,0,0],[1,0.25,0,0,0],[1,0.5,0,0,0],[1,0.75,0,0,0],[1,1,0,0,0]];" vertex="1" parent="copLugqQvAR0kvUUau8e-84">
          <mxGeometry width="80" height="90" as="geometry" />
        </mxCell>
        <mxCell id="copLugqQvAR0kvUUau8e-86" value="&lt;font style=&quot;font-size: 20px;&quot; color=&quot;#ffffff&quot; data-font-src=&quot;https://fonts.googleapis.com/css?family=Maven+Pro&quot; face=&quot;Maven Pro&quot;&gt;&lt;b&gt;fastq&lt;/b&gt;&lt;/font&gt;" style="text;html=1;strokeColor=none;fillColor=none;align=center;verticalAlign=middle;whiteSpace=wrap;rounded=0;" vertex="1" parent="copLugqQvAR0kvUUau8e-84">
          <mxGeometry x="10" y="35" width="60" height="30" as="geometry" />
        </mxCell>
        <mxCell id="copLugqQvAR0kvUUau8e-87" value="" style="group" vertex="1" connectable="0" parent="copLugqQvAR0kvUUau8e-4">
          <mxGeometry x="20" y="851" width="100" height="110" as="geometry" />
        </mxCell>
        <mxCell id="copLugqQvAR0kvUUau8e-88" value="" style="shape=image;aspect=fixed;image=data:image/svg+xml,PD94bWwgdmVyc2lvbj0iMS4wIiBlbmNvZGluZz0iVVRGLTgiIHN0YW5kYWxvbmU9Im5vIj8+CjwhLS0gQ3JlYXRlZCB3aXRoIElua3NjYXBlIChodHRwOi8vd3d3Lmlua3NjYXBlLm9yZy8pIC0tPgoKPHN2ZwogICB3aWR0aD0iMjYuNDU4MzI2bW0iCiAgIGhlaWdodD0iMjkuMTA0Mm1tIgogICB2aWV3Qm94PSIwIDAgMjYuNDU4MzI2IDI5LjEwNDIiCiAgIHZlcnNpb249IjEuMSIKICAgaWQ9InN2ZzczNjIiCiAgIHhtbG5zPSJodHRwOi8vd3d3LnczLm9yZy8yMDAwL3N2ZyIKICAgeG1sbnM6c3ZnPSJodHRwOi8vd3d3LnczLm9yZy8yMDAwL3N2ZyI+CiAgPGRlZnMKICAgICBpZD0iZGVmczczNTkiIC8+CiAgPGcKICAgICBpZD0ibGF5ZXIxIgogICAgIHN0eWxlPSJkaXNwbGF5OmlubGluZSIKICAgICB0cmFuc2Zvcm09InRyYW5zbGF0ZSgzNC4zOTU4MzMsLTE5My4xNDU4NCkiPgogICAgPGcKICAgICAgIGlkPSJnMi0wLTQiCiAgICAgICB0cmFuc2Zvcm09InRyYW5zbGF0ZSgtMjE2Ljk1ODMzLDk3Ljg5NTg0MykiCiAgICAgICBzdHlsZT0iZGlzcGxheTppbmxpbmUiPgogICAgICA8ZwogICAgICAgICBpZD0iZzE4NDg4LTU0LTQtMS01IgogICAgICAgICB0cmFuc2Zvcm09InRyYW5zbGF0ZSg1OC4yMDgzMzQsMi42NDU4MzY5KSI+CiAgICAgICAgPHBhdGgKICAgICAgICAgICBpZD0icGF0aDYyNzYtNC00LTY1LTUtOSIKICAgICAgICAgICBzdHlsZT0iZmlsbDojZmZmZmZmO3N0cm9rZS13aWR0aDowLjIzMDcwMiIKICAgICAgICAgICBkPSJtIDEzMi4yOTE2Niw5My45MjcwNzIgdiAyMS4xNjY2NjggaCAxNS44NzUwMSBWIDk5LjIxODc0OCBsIC01LjI5MTY4LC01LjI5MTY3NiB6IiAvPgogICAgICAgIDxwYXRoCiAgICAgICAgICAgaWQ9InBhdGg1ODYyLTEtMy00LTYiCiAgICAgICAgICAgZD0ibSAxNDkuNDg5NTgsOTcuODk1ODMyIGMgMCwtMC4yNjQ1NzYgLTAuMjY0NTgsLTAuNTI5MTY0IC0wLjUyOTE3LC0wLjc5Mzc1MiBsIC00LjQ5NzkxLC0zLjk2ODc0OCBjIC0wLjI2NDU4LC0wLjI2NDU4OCAtMC41MjkxNywtMC41MjkxNjQgLTAuODI3ODgsLTAuNTI5MTY0IGwgLTYuMDUxMjksLTEuM2UtNSAtNS4yOTE2NywxLjNlLTUgYyAtMC43OTM3NSwyZS02IC0xLjMyMjkyLDAuNTI5MTY0IC0xLjMyMjkyLDEuMzIyOTE2IHYgMjEuMTY2NjY2IGMgMCwwLjc5Mzc1IDAuNTI5MTcsMS4zMjI5MiAxLjMyMjkyLDEuMzIyOTIgaCA3LjkzNzUxIDcuOTM3NSBjIDAuNzkzNzQsMCAxLjMyMjkxLC0wLjUyOTE3IDEuMzIyOTEsLTEuMzIyOTIgeiBtIC0xLjMyMjkxLDE3LjE5NzkxOCBIIDEzMi4yOTE2NiBWIDkzLjkyNzA4NCBoIDEwLjU4MzMzIHYgNC43NjI1IGMgMCwwLjMxNzUwOCAwLjIwMzUzLDAuNTI5MTY0IDAuNTI5MTcsMC41MjkxNjQgaCA0Ljc2MjUxIHoiCiAgICAgICAgICAgc3R5bGU9InN0cm9rZS13aWR0aDowLjIzMTY3IiAvPgogICAgICAgIDxwYXRoCiAgICAgICAgICAgaWQ9InJlY3QxODM0Ny0yLTYtNi0wIgogICAgICAgICAgIHN0eWxlPSJmaWxsLXJ1bGU6ZXZlbm9kZDtzdHJva2Utd2lkdGg6MC4xMjIwMjc7cGFpbnQtb3JkZXI6ZmlsbCBtYXJrZXJzIHN0cm9rZSIKICAgICAgICAgICBkPSJtIDEzMS4wMTc1MiwxMDEuODY0NiBoIDE4LjQyMzI2IGMgMC43NTk5MywwIDEuMzcxNzEsMC40OTcwNiAxLjM3MTcxLDEuMTE0NSB2IDQuMTc3MTQgMS41MzEzMyBjIDAsMC42MTc0NCAtMC42MTE3OCwxLjExNDUgLTEuMzcxNzEsMS4xMTQ1IGggLTE4LjQyMzI2IGMgLTAuNzU5OTIsMCAtMS4zNzE3LC0wLjQ5NzA2IC0xLjM3MTcsLTEuMTE0NSB2IC0yLjg1NDI1IC0yLjg1NDIyIGMgMCwtMC42MTc0NCAwLjYxMTc4LC0xLjExNDUgMS4zNzE3LC0xLjExNDUgeiIgLz4KICAgICAgICA8dGV4dAogICAgICAgICAgIHhtbDpzcGFjZT0icHJlc2VydmUiCiAgICAgICAgICAgc3R5bGU9ImZvbnQtd2VpZ2h0OmJvbGQ7Zm9udC1zaXplOjUuMjkxNjdweDtmb250LWZhbWlseTonTWF2ZW4gUHJvJzstaW5rc2NhcGUtZm9udC1zcGVjaWZpY2F0aW9uOidNYXZlbiBQcm8sIEJvbGQnO3RleHQtYWxpZ246Y2VudGVyO3RleHQtb3JpZW50YXRpb246dXByaWdodDt0ZXh0LWFuY2hvcjptaWRkbGU7ZmlsbDojZmZmZmZmO2ZpbGwtb3BhY2l0eToxO3N0cm9rZTpub25lO3N0cm9rZS13aWR0aDowLjIyNzk1MTtzdHJva2UtbGluZWNhcDpyb3VuZDtzdHJva2UtbGluZWpvaW46bWl0ZXI7c3Ryb2tlLW1pdGVybGltaXQ6MC42O3N0cm9rZS1kYXNoYXJyYXk6bm9uZTtzdHJva2UtZGFzaG9mZnNldDoyLjAwMDAxO3N0cm9rZS1vcGFjaXR5OjE7cGFpbnQtb3JkZXI6ZmlsbCBtYXJrZXJzIHN0cm9rZTtzdG9wLWNvbG9yOiMwMDAwMDAiCiAgICAgICAgICAgeD0iMTQwLjMzODk2IgogICAgICAgICAgIHk9IjEwNy4yMTE4IgogICAgICAgICAgIGlkPSJ0ZXh0MTg1NjktNi00MS0zLTIiPjx0c3BhbgogICAgICAgICAgICAgaWQ9InRzcGFuMTg1NjctNDItNS0xLTYiCiAgICAgICAgICAgICBzdHlsZT0iZmlsbDojZmZmZmZmO2ZpbGwtb3BhY2l0eToxO3N0cm9rZTpub25lO3N0cm9rZS13aWR0aDowLjIyNzk1MSIKICAgICAgICAgICAgIHg9IjE0MC4zMzg5NiIKICAgICAgICAgICAgIHk9IjEwNy4yMTE4Ij5mYXN0cTwvdHNwYW4+PC90ZXh0PgogICAgICA8L2c+CiAgICAgIDxnCiAgICAgICAgIGlkPSJnMTg0ODgtNTQtOC0wLTMtNiIKICAgICAgICAgdHJhbnNmb3JtPSJ0cmFuc2xhdGUoNTUuNTYyNTA0LDUuMjkxNjYyNCkiPgogICAgICAgIDxwYXRoCiAgICAgICAgICAgaWQ9InBhdGg2Mjc2LTQtNC02LTktMDYtMSIKICAgICAgICAgICBzdHlsZT0iZmlsbDojZmZmZmZmO3N0cm9rZS13aWR0aDowLjIzMDcwMiIKICAgICAgICAgICBkPSJtIDEzMi4yOTE2Niw5My45MjcwNzIgdiAyMS4xNjY2NjggaCAxNS44NzUwMSBWIDk5LjIxODc0OCBsIC01LjI5MTY4LC01LjI5MTY3NiB6IiAvPgogICAgICAgIDxwYXRoCiAgICAgICAgICAgaWQ9InBhdGg1ODYyLTEtMS0zLTgtMCIKICAgICAgICAgICBkPSJtIDE0OS40ODk1OCw5Ny44OTU4MzIgYyAwLC0wLjI2NDU3NiAtMC4yNjQ1OCwtMC41MjkxNjQgLTAuNTI5MTcsLTAuNzkzNzUyIGwgLTQuNDk3OTEsLTMuOTY4NzQ4IGMgLTAuMjY0NTgsLTAuMjY0NTg4IC0wLjUyOTE3LC0wLjUyOTE2NCAtMC44Mjc4OCwtMC41MjkxNjQgaCAtMy40MDU0NSAtNy45Mzc1MSBjIC0wLjc5Mzc1LDAgLTEuMzIyOTIsMC41MjkxNjQgLTEuMzIyOTIsMS4zMjI5MTYgMCw3LjA1NTU1NiAwLDE0LjExMTEwNiAwLDIxLjE2NjY2NiAwLDAuNzkzNzUgMC41MjkxNywxLjMyMjkyIDEuMzIyOTIsMS4zMjI5MiBoIDcuOTM3NTEgNy45Mzc1IGMgMC43OTM3NCwwIDEuMzIyOTEsLTAuNTI5MTcgMS4zMjI5MSwtMS4zMjI5MiB6IG0gLTEuMzIyOTEsMTcuMTk3OTE4IEggMTMyLjI5MTY2IFYgOTMuOTI3MDg0IGggMTAuNTgzMzMgdiA0Ljc2MjUgYyAwLDAuMzE3NTA4IDAuMjAzNTMsMC41MjkxNjQgMC41MjkxNywwLjUyOTE2NCBoIDQuNzYyNTEgeiIKICAgICAgICAgICBzdHlsZT0ic3Ryb2tlLXdpZHRoOjAuMjMxNjciIC8+CiAgICAgICAgPHBhdGgKICAgICAgICAgICBpZD0icmVjdDE4MzQ3LTItNS0xLTAtNiIKICAgICAgICAgICBzdHlsZT0iZmlsbC1ydWxlOmV2ZW5vZGQ7c3Ryb2tlLXdpZHRoOjAuMTIyMDI3O3BhaW50LW9yZGVyOmZpbGwgbWFya2VycyBzdHJva2UiCiAgICAgICAgICAgZD0ibSAxMzEuMDE3NTIsMTAxLjg2NDYgYyA2LjE0MTA5LDAgMTIuMjgyMTcsMCAxOC40MjMyNiwwIDAuNzU5OTMsMCAxLjM3MTcxLDAuNDk3MDYgMS4zNzE3MSwxLjExNDUgdiAyLjg1NDIyIDIuODU0MjUgYyAwLDAuNjE3NDQgLTAuNjExNzgsMS4xMTQ1IC0xLjM3MTcxLDEuMTE0NSAtNi4xNDEwOSwwIC0xMi4yODIxNywwIC0xOC40MjMyNiwwIC0wLjc1OTkyLDAgLTEuMzcxNywtMC40OTcwNiAtMS4zNzE3LC0xLjExNDUgdiAtMi44NTQyNSAtMi44NTQyMiBjIDAsLTAuNjE3NDQgMC42MTE3OCwtMS4xMTQ1IDEuMzcxNywtMS4xMTQ1IHoiIC8+CiAgICAgICAgPHRleHQKICAgICAgICAgICB4bWw6c3BhY2U9InByZXNlcnZlIgogICAgICAgICAgIHN0eWxlPSJmb250LXdlaWdodDpib2xkO2ZvbnQtc2l6ZTo1LjI5MTY3cHg7Zm9udC1mYW1pbHk6J01hdmVuIFBybyc7LWlua3NjYXBlLWZvbnQtc3BlY2lmaWNhdGlvbjonTWF2ZW4gUHJvLCBCb2xkJzt0ZXh0LWFsaWduOmNlbnRlcjt0ZXh0LW9yaWVudGF0aW9uOnVwcmlnaHQ7dGV4dC1hbmNob3I6bWlkZGxlO2ZpbGw6I2ZmZmZmZjtmaWxsLW9wYWNpdHk6MTtzdHJva2U6bm9uZTtzdHJva2Utd2lkdGg6MC4yMjc5NTE7c3Ryb2tlLWxpbmVjYXA6cm91bmQ7c3Ryb2tlLWxpbmVqb2luOm1pdGVyO3N0cm9rZS1taXRlcmxpbWl0OjAuNjtzdHJva2UtZGFzaGFycmF5Om5vbmU7c3Ryb2tlLWRhc2hvZmZzZXQ6Mi4wMDAwMTtzdHJva2Utb3BhY2l0eToxO3BhaW50LW9yZGVyOmZpbGwgbWFya2VycyBzdHJva2U7c3RvcC1jb2xvcjojMDAwMDAwIgogICAgICAgICAgIHg9IjE0MC4zMzg5NiIKICAgICAgICAgICB5PSIxMDcuMjExOCIKICAgICAgICAgICBpZD0idGV4dDE4NTY5LTYtNC03LTItNyI+PHRzcGFuCiAgICAgICAgICAgICBpZD0idHNwYW4xODU2Ny00Mi0xLTUtNzEtMCIKICAgICAgICAgICAgIHN0eWxlPSJmaWxsOiNmZmZmZmY7ZmlsbC1vcGFjaXR5OjE7c3Ryb2tlOm5vbmU7c3Ryb2tlLXdpZHRoOjAuMjI3OTUxIgogICAgICAgICAgICAgeD0iMTQwLjMzODk2IgogICAgICAgICAgICAgeT0iMTA3LjIxMTgiPmZhc3RxPC90c3Bhbj48L3RleHQ+CiAgICAgIDwvZz4KICAgICAgPGcKICAgICAgICAgaWQ9ImcxODQ4OC01NC04LTAtOC02LTQiCiAgICAgICAgIHRyYW5zZm9ybT0idHJhbnNsYXRlKDUyLjkxNjY3NSw3LjkzNzUxNjIpIj4KICAgICAgICA8cGF0aAogICAgICAgICAgIGlkPSJwYXRoNjI3Ni00LTQtNi05LTAtMi0zIgogICAgICAgICAgIHN0eWxlPSJmaWxsOiNmZmZmZmY7c3Ryb2tlLXdpZHRoOjAuMjMwNzAyIgogICAgICAgICAgIGQ9Im0gMTMyLjI5MTY2LDkzLjkyNzA3MiB2IDIxLjE2NjY2OCBoIDE1Ljg3NTAxIFYgOTkuMjE4NzQ4IGwgLTUuMjkxNjgsLTUuMjkxNjc2IHoiIC8+CiAgICAgICAgPHBhdGgKICAgICAgICAgICBpZD0icGF0aDU4NjItMS0xLTMtOS04LTAiCiAgICAgICAgICAgZD0ibSAxNDkuNDg5NTgsOTcuODk1ODMyIGMgMCwtMC4yNjQ1NzYgLTAuMjY0NTgsLTAuNTI5MTY0IC0wLjUyOTE3LC0wLjc5Mzc1MiBsIC00LjQ5NzkxLC0zLjk2ODc0OCBjIC0wLjI2NDU4LC0wLjI2NDU4OCAtMC41MjkxNywtMC41MjkxNjQgLTAuODI3ODgsLTAuNTI5MTY0IGggLTMuNDA1NDUgLTcuOTM3NTEgYyAtMC43OTM3NSwwIC0xLjMyMjkyLDAuNTI5MTY0IC0xLjMyMjkyLDEuMzIyOTE2IHYgNy45Mzc0NzYgMTMuMjI5MTkgYyAwLDAuNzkzNzUgMC41MjkxNywxLjMyMjkyIDEuMzIyOTIsMS4zMjI5MiBsIDEwLjU4MzMzLC0zZS01IDUuMjkxNjgsM2UtNSBjIDAuNzkzNzQsMCAxLjMyMjkxLC0wLjUyOTE3IDEuMzIyOTEsLTEuMzIyOTIgeiBtIC0xLjMyMjkxLDE3LjE5NzkxOCBIIDEzMi4yOTE2NiBWIDkzLjkyNzA4NCBoIDEwLjU4MzMzIHYgNC43NjI1IGMgMCwwLjMxNzUwOCAwLjIwMzUzLDAuNTI5MTY0IDAuNTI5MTcsMC41MjkxNjQgaCA0Ljc2MjUxIHoiCiAgICAgICAgICAgc3R5bGU9InN0cm9rZS13aWR0aDowLjIzMTY3IiAvPgogICAgICAgIDxwYXRoCiAgICAgICAgICAgaWQ9InJlY3QxODM0Ny0yLTUtMS02LTItMCIKICAgICAgICAgICBzdHlsZT0iZmlsbC1ydWxlOmV2ZW5vZGQ7c3Ryb2tlLXdpZHRoOjAuMTIyMDI3O3BhaW50LW9yZGVyOmZpbGwgbWFya2VycyBzdHJva2UiCiAgICAgICAgICAgZD0ibSAxMzEuMDE3NTIsMTAxLjg2NDYgYyA2LjE0MTA5LDAgMTIuMjgyMTcsMCAxOC40MjMyNiwwIDAuNzU5OTMsMCAxLjM3MTcxLDAuNDk3MDYgMS4zNzE3MSwxLjExNDUgdiAyLjg1NDIyIDIuODU0MjUgYyAwLDAuNjE3NDQgLTAuNjExNzgsMS4xMTQ1IC0xLjM3MTcxLDEuMTE0NSAtNi4xNDEwOSwwIC0xMi4yODIxNywwIC0xOC40MjMyNiwwIC0wLjc1OTkyLDAgLTEuMzcxNywtMC40OTcwNiAtMS4zNzE3LC0xLjExNDUgdiAtMi44NTQyNSAtMi44NTQyMiBjIDAsLTAuNjE3NDQgMC42MTE3OCwtMS4xMTQ1IDEuMzcxNywtMS4xMTQ1IHoiIC8+CiAgICAgIDwvZz4KICAgIDwvZz4KICA8L2c+Cjwvc3ZnPgo=;" vertex="1" parent="copLugqQvAR0kvUUau8e-87">
          <mxGeometry width="100" height="110" as="geometry" />
        </mxCell>
        <mxCell id="copLugqQvAR0kvUUau8e-89" value="&lt;font style=&quot;font-size: 20px;&quot; color=&quot;#ffffff&quot; data-font-src=&quot;https://fonts.googleapis.com/css?family=Maven+Pro&quot; face=&quot;Maven Pro&quot;&gt;&lt;b&gt;vcf&lt;/b&gt;&lt;/font&gt;" style="text;html=1;strokeColor=none;fillColor=none;align=center;verticalAlign=middle;whiteSpace=wrap;rounded=0;" vertex="1" parent="copLugqQvAR0kvUUau8e-87">
          <mxGeometry x="10" y="55" width="60" height="30" as="geometry" />
        </mxCell>
        <mxCell id="copLugqQvAR0kvUUau8e-90" value="" style="group" vertex="1" connectable="0" parent="copLugqQvAR0kvUUau8e-4">
          <mxGeometry x="20" y="741" width="130" height="100" as="geometry" />
        </mxCell>
        <mxCell id="copLugqQvAR0kvUUau8e-91" value="" style="shape=image;aspect=fixed;image=data:image/svg+xml,PD94bWwgdmVyc2lvbj0iMS4wIiBlbmNvZGluZz0iVVRGLTgiIHN0YW5kYWxvbmU9Im5vIj8+CjwhLS0gQ3JlYXRlZCB3aXRoIElua3NjYXBlIChodHRwOi8vd3d3Lmlua3NjYXBlLm9yZy8pIC0tPgoKPHN2ZwogICB3aWR0aD0iMjMuODEyNTFtbSIKICAgaGVpZ2h0PSIyNi40NTgzNDltbSIKICAgdmlld0JveD0iMCAwIDIzLjgxMjUxIDI2LjQ1ODM0OSIKICAgdmVyc2lvbj0iMS4xIgogICBpZD0ic3ZnNzM2MiIKICAgeG1sbnM9Imh0dHA6Ly93d3cudzMub3JnLzIwMDAvc3ZnIgogICB4bWxuczpzdmc9Imh0dHA6Ly93d3cudzMub3JnLzIwMDAvc3ZnIj4KICA8ZGVmcwogICAgIGlkPSJkZWZzNzM1OSIgLz4KICA8ZwogICAgIGlkPSJsYXllcjEiCiAgICAgc3R5bGU9ImRpc3BsYXk6aW5saW5lIgogICAgIHRyYW5zZm9ybT0idHJhbnNsYXRlKDM3LjA0MTY2NSwtMTY2LjY4NzUpIj4KICAgIDxnCiAgICAgICBpZD0iZzMtNC05IgogICAgICAgdHJhbnNmb3JtPSJ0cmFuc2xhdGUoLTE5MC40OTk5OSw3MS40Mzc1MDUpIgogICAgICAgc3R5bGU9ImRpc3BsYXk6aW5saW5lIj4KICAgICAgPGcKICAgICAgICAgaWQ9ImcxODQ4OC01NC00MS05IgogICAgICAgICB0cmFuc2Zvcm09InRyYW5zbGF0ZSgyNi40NTgzMzIsMi42NDU4NDQpIj4KICAgICAgICA8cGF0aAogICAgICAgICAgIGlkPSJwYXRoNjI3Ni00LTQtNS0yIgogICAgICAgICAgIHN0eWxlPSJmaWxsOiNmZmZmZmY7c3Ryb2tlLXdpZHRoOjAuMjMwNzAyIgogICAgICAgICAgIGQ9Im0gMTMyLjI5MTY2LDkzLjkyNzA3MiB2IDIxLjE2NjY2OCBoIDE1Ljg3NTAxIFYgOTkuMjE4NzQ4IGwgLTUuMjkxNjgsLTUuMjkxNjc2IHoiIC8+CiAgICAgICAgPHBhdGgKICAgICAgICAgICBpZD0icGF0aDU4NjItMS00LTEiCiAgICAgICAgICAgZD0ibSAxNDkuNDg5NTgsOTcuODk1ODMyIGMgMCwtMC4yNjQ1NzYgLTAuMjY0NTgsLTAuNTI5MTY0IC0wLjUyOTE3LC0wLjc5Mzc1MiBsIC00LjQ5NzkxLC0zLjk2ODc0OCBjIC0wLjI2NDU4LC0wLjI2NDU4OCAtMC41MjkxNywtMC41MjkxNjQgLTAuODI3ODgsLTAuNTI5MTY0IGwgLTQuNzI4MzcsLTJlLTUgLTYuNjE0NTksMmUtNSBjIC0wLjc5Mzc1LDJlLTYgLTEuMzIyOTIsMC41MjkxNjQgLTEuMzIyOTIsMS4zMjI5MTYgdiAyMS4xNjY2NjYgYyAwLDAuNzkzNzUgMC41MjkxNywxLjMyMjkyIDEuMzIyOTIsMS4zMjI5MiBoIDcuOTM3NTEgNy45Mzc1IGMgMC43OTM3NCwwIDEuMzIyOTEsLTAuNTI5MTcgMS4zMjI5MSwtMS4zMjI5MiB6IG0gLTEuMzIyOTEsMTcuMTk3OTE4IEggMTMyLjI5MTY2IFYgOTMuOTI3MDg0IGggMTAuNTgzMzMgdiA0Ljc2MjUgYyAwLDAuMzE3NTA4IDAuMjAzNTMsMC41MjkxNjQgMC41MjkxNywwLjUyOTE2NCBoIDQuNzYyNTEgeiIKICAgICAgICAgICBzdHlsZT0ic3Ryb2tlLXdpZHRoOjAuMjMxNjciIC8+CiAgICAgICAgPHBhdGgKICAgICAgICAgICBpZD0icmVjdDE4MzQ3LTItNy04IgogICAgICAgICAgIHN0eWxlPSJmaWxsLXJ1bGU6ZXZlbm9kZDtzdHJva2Utd2lkdGg6MC4xMjIwMjc7cGFpbnQtb3JkZXI6ZmlsbCBtYXJrZXJzIHN0cm9rZSIKICAgICAgICAgICBkPSJtIDEzMS4wMTc1MiwxMDEuODY0NiBoIDE4LjQyMzI2IGMgMC43NTk5MywwIDEuMzcxNzEsMC40OTcwNiAxLjM3MTcxLDEuMTE0NSBsIDFlLTUsMi44NTQyMSAtMWUtNSwyLjg1NDI2IGMgMCwwLjYxNzQ0IC0wLjYxMTc4LDEuMTE0NSAtMS4zNzE3MSwxLjExNDUgaCAtMTguNDIzMjYgYyAtMC43NTk5MiwwIC0xLjM3MTcsLTAuNDk3MDYgLTEuMzcxNywtMS4xMTQ1IHYgLTIuODU0MjUgLTIuODU0MjIgYyAwLC0wLjYxNzQ0IDAuNjExNzgsLTEuMTE0NSAxLjM3MTcsLTEuMTE0NSB6IiAvPgogICAgICAgIDx0ZXh0CiAgICAgICAgICAgeG1sOnNwYWNlPSJwcmVzZXJ2ZSIKICAgICAgICAgICBzdHlsZT0iZm9udC13ZWlnaHQ6Ym9sZDtmb250LXNpemU6NS4yOTE2N3B4O2ZvbnQtZmFtaWx5OidNYXZlbiBQcm8nOy1pbmtzY2FwZS1mb250LXNwZWNpZmljYXRpb246J01hdmVuIFBybywgQm9sZCc7dGV4dC1hbGlnbjpjZW50ZXI7dGV4dC1vcmllbnRhdGlvbjp1cHJpZ2h0O3RleHQtYW5jaG9yOm1pZGRsZTtmaWxsOiNmZmZmZmY7ZmlsbC1vcGFjaXR5OjE7c3Ryb2tlOm5vbmU7c3Ryb2tlLXdpZHRoOjAuMjI3OTUxO3N0cm9rZS1saW5lY2FwOnJvdW5kO3N0cm9rZS1saW5lam9pbjptaXRlcjtzdHJva2UtbWl0ZXJsaW1pdDowLjY7c3Ryb2tlLWRhc2hhcnJheTpub25lO3N0cm9rZS1kYXNob2Zmc2V0OjIuMDAwMDE7c3Ryb2tlLW9wYWNpdHk6MTtwYWludC1vcmRlcjpmaWxsIG1hcmtlcnMgc3Ryb2tlO3N0b3AtY29sb3I6IzAwMDAwMCIKICAgICAgICAgICB4PSIxNDAuMzM4OTYiCiAgICAgICAgICAgeT0iMTA3LjIxMTgiCiAgICAgICAgICAgaWQ9InRleHQxODU2OS02LTgtNCI+PHRzcGFuCiAgICAgICAgICAgICBpZD0idHNwYW4xODU2Ny00Mi02LTEiCiAgICAgICAgICAgICBzdHlsZT0iZmlsbDojZmZmZmZmO2ZpbGwtb3BhY2l0eToxO3N0cm9rZTpub25lO3N0cm9rZS13aWR0aDowLjIyNzk1MSIKICAgICAgICAgICAgIHg9IjE0MC4zMzg5NiIKICAgICAgICAgICAgIHk9IjEwNy4yMTE4Ij5mYXN0cTwvdHNwYW4+PC90ZXh0PgogICAgICA8L2c+CiAgICAgIDxnCiAgICAgICAgIGlkPSJnMTg0ODgtNTQtOC02LTEiCiAgICAgICAgIHRyYW5zZm9ybT0idHJhbnNsYXRlKDIzLjgxMjUwMiw1LjI5MTY2OTUpIj4KICAgICAgICA8cGF0aAogICAgICAgICAgIGlkPSJwYXRoNjI3Ni00LTQtNi03LTUiCiAgICAgICAgICAgc3R5bGU9ImZpbGw6I2ZmZmZmZjtzdHJva2Utd2lkdGg6MC4yMzA3MDIiCiAgICAgICAgICAgZD0ibSAxMzIuMjkxNjYsOTMuOTI3MDcyIHYgMjEuMTY2NjY4IGggMTUuODc1MDEgViA5OS4yMTg3NDggbCAtNS4yOTE2OCwtNS4yOTE2NzYgeiIgLz4KICAgICAgICA8cGF0aAogICAgICAgICAgIGlkPSJwYXRoNTg2Mi0xLTEtMC02IgogICAgICAgICAgIGQ9Im0gMTQ5LjQ4OTU4LDk3Ljg5NTgzMiBjIDAsLTAuMjY0NTc2IC0wLjI2NDU4LC0wLjUyOTE2NCAtMC41MjkxNywtMC43OTM3NTIgbCAtNC40OTc5MSwtMy45Njg3NDggYyAtMC4yNjQ1OCwtMC4yNjQ1ODggLTAuNTI5MTcsLTAuNTI5MTY0IC0wLjgyNzg4LC0wLjUyOTE2NCBoIC0zLjQwNTQ1IC03LjkzNzUxIGMgLTAuNzkzNzUsMCAtMS4zMjI5MiwwLjUyOTE2NCAtMS4zMjI5MiwxLjMyMjkxNiB2IDIxLjE2NjY2NiBjIDAsMC43OTM3NSAwLjUyOTE3LDEuMzIyOTIgMS4zMjI5MiwxLjMyMjkyIGwgOS4yNjA0MiwtMmUtNSA2LjYxNDU5LDJlLTUgYyAwLjc5Mzc0LDAgMS4zMjI5MSwtMC41MjkxNyAxLjMyMjkxLC0xLjMyMjkyIHogbSAtMS4zMjI5MSwxNy4xOTc5MTggSCAxMzIuMjkxNjYgViA5My45MjcwODQgaCAxMC41ODMzMyB2IDQuNzYyNSBjIDAsMC4zMTc1MDggMC4yMDM1MywwLjUyOTE2NCAwLjUyOTE3LDAuNTI5MTY0IGggNC43NjI1MSB6IgogICAgICAgICAgIHN0eWxlPSJzdHJva2Utd2lkdGg6MC4yMzE2NyIgLz4KICAgICAgICA8cGF0aAogICAgICAgICAgIGlkPSJyZWN0MTgzNDctMi01LTAtMiIKICAgICAgICAgICBzdHlsZT0iZmlsbC1ydWxlOmV2ZW5vZGQ7c3Ryb2tlLXdpZHRoOjAuMTIyMDI3O3BhaW50LW9yZGVyOmZpbGwgbWFya2VycyBzdHJva2UiCiAgICAgICAgICAgZD0ibSAxMzEuMDE3NTIsMTAxLjg2NDYgaCAxOC40MjMyNiBjIDAuNzU5OTMsMCAxLjM3MTcxLDAuNDk3MDYgMS4zNzE3MSwxLjExNDUgdiAyLjg1NDIyIDIuODU0MjUgYyAwLDAuNjE3NDQgLTAuNjExNzgsMS4xMTQ1IC0xLjM3MTcxLDEuMTE0NSBoIC0xOC40MjMyNiBjIC0wLjc1OTkyLDAgLTEuMzcxNywtMC40OTcwNiAtMS4zNzE3LC0xLjExNDUgbCAxZS01LC01LjUwMDA4IC0xZS01LC0wLjIwODM5IGMgLTJlLTUsLTAuNjE3NDQgMC42MTE3OCwtMS4xMTQ1IDEuMzcxNywtMS4xMTQ1IHoiIC8+CiAgICAgIDwvZz4KICAgIDwvZz4KICA8L2c+Cjwvc3ZnPgo=;imageBackground=default;" vertex="1" parent="copLugqQvAR0kvUUau8e-90">
          <mxGeometry width="90" height="100" as="geometry" />
        </mxCell>
        <mxCell id="copLugqQvAR0kvUUau8e-92" value="&lt;font style=&quot;font-size: 20px;&quot; color=&quot;#ffffff&quot; data-font-src=&quot;https://fonts.googleapis.com/css?family=Maven+Pro&quot; face=&quot;Maven Pro&quot;&gt;&lt;b&gt;bam&lt;/b&gt;&lt;/font&gt;" style="text;html=1;strokeColor=none;fillColor=none;align=center;verticalAlign=middle;whiteSpace=wrap;rounded=0;" vertex="1" parent="copLugqQvAR0kvUUau8e-90">
          <mxGeometry x="10" y="45" width="60" height="30" as="geometry" />
        </mxCell>
        <mxCell id="copLugqQvAR0kvUUau8e-93" value="" style="endArrow=none;html=1;rounded=1;strokeWidth=10;exitX=0;exitY=0.75;exitDx=0;exitDy=0;strokeColor=#24b064;" edge="1" parent="copLugqQvAR0kvUUau8e-4">
          <mxGeometry width="50" height="50" relative="1" as="geometry">
            <mxPoint x="485" y="801" as="sourcePoint" />
            <mxPoint x="485" y="686" as="targetPoint" />
          </mxGeometry>
        </mxCell>
        <mxCell id="copLugqQvAR0kvUUau8e-94" value="" style="shape=image;verticalLabelPosition=bottom;verticalAlign=top;imageAspect=0;aspect=fixed;image=data:image/svg+xml,PHN2ZyB4bWxucz0iaHR0cDovL3d3dy53My5vcmcvMjAwMC9zdmciIGlkPSJzdmc3MzYyIiB2ZXJzaW9uPSIxLjEiIHZpZXdCb3g9IjAgMCA3LjkzNzQ5ODEgMTUuODc1IiBoZWlnaHQ9IjE1Ljg3NW1tIiB3aWR0aD0iNy45Mzc0OTgxbW0iPiYjeGE7ICAmI3hhOyAgICAmI3hhOyAgJiN4YTsgIDxkZWZzIGlkPSJkZWZzNzM1OSIvPiYjeGE7ICA8ZyB0cmFuc2Zvcm09InRyYW5zbGF0ZSgtMjIuNTEwMjYyLC0zMy4wNzI5MTMpIiBpZD0ibGF5ZXI1Ij4mI3hhOyAgICA8ZyBpZD0ibGF5ZXI2Ij4mI3hhOyAgICAgIDxyZWN0IHRyYW5zZm9ybT0ic2NhbGUoLTEpIiByeT0iMi42NDU4MzMzIiB5PSItNDcuNjI0OTk2IiB4PSItMjkuMTI0ODQ2IiBoZWlnaHQ9IjEzLjIyOTE2NiIgd2lkdGg9IjUuMjkxNjY3OSIgaWQ9InJlY3Q5MTgiIHN0eWxlPSJmaWxsOiNmZmZmZmY7c3Ryb2tlOiMwMDAwMDA7c3Ryb2tlLXdpZHRoOjIuNjQ1ODM7c3Ryb2tlLWxpbmVjYXA6cm91bmQ7c3Ryb2tlLWRhc2hhcnJheTpub25lO3BhaW50LW9yZGVyOnN0cm9rZSBtYXJrZXJzIGZpbGw7c3RvcC1jb2xvcjojMDAwMDAwIi8+JiN4YTsgICAgPC9nPiYjeGE7ICA8L2c+JiN4YTs8L3N2Zz4=" vertex="1" parent="copLugqQvAR0kvUUau8e-4">
          <mxGeometry x="470" y="711" width="30" height="60" as="geometry" />
        </mxCell>
        <mxCell id="copLugqQvAR0kvUUau8e-95" value="" style="shape=image;verticalLabelPosition=bottom;verticalAlign=top;imageAspect=0;aspect=fixed;image=data:image/svg+xml,PHN2ZyB4bWxucz0iaHR0cDovL3d3dy53My5vcmcvMjAwMC9zdmciIGlkPSJzdmc3MzYyIiB2ZXJzaW9uPSIxLjEiIHZpZXdCb3g9IjAgMCA3LjkzNzQ5ODEgNy45Mzc1IiBoZWlnaHQ9IjcuOTM3NW1tIiB3aWR0aD0iNy45Mzc0OTgxbW0iPiYjeGE7ICAmI3hhOyAgICAmI3hhOyAgJiN4YTsgIDxkZWZzIGlkPSJkZWZzNzM1OSIvPiYjeGE7ICA8ZyB0cmFuc2Zvcm09InRyYW5zbGF0ZSgtMy45ODk0Mjk4LC02Mi4xNzcwODQpIiBpZD0ibGF5ZXI1Ij4mI3hhOyAgICA8ZyBpZD0ibGF5ZXI3Ij4mI3hhOyAgICAgIDxyZWN0IHJ5PSIwLjc5Mzc0ODc0IiB5PSI2My41IiB4PSI1LjMxMjM0NDYiIGhlaWdodD0iNS4yOTE2NjU2IiB3aWR0aD0iNS4yOTE2Njc5IiBpZD0icmVjdDkxOC05LTciIHN0eWxlPSJmaWxsOiNmZmZmZmY7c3Ryb2tlOiMwMDAwMDA7c3Ryb2tlLXdpZHRoOjIuNjQ1ODM7c3Ryb2tlLWxpbmVjYXA6cm91bmQ7cGFpbnQtb3JkZXI6c3Ryb2tlIG1hcmtlcnMgZmlsbDtzdG9wLWNvbG9yOiMwMDAwMDAiLz4mI3hhOyAgICA8L2c+JiN4YTsgIDwvZz4mI3hhOzwvc3ZnPg==" vertex="1" parent="copLugqQvAR0kvUUau8e-4">
          <mxGeometry x="590" y="836" width="30" height="30" as="geometry" />
        </mxCell>
        <mxCell id="copLugqQvAR0kvUUau8e-96" value="" style="shape=stencil(vZXdcoMgEIWfhltGlkiSy45N34MaUpkacNAk5u2Dgqn1JzN1sDPeeJb9WM4yLKJJmfFCIIh4WYi0QvQdAVy5kfwztzLYSOZEYHgT7ygFp94m1bIy+lvc5LHyWVJlwsiqidIDit7smuajSaqVshtKrcpfkV7cwrhUNjeqHSxym9z9H4bYCYXd4iwqYVyAOBXBx1JyKCxZr+AnK3TNIzJZyWQczIyhzQFdXs3kf/J4u5rJ4cg/rPA2b1fymSzH0sQqc88fTU7aiC+jL+o4WcxJ5rl7ZV9UXPDm/R0FuvBZX0XfpOGliV750UFyqXoQhhlpBgEsQaUX4woi3jiKAfaEMQ8jA1oNk8Pn7uUYt8nMt76m06u9TPZ4t6HdPfnLmYfASXWuRVaf6ZKdyXP9bdNGF6RV3RxvhQc=);whiteSpace=wrap;html=1;strokeWidth=10;fillColor=none;strokeColor=#000000;rotation=90;" vertex="1" parent="copLugqQvAR0kvUUau8e-4">
          <mxGeometry x="570" y="756" width="35" height="35" as="geometry" />
        </mxCell>
        <mxCell id="copLugqQvAR0kvUUau8e-97" value="" style="shape=stencil(vZXdcoMgEIWfhltGlkiSy45N34MaUpkacNAk5u2Dgqn1JzN1sDPeeJb9WM4yLKJJmfFCIIh4WYi0QvQdAVy5kfwztzLYSOZEYHgT7ygFp94m1bIy+lvc5LHyWVJlwsiqidIDit7smuajSaqVshtKrcpfkV7cwrhUNjeqHSxym9z9H4bYCYXd4iwqYVyAOBXBx1JyKCxZr+AnK3TNIzJZyWQczIyhzQFdXs3kf/J4u5rJ4cg/rPA2b1fymSzH0sQqc88fTU7aiC+jL+o4WcxJ5rl7ZV9UXPDm/R0FuvBZX0XfpOGliV750UFyqXoQhhlpBgEsQaUX4woi3jiKAfaEMQ8jA1oNk8Pn7uUYt8nMt76m06u9TPZ4t6HdPfnLmYfASXWuRVaf6ZKdyXP9bdNGF6RV3RxvhQc=);whiteSpace=wrap;html=1;strokeWidth=10;fillColor=none;strokeColor=#3d95fd;points=[[0,0,0,0,0],[1,1,0,0,0]];" vertex="1" parent="copLugqQvAR0kvUUau8e-4">
          <mxGeometry x="150" y="906" width="75" height="75" as="geometry" />
        </mxCell>
        <mxCell id="copLugqQvAR0kvUUau8e-98" value="" style="endArrow=none;html=1;rounded=0;strokeWidth=10;strokeColor=#24b064;" edge="1" parent="copLugqQvAR0kvUUau8e-4">
          <mxGeometry width="50" height="50" relative="1" as="geometry">
            <mxPoint x="150" y="906" as="sourcePoint" />
            <mxPoint x="350" y="906" as="targetPoint" />
          </mxGeometry>
        </mxCell>
        <mxCell id="copLugqQvAR0kvUUau8e-99" value="" style="endArrow=none;html=1;rounded=0;strokeWidth=10;strokeColor=#24b064;" edge="1" parent="copLugqQvAR0kvUUau8e-4">
          <mxGeometry width="50" height="50" relative="1" as="geometry">
            <mxPoint x="140" y="791" as="sourcePoint" />
            <mxPoint x="300" y="791.49" as="targetPoint" />
          </mxGeometry>
        </mxCell>
        <mxCell id="copLugqQvAR0kvUUau8e-100" value="" style="shape=stencil(nVTbbsMgDP2aPBbZpgTyOGXbf2QtXdEyEpH0sr8fCaCVXra1CCnKOfHxsXEoeD1sm14XBM3Q69VY8OeCaN8407y1HibPbAMoGQi/kAJ6CCgpRtPCgA6j6z70wazHGGXsVjszTix/KeDJfzNtXq86a31C09khY054L9YY62PhGMQgJPkKbzFl7/U/9ahdhhb0+m9ZzGThHllee+RWKbzedE6/u25n11fNbEzbho794rhvpl5eEIn+7Pb6p5QFsZIrQoV6AWVW19n5XU+XVFtjT1SXTAL3mx4XXO1c8IkpuEQJ/hkl8armkWL3gQnFOakqrRgWecGUrEpKBo88hi0Z+kXyPCzynAmSUopHCkA5dboCzAtAhlJUlOBUAAGTJGApc98LYAAoZZn7noyhEshzu/7j+88u/qBYZWf3h9Q81jcGz18Zt0Z2DruY+RkN18wMfAM=);whiteSpace=wrap;html=1;strokeWidth=10;strokeColor=#ecdc86;fillColor=none;" vertex="1" parent="copLugqQvAR0kvUUau8e-4">
          <mxGeometry x="470" y="625" width="80" height="20" as="geometry" />
        </mxCell>
        <mxCell id="copLugqQvAR0kvUUau8e-101" value="" style="shape=stencil(nVTbbsMgDP2aPBbZpgTyOGXbf2QtXdEyEpH0sr8fCaCVXra1CCnKOfHxsXEoeD1sm14XBM3Q69VY8OeCaN8407y1HibPbAMoGQi/kAJ6CCgpRtPCgA6j6z70wazHGGXsVjszTix/KeDJfzNtXq86a31C09khY054L9YY62PhGMQgJPkKbzFl7/U/9ahdhhb0+m9ZzGThHllee+RWKbzedE6/u25n11fNbEzbho794rhvpl5eEIn+7Pb6p5QFsZIrQoV6AWVW19n5XU+XVFtjT1SXTAL3mx4XXO1c8IkpuEQJ/hkl8armkWL3gQnFOakqrRgWecGUrEpKBo88hi0Z+kXyPCzynAmSUopHCkA5dboCzAtAhlJUlOBUAAGTJGApc98LYAAoZZn7noyhEshzu/7j+88u/qBYZWf3h9Q81jcGz18Zt0Z2DruY+RkN18wMfAM=);whiteSpace=wrap;html=1;strokeWidth=10;strokeColor=#ecdc86;fillColor=none;flipV=1;" vertex="1" parent="copLugqQvAR0kvUUau8e-4">
          <mxGeometry x="470" y="575" width="80" height="20" as="geometry" />
        </mxCell>
        <mxCell id="copLugqQvAR0kvUUau8e-102" value="" style="shape=stencil(nVRbcoMwDDwNn/HIEn7w2SHtPWjiNJ4Swxjyun0NhmncJG0Tj39YSavVA2dUdtuqNRlC1bVm1We0zBAPlbfVex1gDJZtBDkwoYkogscIomY4HB7RrvfNpznadT8FWbc13vaDlV4zeAk+w6Vy1TgX8tnGdYnlwh7IKutCLJwiGcQk50lP/GoD/870xidohm//puUJLTxCS2VA7pVC5abx5sM3e7e+KWZj6zp27BfFbTX08sowm3fNwXyXolkhc60LMgtQabeS6d1ONnPW1l1w5kwBKZDF03yrvY8ieYxVTHIFKKfgM79FecIUnZ1xrlTzIic1VXmiyTtnPBzCyXuCBcOCSymeUcuDXNIF5D/UMhVgVYhULgJTKEDwVO4CGISKpaBULxITXAuuUr3B+/FBzf8iJYP6g2rc4Ds7Fh6He9s5hl2t94jGB2UEvgA=);whiteSpace=wrap;html=1;strokeWidth=10;strokeColor=#3f2b29;fillColor=none;" vertex="1" parent="copLugqQvAR0kvUUau8e-4">
          <mxGeometry x="570" y="921" width="80" height="30" as="geometry" />
        </mxCell>
        <mxCell id="copLugqQvAR0kvUUau8e-103" value="" style="shape=stencil(nVRbcoMwDDwNn/HIEn7w2SHtPWjiNJ4Swxjyun0NhmncJG0Tj39YSavVA2dUdtuqNRlC1bVm1We0zBAPlbfVex1gDJZtBDkwoYkogscIomY4HB7RrvfNpznadT8FWbc13vaDlV4zeAk+w6Vy1TgX8tnGdYnlwh7IKutCLJwiGcQk50lP/GoD/870xidohm//puUJLTxCS2VA7pVC5abx5sM3e7e+KWZj6zp27BfFbTX08sowm3fNwXyXolkhc60LMgtQabeS6d1ONnPW1l1w5kwBKZDF03yrvY8ieYxVTHIFKKfgM79FecIUnZ1xrlTzIic1VXmiyTtnPBzCyXuCBcOCSymeUcuDXNIF5D/UMhVgVYhULgJTKEDwVO4CGISKpaBULxITXAuuUr3B+/FBzf8iJYP6g2rc4Ds7Fh6He9s5hl2t94jGB2UEvgA=);whiteSpace=wrap;html=1;strokeWidth=10;strokeColor=#3f2b29;fillColor=none;flipV=1;" vertex="1" parent="copLugqQvAR0kvUUau8e-4">
          <mxGeometry x="570" y="891" width="80" height="30" as="geometry" />
        </mxCell>
        <mxCell id="copLugqQvAR0kvUUau8e-104" value="" style="shape=stencil(nVRbcoMwDDwNn/HIEn7w2SHtPWjiNJ4Swxjyun0NhmncJG0Tj39YSavVA2dUdtuqNRlC1bVm1We0zBAPlbfVex1gDJZtBDkwoYkogscIomY4HB7RrvfNpznadT8FWbc13vaDlV4zeAk+w6Vy1TgX8tnGdYnlwh7IKutCLJwiGcQk50lP/GoD/870xidohm//puUJLTxCS2VA7pVC5abx5sM3e7e+KWZj6zp27BfFbTX08sowm3fNwXyXolkhc60LMgtQabeS6d1ONnPW1l1w5kwBKZDF03yrvY8ieYxVTHIFKKfgM79FecIUnZ1xrlTzIic1VXmiyTtnPBzCyXuCBcOCSymeUcuDXNIF5D/UMhVgVYhULgJTKEDwVO4CGISKpaBULxITXAuuUr3B+/FBzf8iJYP6g2rc4Ds7Fh6He9s5hl2t94jGB2UEvgA=);whiteSpace=wrap;html=1;strokeWidth=10;strokeColor=#3f2b29;fillColor=none;flipH=1;" vertex="1" parent="copLugqQvAR0kvUUau8e-4">
          <mxGeometry x="490" y="821" width="80" height="30" as="geometry" />
        </mxCell>
        <mxCell id="copLugqQvAR0kvUUau8e-105" value="" style="shape=stencil(nVRbcoMwDDwNn/HIEn7w2SHtPWjiNJ4Swxjyun0NhmncJG0Tj39YSavVA2dUdtuqNRlC1bVm1We0zBAPlbfVex1gDJZtBDkwoYkogscIomY4HB7RrvfNpznadT8FWbc13vaDlV4zeAk+w6Vy1TgX8tnGdYnlwh7IKutCLJwiGcQk50lP/GoD/870xidohm//puUJLTxCS2VA7pVC5abx5sM3e7e+KWZj6zp27BfFbTX08sowm3fNwXyXolkhc60LMgtQabeS6d1ONnPW1l1w5kwBKZDF03yrvY8ieYxVTHIFKKfgM79FecIUnZ1xrlTzIic1VXmiyTtnPBzCyXuCBcOCSymeUcuDXNIF5D/UMhVgVYhULgJTKEDwVO4CGISKpaBULxITXAuuUr3B+/FBzf8iJYP6g2rc4Ds7Fh6He9s5hl2t94jGB2UEvgA=);whiteSpace=wrap;html=1;strokeWidth=10;strokeColor=#3f2b29;fillColor=none;flipV=1;flipH=1;" vertex="1" parent="copLugqQvAR0kvUUau8e-4">
          <mxGeometry x="490" y="791" width="80" height="30" as="geometry" />
        </mxCell>
        <mxCell id="copLugqQvAR0kvUUau8e-106" value="" style="shape=stencil(nVTbboMwDP0aHhs5NiHwOLHtP1ibrtFoQIFe9vczJGiL2m5rrbxwbB/7OCYZ1cOu6U2G0Ay9WY8ZPWeIx8bb5q1lGNmzC6DMhWSDPKCngGIpcDIZ0GH03Yc52c0Ys6zbGW/HyUsvGTxxzHSoXnfOcUHbuSHx/PAzWWMd58I5kEEo8hkbCl898+/NaHyCZvj6b1qZ0MI9tFQzcksK1dvOm3ffHdzmajNb27ZhYr903DfTLC8ci3vfHc23lFzoIi/LiswKdDqt9PquV1tIW+tSUqCiosf51gcfupQhWYtCapCoIqW8ynnGCINQJbHF6AWWQqsK8zJGU0qiIBrGNFpqg5qtivaIAMkKiOcsUwEoSMkyX7ZlEYAgNCpQMhWwAgFASuWFTiUgCaZRUqedc/j9l7f8oOnt/UE1r/WNxeMn49bKzmkXOz+j4ZmZgS8=);whiteSpace=wrap;html=1;strokeWidth=10;fillColor=none;strokeColor=#fa6863;" vertex="1" parent="copLugqQvAR0kvUUau8e-4">
          <mxGeometry x="350" y="866" width="80" height="40" as="geometry" />
        </mxCell>
        <mxCell id="copLugqQvAR0kvUUau8e-107" value="" style="shape=stencil(nVTbboMwDP0aHhs5NiHwOLHtP1ibrtFoQIFe9vczJGiL2m5rrbxwbB/7OCYZ1cOu6U2G0Ay9WY8ZPWeIx8bb5q1lGNmzC6DMhWSDPKCngGIpcDIZ0GH03Yc52c0Ys6zbGW/HyUsvGTxxzHSoXnfOcUHbuSHx/PAzWWMd58I5kEEo8hkbCl898+/NaHyCZvj6b1qZ0MI9tFQzcksK1dvOm3ffHdzmajNb27ZhYr903DfTLC8ci3vfHc23lFzoIi/LiswKdDqt9PquV1tIW+tSUqCiosf51gcfupQhWYtCapCoIqW8ynnGCINQJbHF6AWWQqsK8zJGU0qiIBrGNFpqg5qtivaIAMkKiOcsUwEoSMkyX7ZlEYAgNCpQMhWwAgFASuWFTiUgCaZRUqedc/j9l7f8oOnt/UE1r/WNxeMn49bKzmkXOz+j4ZmZgS8=);whiteSpace=wrap;html=1;strokeWidth=10;fillColor=none;strokeColor=#fa6863;flipV=1;" vertex="1" parent="copLugqQvAR0kvUUau8e-4">
          <mxGeometry x="135" y="791" width="80" height="40" as="geometry" />
        </mxCell>
        <mxCell id="copLugqQvAR0kvUUau8e-108" value="" style="shape=image;verticalLabelPosition=bottom;verticalAlign=top;imageAspect=0;aspect=fixed;image=data:image/svg+xml,PHN2ZyB4bWxucz0iaHR0cDovL3d3dy53My5vcmcvMjAwMC9zdmciIGlkPSJzdmc3MzYyIiB2ZXJzaW9uPSIxLjEiIHZpZXdCb3g9IjAgMCA3LjkzNzQ5NjcgNy45Mzc0OTYyIiBoZWlnaHQ9IjcuOTM3NDk2Mm1tIiB3aWR0aD0iNy45Mzc0OTY3bW0iPiYjeGE7ICAmI3hhOyAgICAmI3hhOyAgJiN4YTsgIDxkZWZzIGlkPSJkZWZzNzM1OSIvPiYjeGE7ICA8ZyB0cmFuc2Zvcm09InRyYW5zbGF0ZSgtMy45ODk0MzAzLC0zMy4wNzI5MjEpIiBpZD0ibGF5ZXI1Ij4mI3hhOyAgICA8ZyBpZD0ibGF5ZXI2Ij4mI3hhOyAgICAgIDxjaXJjbGUgcj0iMi42NDU4MzMzIiBjeT0iMzcuMDQxNjY4IiBjeD0iNy45NTgxNzg1IiBpZD0icGF0aDM0NDciIHN0eWxlPSJmaWxsOiNmZmZmZmY7c3Ryb2tlOiMwMDAwMDA7c3Ryb2tlLXdpZHRoOjIuNjQ1ODM7c3Ryb2tlLWxpbmVjYXA6cm91bmQ7c3Ryb2tlLW1pdGVybGltaXQ6NDtzdHJva2UtZGFzaGFycmF5Om5vbmU7cGFpbnQtb3JkZXI6c3Ryb2tlIG1hcmtlcnMgZmlsbDtzdG9wLWNvbG9yOiMwMDAwMDAiLz4mI3hhOyAgICA8L2c+JiN4YTsgIDwvZz4mI3hhOzwvc3ZnPg==" vertex="1" parent="copLugqQvAR0kvUUau8e-4">
          <mxGeometry x="205" y="816" width="30" height="30" as="geometry" />
        </mxCell>
        <mxCell id="copLugqQvAR0kvUUau8e-109" value="" style="shape=stencil(nZPBkoMgDIafhisDARWPO273PVhLV2YtOGhb+/YFoR1ta2e7Dhe/JH9CEhCr+kZ2CgGRfafqAbFPBHCUTsvv1mPwliZCCpjxAgIK9BQpCAzhY5H2g7O/6qS3Q4rSplFOD8HKNoh8eJ9wWFVbY3xCbU2/sMzsXkxq42PJGMVITHJe/HVef68G5VKZkSL4+rMsXcjSd2RZ5cnaVVi1s079OHsw26fF7HTbxo69qLiToZcPhqt5b49q1iFMCJS85NmyVZi8astVq9VmplVgkolMcPofqfrgYl009Y9jSjkAT2L0Tm2E5FdiTgm5JU2Y4QwYyUVavpGl7eM4L4u8EMk7YYEFLYQo4f1L3+3z+enur43K85Vp+Xe2Nucp7GFRJhrf5gQu);whiteSpace=wrap;html=1;strokeWidth=10;fillColor=none;strokeColor=#f18046;" vertex="1" parent="copLugqQvAR0kvUUau8e-4">
          <mxGeometry x="190" y="691" width="80" height="35" as="geometry" />
        </mxCell>
        <mxCell id="copLugqQvAR0kvUUau8e-110" value="" style="shape=stencil(nZPBkoMgDIafhisDARWPO273PVhLV2YtOGhb+/YFoR1ta2e7Dhe/JH9CEhCr+kZ2CgGRfafqAbFPBHCUTsvv1mPwliZCCpjxAgIK9BQpCAzhY5H2g7O/6qS3Q4rSplFOD8HKNoh8eJ9wWFVbY3xCbU2/sMzsXkxq42PJGMVITHJe/HVef68G5VKZkSL4+rMsXcjSd2RZ5cnaVVi1s079OHsw26fF7HTbxo69qLiToZcPhqt5b49q1iFMCJS85NmyVZi8astVq9VmplVgkolMcPofqfrgYl009Y9jSjkAT2L0Tm2E5FdiTgm5JU2Y4QwYyUVavpGl7eM4L4u8EMk7YYEFLYQo4f1L3+3z+enur43K85Vp+Xe2Nucp7GFRJhrf5gQu);whiteSpace=wrap;html=1;strokeWidth=10;fillColor=none;strokeColor=#f18046;flipV=1;flipH=1;" vertex="1" parent="copLugqQvAR0kvUUau8e-4">
          <mxGeometry x="330" y="786" width="80" height="35" as="geometry" />
        </mxCell>
        <mxCell id="copLugqQvAR0kvUUau8e-111" value="" style="shape=stencil(nZPBkoMgDIafhisDARWPO273PVhLV2YtOGhb+/YFoR1ta2e7Dhe/JH9CEhCr+kZ2CgGRfafqAbFPBHCUTsvv1mPwliZCCpjxAgIK9BQpCAzhY5H2g7O/6qS3Q4rSplFOD8HKNoh8eJ9wWFVbY3xCbU2/sMzsXkxq42PJGMVITHJe/HVef68G5VKZkSL4+rMsXcjSd2RZ5cnaVVi1s079OHsw26fF7HTbxo69qLiToZcPhqt5b49q1iFMCJS85NmyVZi8astVq9VmplVgkolMcPofqfrgYl009Y9jSjkAT2L0Tm2E5FdiTgm5JU2Y4QwYyUVavpGl7eM4L4u8EMk7YYEFLYQo4f1L3+3z+enur43K85Vp+Xe2Nucp7GFRJhrf5gQu);whiteSpace=wrap;html=1;strokeWidth=10;fillColor=none;strokeColor=#f18046;flipH=1;" vertex="1" parent="copLugqQvAR0kvUUau8e-4">
          <mxGeometry x="270" y="575" width="80" height="35" as="geometry" />
        </mxCell>
        <mxCell id="copLugqQvAR0kvUUau8e-112" value="" style="shape=stencil(nZPBkoMgDIafhisDARWPO273PVhLV2YtOGhb+/YFoR1ta2e7Dhe/JH9CEhCr+kZ2CgGRfafqAbFPBHCUTsvv1mPwliZCCpjxAgIK9BQpCAzhY5H2g7O/6qS3Q4rSplFOD8HKNoh8eJ9wWFVbY3xCbU2/sMzsXkxq42PJGMVITHJe/HVef68G5VKZkSL4+rMsXcjSd2RZ5cnaVVi1s079OHsw26fF7HTbxo69qLiToZcPhqt5b49q1iFMCJS85NmyVZi8astVq9VmplVgkolMcPofqfrgYl009Y9jSjkAT2L0Tm2E5FdiTgm5JU2Y4QwYyUVavpGl7eM4L4u8EMk7YYEFLYQo4f1L3+3z+enur43K85Vp+Xe2Nucp7GFRJhrf5gQu);whiteSpace=wrap;html=1;strokeWidth=10;fillColor=none;strokeColor=#f18046;flipV=1;flipH=0;" vertex="1" parent="copLugqQvAR0kvUUau8e-4">
          <mxGeometry x="190" y="610" width="80" height="35" as="geometry" />
        </mxCell>
        <mxCell id="copLugqQvAR0kvUUau8e-113" value="" style="shape=image;verticalLabelPosition=bottom;verticalAlign=top;imageAspect=0;aspect=fixed;image=data:image/svg+xml,PHN2ZyB4bWxucz0iaHR0cDovL3d3dy53My5vcmcvMjAwMC9zdmciIGlkPSJzdmc3MzYyIiB2ZXJzaW9uPSIxLjEiIHZpZXdCb3g9IjAgMCA3LjkzNzQ5NjIgMjMuODEyNTA0IiBoZWlnaHQ9IjIzLjgxMjUwNG1tIiB3aWR0aD0iNy45Mzc0OTYybW0iPiYjeGE7ICAmI3hhOyAgICAmI3hhOyAgJiN4YTsgIDxkZWZzIGlkPSJkZWZzNzM1OSIvPiYjeGE7ICA8ZyB0cmFuc2Zvcm09InRyYW5zbGF0ZSgtNDEuMDMxMDk1LC0zMy4wNzI5MTcpIiBpZD0ibGF5ZXI1Ij4mI3hhOyAgICA8ZyBpZD0ibGF5ZXI2Ij4mI3hhOyAgICAgIDxyZWN0IHJ5PSIyLjgyMjIyMjUiIHk9IjM0LjM5NTgzMiIgeD0iNDIuMzU0MDEyIiBoZWlnaHQ9IjIxLjE2NjY3IiB3aWR0aD0iNS4yOTE2NjY1IiBpZD0icmVjdDkxOC04IiBzdHlsZT0iZmlsbDojZmZmZmZmO3N0cm9rZTojMDAwMDAwO3N0cm9rZS13aWR0aDoyLjY0NTgzO3N0cm9rZS1saW5lY2FwOnJvdW5kO3N0cm9rZS1kYXNoYXJyYXk6bm9uZTtwYWludC1vcmRlcjpzdHJva2UgbWFya2VycyBmaWxsO3N0b3AtY29sb3I6IzAwMDAwMCIvPiYjeGE7ICAgIDwvZz4mI3hhOyAgPC9nPiYjeGE7PC9zdmc+;rotation=90;" vertex="1" parent="copLugqQvAR0kvUUau8e-4">
          <mxGeometry x="655" y="876" width="30" height="90" as="geometry" />
        </mxCell>
        <mxCell id="copLugqQvAR0kvUUau8e-114" value="" style="shape=stencil(nVNdc4MgEPw1PobhQAEfO7b9HzQhlalRB02i/74oUONXJ63ji7vu3t5xRDRrclmriGDZ1OrYRvQ1IuQmjZYfhYWJZXIHUpQQzjljDr07FGIE9sHCoU1rqi9116fWq3SZK6PbgaVvEX6x/wwvzY5VWdqCuiqbGfPAWzOpS6vFnTPDrkg/+6qt/0W1yvhADo3I+9O28H9bmllkrxWanSujPk11LU+bYc66KNzEfklcy2GWKyLQl+qmplYIYkyQOE7UAbNZW4vj2672M6Wrca4QxLFIMGPcW8LMk6YO7sgjLEKp3sMHQHECaQp8CtdRx3GEU0FYcOo9DAhigbGgk+JvwQGjRFBKVsHF0jeEXyrI5vhCbr/+APPcTw173J2d07X3cm8vRtlqsUbU3eUR+AY=);whiteSpace=wrap;html=1;fillColor=none;strokeColor=#ae63fa;strokeWidth=10;points=[[0,1,0,0,0],[1,1,0,0,0]];rotation=90;" vertex="1" parent="copLugqQvAR0kvUUau8e-4">
          <mxGeometry x="470" y="816" width="40" height="10" as="geometry" />
        </mxCell>
        <mxCell id="copLugqQvAR0kvUUau8e-115" value="" style="shape=stencil(nVPBbsMgDP0ajkNgjzU7Tun2H6ylC1oKEaFt9vcjMZ2alkzdLC4828/m2TCs+0Z3hoHQfWc2keGaARx1sPq9TTAkT0MgcgWrZBWhJ0JBcvk0GqF9DP7TnOw25izrGhNsHL34ysRLihkP1hvvXCpovetnngt/ItPWpVwxEJmgIl90k3TrEv/eRBNmKIO3u2nl/2mxTsjSU7De+WA+gj+4bbGZnW1bUuyXjjs9annjOLv3/mguFOJzja6GVq7xo80hEJekZMXheRyuypSyyDlAOTrDwFFIEI/KPIi8JANmTQVXFSbLGbiY8be+peLV6qrpUhtQCIfyG7G47eeO71J5WpWFYaZvuLQGU9rNHk0ofd0J+AY=);whiteSpace=wrap;html=1;fillColor=none;strokeColor=#63e5e8;strokeWidth=10;rotation=90;" vertex="1" parent="copLugqQvAR0kvUUau8e-4">
          <mxGeometry x="460" y="946" width="60" height="10" as="geometry" />
        </mxCell>
        <mxCell id="copLugqQvAR0kvUUau8e-116" value="" style="shape=stencil(nVPBbsMgDP0ajkNgjzU7Tun2H6ylC1oKEaFt9vcjMZ2alkzdLC4828/m2TCs+0Z3hoHQfWc2keGaARx1sPq9TTAkT0MgcgWrZBWhJ0JBcvk0GqF9DP7TnOw25izrGhNsHL34ysRLihkP1hvvXCpovetnngt/ItPWpVwxEJmgIl90k3TrEv/eRBNmKIO3u2nl/2mxTsjSU7De+WA+gj+4bbGZnW1bUuyXjjs9annjOLv3/mguFOJzja6GVq7xo80hEJekZMXheRyuypSyyDlAOTrDwFFIEI/KPIi8JANmTQVXFSbLGbiY8be+peLV6qrpUhtQCIfyG7G47eeO71J5WpWFYaZvuLQGU9rNHk0ofd0J+AY=);whiteSpace=wrap;html=1;fillColor=none;strokeColor=#63e5e8;strokeWidth=10;rotation=90;" vertex="1" parent="copLugqQvAR0kvUUau8e-4">
          <mxGeometry x="460" y="886" width="60" height="10" as="geometry" />
        </mxCell>
        <mxCell id="copLugqQvAR0kvUUau8e-117" value="" style="endArrow=none;html=1;rounded=1;strokeWidth=10;strokeColor=#24b064;entryX=0.001;entryY=0.899;entryDx=0;entryDy=0;entryPerimeter=0;" edge="1" parent="copLugqQvAR0kvUUau8e-4">
          <mxGeometry width="50" height="50" relative="1" as="geometry">
            <mxPoint x="457" y="921.12" as="sourcePoint" />
            <mxPoint x="550" y="920.88" as="targetPoint" />
          </mxGeometry>
        </mxCell>
        <mxCell id="copLugqQvAR0kvUUau8e-118" value="" style="shape=image;verticalLabelPosition=bottom;verticalAlign=top;imageAspect=0;aspect=fixed;image=data:image/svg+xml,PHN2ZyB4bWxucz0iaHR0cDovL3d3dy53My5vcmcvMjAwMC9zdmciIGlkPSJzdmc3MzYyIiB2ZXJzaW9uPSIxLjEiIHZpZXdCb3g9IjAgMCA3LjkzNzUgMjMuODEyNSIgaGVpZ2h0PSIyMy44MTI1bW0iIHdpZHRoPSI3LjkzNzVtbSI+JiN4YTsgICYjeGE7ICAgICYjeGE7ICAmI3hhOyAgPGRlZnMgaWQ9ImRlZnM3MzU5Ii8+JiN4YTsgIDxnIHRyYW5zZm9ybT0idHJhbnNsYXRlKC00MS4wMTA0MTUsLTkzLjkyNzA4MykiIGlkPSJsYXllcjUiPiYjeGE7ICAgIDxnIGlkPSJsYXllcjgiPiYjeGE7ICAgICAgPHBhdGggZD0ibSA0NC45NzkxNjcsOTUuMjUgYSAyLjY0NTgzMzMsMi42NDU4MzMzIDAgMCAwIC0yLjY0NTgzNCwyLjY0NTgzMyAyLjY0NTgzMzMsMi42NDU4MzMzIDAgMCAwIDEuMzIyOTE3LDIuMjkxMzM3IHYgMy4zNTQ4MyBhIDIuNjQ1ODMzMywyLjY0NTgzMzMgMCAwIDAgLTEuMTkzMjA5LDEuNDczODEgMi42NDU4MzMzLDIuNjQ1ODMzMyAwIDAgMCAtMC4wNzE4MywwLjI2NzE3IDIuNjQ1ODMzMywyLjY0NTgzMzMgMCAwIDAgLTAuMDU3ODgsMC41NTAzNSAyLjY0NTgzMzMsMi42NDU4MzMzIDAgMCAwIDEuMzIyOTE3LDIuMjkxMzQgdiAzLjM1NDgzIGEgMi42NDU4MzMzLDIuNjQ1ODMzMyAwIDAgMCAtMS4zMjI5MTcsMi4yOTEzMyAyLjY0NTgzMzMsMi42NDU4MzMzIDAgMCAwIDIuNjQ1ODM0LDIuNjQ1ODQgMi42NDU4MzMzLDIuNjQ1ODMzMyAwIDAgMCAyLjY0NTgzMywtMi42NDU4NCAyLjY0NTgzMzMsMi42NDU4MzMzIDAgMCAwIC0xLjMyMjkxNywtMi4yOTEzMyB2IC0zLjM1NDgzIGEgMi42NDU4MzMzLDIuNjQ1ODMzMyAwIDAgMCAwLjIzMjAyOCwtMC4xNTA5IDIuNjQ1ODMzMywyLjY0NTgzMzMgMCAwIDAgMC4yMTU0OSwtMC4xNzQxNSAyLjY0NTgzMzMsMi42NDU4MzMzIDAgMCAwIDAuMTk1ODU0LC0wLjE5NTg1IDIuNjQ1ODMzMywyLjY0NTgzMzMgMCAwIDAgMC4xNzQxNDksLTAuMjE1NDkgMi42NDU4MzMzLDIuNjQ1ODMzMyAwIDAgMCAwLjE1MDg5NiwtMC4yMzIwMyAyLjY0NTgzMzMsMi42NDU4MzMzIDAgMCAwIDAuMTI1NTczLC0wLjI0NzAxIDIuNjQ1ODMzMywyLjY0NTgzMzMgMCAwIDAgMC4wOTkyMiwtMC4yNTgzOSAyLjY0NTgzMzMsMi42NDU4MzMzIDAgMCAwIDAuMDcxODMsLTAuMjY3MTYgMi42NDU4MzMzLDIuNjQ1ODMzMyAwIDAgMCAwLjA0MzQxLC0wLjI3Mzg5IDIuNjQ1ODMzMywyLjY0NTgzMzMgMCAwIDAgMC4wMTQ0NywtMC4yNzY0NyAyLjY0NTgzMzMsMi42NDU4MzMzIDAgMCAwIC0wLjAxNDQ3LC0wLjI3NjQ3IDIuNjQ1ODMzMywyLjY0NTgzMzMgMCAwIDAgLTAuMDQyODksLTAuMjcxMyAyLjY0NTgzMzMsMi42NDU4MzMzIDAgMCAwIC0wLjAwMTYsLTAuMDA2IDIuNjQ1ODMzMywyLjY0NTgzMzMgMCAwIDAgLTAuMDcwOCwtMC4yNjQwNyAyLjY0NTgzMzMsMi42NDU4MzMzIDAgMCAwIC0wLjA5OTIyLC0wLjI1ODM4IDIuNjQ1ODMzMywyLjY0NTgzMzMgMCAwIDAgLTAuMTI1NTczLC0wLjI0NzAxIDIuNjQ1ODMzMywyLjY0NTgzMzMgMCAwIDAgLTAuMTUwODk2LC0wLjIzMjAzIDIuNjQ1ODMzMywyLjY0NTgzMzMgMCAwIDAgLTAuMTc0MTQ5LC0wLjIxNTQ5IDIuNjQ1ODMzMywyLjY0NTgzMzMgMCAwIDAgLTAuMTk1ODU0LC0wLjE5NTg1IDIuNjQ1ODMzMywyLjY0NTgzMzMgMCAwIDAgLTAuMjE1NDksLTAuMTc0MTUgMi42NDU4MzMzLDIuNjQ1ODMzMyAwIDAgMCAtMC4yMzIwMjgsLTAuMTUwOSB2IC0zLjM1NDgzIEEgMi42NDU4MzMzLDIuNjQ1ODMzMyAwIDAgMCA0Ny42MjUsOTcuODk1ODMzIDIuNjQ1ODMzMywyLjY0NTgzMzMgMCAwIDAgNDQuOTc5MTY3LDk1LjI1IFoiIHN0eWxlPSJmaWxsOiNmZmZmZmY7c3Ryb2tlOiMwMDAwMDA7c3Ryb2tlLXdpZHRoOjIuNjQ1ODM7c3Ryb2tlLWxpbmVjYXA6cm91bmQ7c3Ryb2tlLW1pdGVybGltaXQ6NDtzdHJva2UtZGFzaGFycmF5Om5vbmU7cGFpbnQtb3JkZXI6c3Ryb2tlIG1hcmtlcnMgZmlsbDtzdG9wLWNvbG9yOiMwMDAwMDAiIGlkPSJwYXRoMzQ0Ny02LTI1LTMiLz4mI3hhOyAgICA8L2c+JiN4YTsgIDwvZz4mI3hhOzwvc3ZnPg==;points=[[0.1,0.5,0,0,0],[0.5,0,0,0,0],[0.5,1,0,0,0],[0.9,0.5,0,0,0]];" vertex="1" parent="copLugqQvAR0kvUUau8e-4">
          <mxGeometry x="545" y="876" width="30" height="90" as="geometry" />
        </mxCell>
        <mxCell id="copLugqQvAR0kvUUau8e-119" value="" style="shape=image;verticalLabelPosition=bottom;verticalAlign=top;imageAspect=0;aspect=0;image=data:image/svg+xml,PHN2ZyB4bWxucz0iaHR0cDovL3d3dy53My5vcmcvMjAwMC9zdmciIGlkPSJzdmc3MzYyIiB2ZXJzaW9uPSIxLjEiIHZpZXdCb3g9IjAgMCA2LjYxNTEwMDkgNy45Mzc1IiBoZWlnaHQ9IjcuOTM3NW1tIiB3aWR0aD0iNi42MTUxMDA5bW0iPiYjeGE7ICAmI3hhOyAgICAmI3hhOyAgJiN4YTsgIDxkZWZzIGlkPSJkZWZzNzM1OSIvPiYjeGE7ICA8ZyB0cmFuc2Zvcm09InRyYW5zbGF0ZSgtNjAuODUzNjUxLC01Mi45MTYxNDgpIiBpZD0ibGF5ZXI5Ij4mI3hhOyAgICA8cGF0aCBkPSJtIDYwLjg1MzY1LDUyLjkxNjE1IHYgNy45Mzc1IEggNjMuNSBMIDY3LjQ2ODc1LDU2Ljg4NTQxNyA2My41LDUyLjkxNjY2NyB2IC01LjE3ZS00IHoiIHN0eWxlPSJjb2xvcjojMDAwMDAwO2ZpbGw6IzAwMDAwMCIgaWQ9InBhdGgyNTAwLTUtMjItMiIvPiYjeGE7ICA8L2c+JiN4YTs8L3N2Zz4=;points=[[0,0.5,0,0,0],[0.78,0.5,0,0,0],[1,0.5,0,0,0]];" vertex="1" parent="copLugqQvAR0kvUUau8e-4">
          <mxGeometry x="130" y="891" width="30" height="30" as="geometry" />
        </mxCell>
        <mxCell id="copLugqQvAR0kvUUau8e-120" value="" style="shape=image;verticalLabelPosition=bottom;verticalAlign=top;imageAspect=0;aspect=0;image=data:image/svg+xml,PHN2ZyB4bWxucz0iaHR0cDovL3d3dy53My5vcmcvMjAwMC9zdmciIGlkPSJzdmc3MzYyIiB2ZXJzaW9uPSIxLjEiIHZpZXdCb3g9IjAgMCA2LjYxNTEwMDkgNy45Mzc1IiBoZWlnaHQ9IjcuOTM3NW1tIiB3aWR0aD0iNi42MTUxMDA5bW0iPiYjeGE7ICAmI3hhOyAgICAmI3hhOyAgJiN4YTsgIDxkZWZzIGlkPSJkZWZzNzM1OSIvPiYjeGE7ICA8ZyB0cmFuc2Zvcm09InRyYW5zbGF0ZSgtNjAuODUzNjUxLC01Mi45MTYxNDgpIiBpZD0ibGF5ZXI5Ij4mI3hhOyAgICA8cGF0aCBkPSJtIDYwLjg1MzY1LDUyLjkxNjE1IHYgNy45Mzc1IEggNjMuNSBMIDY3LjQ2ODc1LDU2Ljg4NTQxNyA2My41LDUyLjkxNjY2NyB2IC01LjE3ZS00IHoiIHN0eWxlPSJjb2xvcjojMDAwMDAwO2ZpbGw6IzAwMDAwMCIgaWQ9InBhdGgyNTAwLTUtMjItMiIvPiYjeGE7ICA8L2c+JiN4YTs8L3N2Zz4=;points=[[0,0.5,0,0,0],[0.78,0.5,0,0,0],[1,0.5,0,0,0]];" vertex="1" parent="copLugqQvAR0kvUUau8e-4">
          <mxGeometry x="120" y="776" width="30" height="30" as="geometry" />
        </mxCell>
        <mxCell id="copLugqQvAR0kvUUau8e-121" value="" style="shape=image;verticalLabelPosition=bottom;verticalAlign=top;imageAspect=0;aspect=0;image=data:image/svg+xml,PHN2ZyB4bWxucz0iaHR0cDovL3d3dy53My5vcmcvMjAwMC9zdmciIGlkPSJzdmc3MzYyIiB2ZXJzaW9uPSIxLjEiIHZpZXdCb3g9IjAgMCA2LjYxNTEwMDkgNy45Mzc1IiBoZWlnaHQ9IjcuOTM3NW1tIiB3aWR0aD0iNi42MTUxMDA5bW0iPiYjeGE7ICAmI3hhOyAgICAmI3hhOyAgJiN4YTsgIDxkZWZzIGlkPSJkZWZzNzM1OSIvPiYjeGE7ICA8ZyB0cmFuc2Zvcm09InRyYW5zbGF0ZSgtNjAuODUzNjUxLC01Mi45MTYxNDgpIiBpZD0ibGF5ZXI5Ij4mI3hhOyAgICA8cGF0aCBkPSJtIDYwLjg1MzY1LDUyLjkxNjE1IHYgNy45Mzc1IEggNjMuNSBMIDY3LjQ2ODc1LDU2Ljg4NTQxNyA2My41LDUyLjkxNjY2NyB2IC01LjE3ZS00IHoiIHN0eWxlPSJjb2xvcjojMDAwMDAwO2ZpbGw6IzAwMDAwMCIgaWQ9InBhdGgyNTAwLTUtMjItMiIvPiYjeGE7ICA8L2c+JiN4YTs8L3N2Zz4=;points=[[0,0.5,0,0,0],[0.78,0.5,0,0,0],[1,0.5,0,0,0]];" vertex="1" parent="copLugqQvAR0kvUUau8e-4">
          <mxGeometry x="110" y="676" width="30" height="30" as="geometry" />
        </mxCell>
        <mxCell id="copLugqQvAR0kvUUau8e-122" value="" style="shape=image;verticalLabelPosition=bottom;verticalAlign=top;imageAspect=0;aspect=0;image=data:image/svg+xml,PHN2ZyB4bWxucz0iaHR0cDovL3d3dy53My5vcmcvMjAwMC9zdmciIGlkPSJzdmc3MzYyIiB2ZXJzaW9uPSIxLjEiIHZpZXdCb3g9IjAgMCA2LjYxNTEwMDkgNy45Mzc1IiBoZWlnaHQ9IjcuOTM3NW1tIiB3aWR0aD0iNi42MTUxMDA5bW0iPiYjeGE7ICAmI3hhOyAgICAmI3hhOyAgJiN4YTsgIDxkZWZzIGlkPSJkZWZzNzM1OSIvPiYjeGE7ICA8ZyB0cmFuc2Zvcm09InRyYW5zbGF0ZSgtNjAuODUzNjUxLC01Mi45MTYxNDgpIiBpZD0ibGF5ZXI5Ij4mI3hhOyAgICA8cGF0aCBkPSJtIDYwLjg1MzY1LDUyLjkxNjE1IHYgNy45Mzc1IEggNjMuNSBMIDY3LjQ2ODc1LDU2Ljg4NTQxNyA2My41LDUyLjkxNjY2NyB2IC01LjE3ZS00IHoiIHN0eWxlPSJjb2xvcjojMDAwMDAwO2ZpbGw6IzAwMDAwMCIgaWQ9InBhdGgyNTAwLTUtMjItMiIvPiYjeGE7ICA8L2c+JiN4YTs8L3N2Zz4=;points=[[0,0.5,0,0,0],[0.78,0.5,0,0,0],[1,0.5,0,0,0]];rotation=90;" vertex="1" parent="copLugqQvAR0kvUUau8e-4">
          <mxGeometry x="470" y="666" width="30" height="30" as="geometry" />
        </mxCell>
        <mxCell id="copLugqQvAR0kvUUau8e-123" value="" style="shape=stencil(nVTbcoMgEP0aH8PAIrfHjm3/wyakMjXooLn9fSHgNBiTacL44tnds2cvUNBqaOpeF4DrodfrsaDvBcChdqb+aj0M3tJEkCIGQgilInqMKEgE4ZCIDqPrfvTRbMYUZWyjnRmDlX4U+M37hI9W685an9B0dsgsV3ZPVhvrY/EpkuGY5Bz/Usre8+/0qF2GFvD5b1qS0eJnaGnlkXul0GrbOf3tur3dLIrZmraNHXuguK9DL28Mk3nXHfRfKSUCDJJLqldYZGXNxrecbSJtjb0iZQgU4Zyz1wnXexdlkhgskSSqZDBRkkXOE6TmY8Qk9Sd5w7I3Td4lIuEk+DzBSHAqpeSv6CUChWAFud4VQaHTfCZXoRKDkGUud+acZAEgRTFjIlebOz8zrelG0mxaGOHHF8PjdzbNvxH3dvQSdrPkFzS+KxfgFw==);whiteSpace=wrap;html=1;strokeWidth=10;fillColor=none;gradientColor=default;strokeColor=#eb7aebff;" vertex="1" parent="copLugqQvAR0kvUUau8e-4">
          <mxGeometry x="570" y="615" width="80" height="10" as="geometry" />
        </mxCell>
        <mxCell id="copLugqQvAR0kvUUau8e-124" value="" style="shape=stencil(nVTbcoMgEP0aH8PAIrfHjm3/wyakMjXooLn9fSHgNBiTacL44tnds2cvUNBqaOpeF4DrodfrsaDvBcChdqb+aj0M3tJEkCIGQgilInqMKEgE4ZCIDqPrfvTRbMYUZWyjnRmDlX4U+M37hI9W685an9B0dsgsV3ZPVhvrY/EpkuGY5Bz/Usre8+/0qF2GFvD5b1qS0eJnaGnlkXul0GrbOf3tur3dLIrZmraNHXuguK9DL28Mk3nXHfRfKSUCDJJLqldYZGXNxrecbSJtjb0iZQgU4Zyz1wnXexdlkhgskSSqZDBRkkXOE6TmY8Qk9Sd5w7I3Td4lIuEk+DzBSHAqpeSv6CUChWAFud4VQaHTfCZXoRKDkGUud+acZAEgRTFjIlebOz8zrelG0mxaGOHHF8PjdzbNvxH3dvQSdrPkFzS+KxfgFw==);whiteSpace=wrap;html=1;strokeWidth=10;fillColor=none;gradientColor=default;strokeColor=#eb7aebff;flipV=1;" vertex="1" parent="copLugqQvAR0kvUUau8e-4">
          <mxGeometry x="570" y="595" width="80" height="10" as="geometry" />
        </mxCell>
        <mxCell id="copLugqQvAR0kvUUau8e-125" value="" style="shape=image;verticalLabelPosition=bottom;verticalAlign=top;imageAspect=0;aspect=fixed;image=data:image/svg+xml,PHN2ZyB4bWxucz0iaHR0cDovL3d3dy53My5vcmcvMjAwMC9zdmciIGlkPSJzdmc3MzYyIiB2ZXJzaW9uPSIxLjEiIHZpZXdCb3g9IjAgMCA3LjkzNzQ5NjIgMTUuODc1IiBoZWlnaHQ9IjE1Ljg3NW1tIiB3aWR0aD0iNy45Mzc0OTYybW0iPiYjeGE7ICAmI3hhOyAgICAmI3hhOyAgJiN4YTsgIDxkZWZzIGlkPSJkZWZzNzM1OSIvPiYjeGE7ICA8ZyB0cmFuc2Zvcm09InRyYW5zbGF0ZSgtMjIuNDg5NTg2LC05My45MjcwODMpIiBpZD0ibGF5ZXI1Ij4mI3hhOyAgICA8ZyBpZD0ibGF5ZXI4Ij4mI3hhOyAgICAgIDxwYXRoIGQ9Im0gMjYuNDU4MzMzLDk1LjI1IGEgMi42NDU4MzMzLDIuNjQ1ODMzMyAwIDAgMCAtMi42NDU4MzMsMi42NDU4MzMgMi42NDU4MzMzLDIuNjQ1ODMzMyAwIDAgMCAxLjMyMjkxNywyLjI5MTMzNyB2IDMuMzU0ODMgYSAyLjY0NTgzMzMsMi42NDU4MzMzIDAgMCAwIC0xLjMyMjkxNywyLjI5MTMzIDIuNjQ1ODMzMywyLjY0NTgzMzMgMCAwIDAgMi42NDU4MzMsMi42NDU4NCAyLjY0NTgzMzMsMi42NDU4MzMzIDAgMCAwIDIuNjQ1ODM0LC0yLjY0NTg0IDIuNjQ1ODMzMywyLjY0NTgzMzMgMCAwIDAgLTEuMzIyOTE3LC0yLjI5MTMzIHYgLTMuMzU0ODMgQSAyLjY0NTgzMzMsMi42NDU4MzMzIDAgMCAwIDI5LjEwNDE2Nyw5Ny44OTU4MzMgMi42NDU4MzMzLDIuNjQ1ODMzMyAwIDAgMCAyNi40NTgzMzMsOTUuMjUgWiIgc3R5bGU9ImZpbGw6I2ZmZmZmZjtzdHJva2U6IzAwMDAwMDtzdHJva2Utd2lkdGg6Mi42NDU4MztzdHJva2UtbGluZWNhcDpyb3VuZDtzdHJva2UtbWl0ZXJsaW1pdDo0O3N0cm9rZS1kYXNoYXJyYXk6bm9uZTtwYWludC1vcmRlcjpzdHJva2UgbWFya2VycyBmaWxsO3N0b3AtY29sb3I6IzAwMDAwMCIgaWQ9InBhdGgzNDQ3LTYtMjUiLz4mI3hhOyAgICA8L2c+JiN4YTsgIDwvZz4mI3hhOzwvc3ZnPg==;points=[[0.1,0.25,0,0,0],[0.1,0.75,0,0,0],[0.5,0,0,0,0],[0.5,1,0,0,0],[0.9,0.25,0,0,0],[0.9,0.75,0,0,0]];" vertex="1" parent="copLugqQvAR0kvUUau8e-4">
          <mxGeometry x="545" y="580" width="30" height="60" as="geometry" />
        </mxCell>
        <mxCell id="copLugqQvAR0kvUUau8e-126" value="" style="shape=image;verticalLabelPosition=bottom;verticalAlign=top;imageAspect=0;aspect=fixed;image=data:image/svg+xml,PHN2ZyB4bWxucz0iaHR0cDovL3d3dy53My5vcmcvMjAwMC9zdmciIGlkPSJzdmc3MzYyIiB2ZXJzaW9uPSIxLjEiIHZpZXdCb3g9IjAgMCA3LjkzNzQ5ODEgNy45Mzc1IiBoZWlnaHQ9IjcuOTM3NW1tIiB3aWR0aD0iNy45Mzc0OTgxbW0iPiYjeGE7ICAmI3hhOyAgICAmI3hhOyAgJiN4YTsgIDxkZWZzIGlkPSJkZWZzNzM1OSIvPiYjeGE7ICA8ZyB0cmFuc2Zvcm09InRyYW5zbGF0ZSgtMy45ODk0Mjk4LC02Mi4xNzcwODQpIiBpZD0ibGF5ZXI1Ij4mI3hhOyAgICA8ZyBpZD0ibGF5ZXI3Ij4mI3hhOyAgICAgIDxyZWN0IHJ5PSIwLjc5Mzc0ODc0IiB5PSI2My41IiB4PSI1LjMxMjM0NDYiIGhlaWdodD0iNS4yOTE2NjU2IiB3aWR0aD0iNS4yOTE2Njc5IiBpZD0icmVjdDkxOC05LTciIHN0eWxlPSJmaWxsOiNmZmZmZmY7c3Ryb2tlOiMwMDAwMDA7c3Ryb2tlLXdpZHRoOjIuNjQ1ODM7c3Ryb2tlLWxpbmVjYXA6cm91bmQ7cGFpbnQtb3JkZXI6c3Ryb2tlIG1hcmtlcnMgZmlsbDtzdG9wLWNvbG9yOiMwMDAwMDAiLz4mI3hhOyAgICA8L2c+JiN4YTsgIDwvZz4mI3hhOzwvc3ZnPg==" vertex="1" parent="copLugqQvAR0kvUUau8e-4">
          <mxGeometry x="640" y="595" width="30" height="30" as="geometry" />
        </mxCell>
        <mxCell id="copLugqQvAR0kvUUau8e-127" value="" style="endArrow=none;html=1;rounded=1;strokeWidth=10;strokeColor=#24b064;" edge="1" parent="copLugqQvAR0kvUUau8e-4">
          <mxGeometry width="50" height="50" relative="1" as="geometry">
            <mxPoint x="670" y="610" as="sourcePoint" />
            <mxPoint x="750" y="610" as="targetPoint" />
          </mxGeometry>
        </mxCell>
        <mxCell id="copLugqQvAR0kvUUau8e-128" value="" style="shape=image;verticalLabelPosition=bottom;verticalAlign=top;imageAspect=0;aspect=fixed;image=data:image/svg+xml,PHN2ZyB4bWxucz0iaHR0cDovL3d3dy53My5vcmcvMjAwMC9zdmciIGlkPSJzdmc3MzYyIiB2ZXJzaW9uPSIxLjEiIHZpZXdCb3g9IjAgMCA3LjkzNzQ5NjIgMjMuODEyNTA0IiBoZWlnaHQ9IjIzLjgxMjUwNG1tIiB3aWR0aD0iNy45Mzc0OTYybW0iPiYjeGE7ICAmI3hhOyAgICAmI3hhOyAgJiN4YTsgIDxkZWZzIGlkPSJkZWZzNzM1OSIvPiYjeGE7ICA8ZyB0cmFuc2Zvcm09InRyYW5zbGF0ZSgtNDEuMDMxMDk1LC02Mi4xNzcwOCkiIGlkPSJsYXllcjUiPiYjeGE7ICAgIDxnIGlkPSJsYXllcjciPiYjeGE7ICAgICAgPHJlY3Qgcnk9IjAuODQ2NjY1NDQiIHk9IjYzLjQ5OTk5NiIgeD0iNDIuMzU0MDEyIiBoZWlnaHQ9IjIxLjE2NjY3IiB3aWR0aD0iNS4yOTE2NjY1IiBpZD0icmVjdDkxOC04LTIiIHN0eWxlPSJmaWxsOiNmZmZmZmY7c3Ryb2tlOiMwMDAwMDA7c3Ryb2tlLXdpZHRoOjIuNjQ1ODM7c3Ryb2tlLWxpbmVjYXA6cm91bmQ7cGFpbnQtb3JkZXI6c3Ryb2tlIG1hcmtlcnMgZmlsbDtzdG9wLWNvbG9yOiMwMDAwMDAiLz4mI3hhOyAgICA8L2c+JiN4YTsgIDwvZz4mI3hhOzwvc3ZnPg==;rotation=90;" vertex="1" parent="copLugqQvAR0kvUUau8e-4">
          <mxGeometry x="275" y="861" width="30" height="90" as="geometry" />
        </mxCell>
        <mxCell id="copLugqQvAR0kvUUau8e-129" value="" style="endArrow=none;html=1;rounded=1;strokeWidth=10;strokeColor=#24b064;exitX=1;exitY=0;exitDx=0;exitDy=0;" edge="1" parent="copLugqQvAR0kvUUau8e-4" source="copLugqQvAR0kvUUau8e-106">
          <mxGeometry width="50" height="50" relative="1" as="geometry">
            <mxPoint x="435" y="866" as="sourcePoint" />
            <mxPoint x="475" y="866" as="targetPoint" />
          </mxGeometry>
        </mxCell>
        <mxCell id="copLugqQvAR0kvUUau8e-131" value="" style="endArrow=none;html=1;rounded=1;strokeWidth=10;strokeColor=#24b064;" edge="1" parent="copLugqQvAR0kvUUau8e-4">
          <mxGeometry width="50" height="50" relative="1" as="geometry">
            <mxPoint x="20" y="1095" as="sourcePoint" />
            <mxPoint x="140" y="1095" as="targetPoint" />
          </mxGeometry>
        </mxCell>
        <mxCell id="copLugqQvAR0kvUUau8e-132" value="" style="endArrow=none;html=1;rounded=1;strokeWidth=10;strokeColor=#24b064;" edge="1" parent="copLugqQvAR0kvUUau8e-4">
          <mxGeometry width="50" height="50" relative="1" as="geometry">
            <mxPoint x="20" y="1065" as="sourcePoint" />
            <mxPoint x="140" y="1065" as="targetPoint" />
          </mxGeometry>
        </mxCell>
        <mxCell id="copLugqQvAR0kvUUau8e-133" value="" style="endArrow=none;html=1;rounded=1;strokeWidth=10;strokeColor=#3d95fd;" edge="1" parent="copLugqQvAR0kvUUau8e-4">
          <mxGeometry width="50" height="50" relative="1" as="geometry">
            <mxPoint x="20" y="1105" as="sourcePoint" />
            <mxPoint x="140" y="1105" as="targetPoint" />
          </mxGeometry>
        </mxCell>
        <mxCell id="copLugqQvAR0kvUUau8e-134" value="" style="endArrow=none;html=1;rounded=1;strokeWidth=10;strokeColor=#24b064;" edge="1" parent="copLugqQvAR0kvUUau8e-4">
          <mxGeometry width="50" height="50" relative="1" as="geometry">
            <mxPoint x="20" y="1135" as="sourcePoint" />
            <mxPoint x="140" y="1135" as="targetPoint" />
          </mxGeometry>
        </mxCell>
        <mxCell id="copLugqQvAR0kvUUau8e-135" value="" style="endArrow=none;html=1;rounded=1;strokeWidth=10;strokeColor=#3d95fd;" edge="1" parent="copLugqQvAR0kvUUau8e-4">
          <mxGeometry width="50" height="50" relative="1" as="geometry">
            <mxPoint x="20" y="1145" as="sourcePoint" />
            <mxPoint x="140" y="1145" as="targetPoint" />
          </mxGeometry>
        </mxCell>
        <mxCell id="copLugqQvAR0kvUUau8e-136" value="" style="endArrow=none;html=1;rounded=1;strokeWidth=10;strokeColor=#f18046;" edge="1" parent="copLugqQvAR0kvUUau8e-4">
          <mxGeometry width="50" height="50" relative="1" as="geometry">
            <mxPoint x="20" y="1155" as="sourcePoint" />
            <mxPoint x="140" y="1155" as="targetPoint" />
          </mxGeometry>
        </mxCell>
        <mxCell id="copLugqQvAR0kvUUau8e-137" value="" style="shape=image;verticalLabelPosition=bottom;verticalAlign=top;imageAspect=0;aspect=fixed;image=data:image/svg+xml,PHN2ZyB4bWxucz0iaHR0cDovL3d3dy53My5vcmcvMjAwMC9zdmciIGlkPSJzdmc3MzYyIiB2ZXJzaW9uPSIxLjEiIHZpZXdCb3g9IjAgMCA3LjkzNzQ5NjcgNy45Mzc0OTYyIiBoZWlnaHQ9IjcuOTM3NDk2Mm1tIiB3aWR0aD0iNy45Mzc0OTY3bW0iPiYjeGE7ICAmI3hhOyAgICAmI3hhOyAgJiN4YTsgIDxkZWZzIGlkPSJkZWZzNzM1OSIvPiYjeGE7ICA8ZyB0cmFuc2Zvcm09InRyYW5zbGF0ZSgtMy45ODk0MzAzLC0zMy4wNzI5MjEpIiBpZD0ibGF5ZXI1Ij4mI3hhOyAgICA8ZyBpZD0ibGF5ZXI2Ij4mI3hhOyAgICAgIDxjaXJjbGUgcj0iMi42NDU4MzMzIiBjeT0iMzcuMDQxNjY4IiBjeD0iNy45NTgxNzg1IiBpZD0icGF0aDM0NDciIHN0eWxlPSJmaWxsOiNmZmZmZmY7c3Ryb2tlOiMwMDAwMDA7c3Ryb2tlLXdpZHRoOjIuNjQ1ODM7c3Ryb2tlLWxpbmVjYXA6cm91bmQ7c3Ryb2tlLW1pdGVybGltaXQ6NDtzdHJva2UtZGFzaGFycmF5Om5vbmU7cGFpbnQtb3JkZXI6c3Ryb2tlIG1hcmtlcnMgZmlsbDtzdG9wLWNvbG9yOiMwMDAwMDAiLz4mI3hhOyAgICA8L2c+JiN4YTsgIDwvZz4mI3hhOzwvc3ZnPg==" vertex="1" parent="copLugqQvAR0kvUUau8e-4">
          <mxGeometry x="65" y="1050" width="30" height="30" as="geometry" />
        </mxCell>
        <mxCell id="copLugqQvAR0kvUUau8e-138" value="" style="shape=image;verticalLabelPosition=bottom;verticalAlign=top;imageAspect=0;aspect=fixed;image=data:image/svg+xml,PHN2ZyB4bWxucz0iaHR0cDovL3d3dy53My5vcmcvMjAwMC9zdmciIGlkPSJzdmc3MzYyIiB2ZXJzaW9uPSIxLjEiIHZpZXdCb3g9IjAgMCA3LjkzNzQ5NjcgNy45Mzc0OTYyIiBoZWlnaHQ9IjcuOTM3NDk2Mm1tIiB3aWR0aD0iNy45Mzc0OTY3bW0iPiYjeGE7ICAmI3hhOyAgICAmI3hhOyAgJiN4YTsgIDxkZWZzIGlkPSJkZWZzNzM1OSIvPiYjeGE7ICA8ZyB0cmFuc2Zvcm09InRyYW5zbGF0ZSgtMy45ODk0MzAzLC0zMy4wNzI5MjEpIiBpZD0ibGF5ZXI1Ij4mI3hhOyAgICA8ZyBpZD0ibGF5ZXI2Ij4mI3hhOyAgICAgIDxjaXJjbGUgcj0iMi42NDU4MzMzIiBjeT0iMzcuMDQxNjY4IiBjeD0iNy45NTgxNzg1IiBpZD0icGF0aDM0NDciIHN0eWxlPSJmaWxsOiNmZmZmZmY7c3Ryb2tlOiMwMDAwMDA7c3Ryb2tlLXdpZHRoOjIuNjQ1ODM7c3Ryb2tlLWxpbmVjYXA6cm91bmQ7c3Ryb2tlLW1pdGVybGltaXQ6NDtzdHJva2UtZGFzaGFycmF5Om5vbmU7cGFpbnQtb3JkZXI6c3Ryb2tlIG1hcmtlcnMgZmlsbDtzdG9wLWNvbG9yOiMwMDAwMDAiLz4mI3hhOyAgICA8L2c+JiN4YTsgIDwvZz4mI3hhOzwvc3ZnPg==" vertex="1" parent="copLugqQvAR0kvUUau8e-4">
          <mxGeometry x="65" y="1085" width="30" height="30" as="geometry" />
        </mxCell>
        <mxCell id="copLugqQvAR0kvUUau8e-139" value="" style="shape=image;verticalLabelPosition=bottom;verticalAlign=top;imageAspect=0;aspect=fixed;image=data:image/svg+xml,PHN2ZyB4bWxucz0iaHR0cDovL3d3dy53My5vcmcvMjAwMC9zdmciIGlkPSJzdmc3MzYyIiB2ZXJzaW9uPSIxLjEiIHZpZXdCb3g9IjAgMCA3LjkzNzQ5NjcgNy45Mzc0OTYyIiBoZWlnaHQ9IjcuOTM3NDk2Mm1tIiB3aWR0aD0iNy45Mzc0OTY3bW0iPiYjeGE7ICAmI3hhOyAgICAmI3hhOyAgJiN4YTsgIDxkZWZzIGlkPSJkZWZzNzM1OSIvPiYjeGE7ICA8ZyB0cmFuc2Zvcm09InRyYW5zbGF0ZSgtMy45ODk0MzAzLC0zMy4wNzI5MjEpIiBpZD0ibGF5ZXI1Ij4mI3hhOyAgICA8ZyBpZD0ibGF5ZXI2Ij4mI3hhOyAgICAgIDxjaXJjbGUgcj0iMi42NDU4MzMzIiBjeT0iMzcuMDQxNjY4IiBjeD0iNy45NTgxNzg1IiBpZD0icGF0aDM0NDciIHN0eWxlPSJmaWxsOiNmZmZmZmY7c3Ryb2tlOiMwMDAwMDA7c3Ryb2tlLXdpZHRoOjIuNjQ1ODM7c3Ryb2tlLWxpbmVjYXA6cm91bmQ7c3Ryb2tlLW1pdGVybGltaXQ6NDtzdHJva2UtZGFzaGFycmF5Om5vbmU7cGFpbnQtb3JkZXI6c3Ryb2tlIG1hcmtlcnMgZmlsbDtzdG9wLWNvbG9yOiMwMDAwMDAiLz4mI3hhOyAgICA8L2c+JiN4YTsgIDwvZz4mI3hhOzwvc3ZnPg==" vertex="1" parent="copLugqQvAR0kvUUau8e-4">
          <mxGeometry x="65" y="1130" width="30" height="30" as="geometry" />
        </mxCell>
        <mxCell id="copLugqQvAR0kvUUau8e-3" value="Reference" parent="0" />
        <mxCell id="copLugqQvAR0kvUUau8e-45" value="" style="rounded=0;whiteSpace=wrap;html=1;fontFamily=Helvetica;fontSize=11;fontColor=default;fillColor=none;strokeColor=#A6A6A6;" vertex="1" parent="copLugqQvAR0kvUUau8e-3">
          <mxGeometry x="300" y="300" width="160" height="160" as="geometry" />
        </mxCell>
        <mxCell id="copLugqQvAR0kvUUau8e-46" value="" style="rounded=0;whiteSpace=wrap;html=1;fontFamily=Helvetica;fontSize=11;fontColor=default;fillColor=none;strokeColor=#a6a6a6;" vertex="1" parent="copLugqQvAR0kvUUau8e-3">
          <mxGeometry x="300" y="300" width="80" height="80" as="geometry" />
        </mxCell>
        <mxCell id="copLugqQvAR0kvUUau8e-47" value="" style="rounded=0;whiteSpace=wrap;html=1;fontFamily=Helvetica;fontSize=11;fontColor=default;fillColor=none;strokeColor=#a6a6a6;" vertex="1" parent="copLugqQvAR0kvUUau8e-3">
          <mxGeometry x="300" y="300" width="40" height="40" as="geometry" />
        </mxCell>
        <mxCell id="copLugqQvAR0kvUUau8e-48" value="" style="endArrow=none;html=1;rounded=0;strokeWidth=10;strokeColor=#f18046;labelBackgroundColor=default;fontFamily=Helvetica;fontSize=11;fontColor=default;shape=connector;exitX=1;exitY=1;exitDx=0;exitDy=0;" edge="1" parent="copLugqQvAR0kvUUau8e-3" source="copLugqQvAR0kvUUau8e-67">
          <mxGeometry width="50" height="50" relative="1" as="geometry">
            <mxPoint x="400" y="394.82" as="sourcePoint" />
            <mxPoint x="460" y="420" as="targetPoint" />
          </mxGeometry>
        </mxCell>
        <mxCell id="copLugqQvAR0kvUUau8e-49" style="edgeStyle=none;shape=connector;rounded=0;orthogonalLoop=1;jettySize=auto;html=1;exitX=1;exitY=1;exitDx=0;exitDy=0;exitPerimeter=0;labelBackgroundColor=default;strokeColor=#3d95fd;strokeWidth=10;fontFamily=Helvetica;fontSize=11;fontColor=default;endArrow=none;endFill=0;" edge="1" parent="copLugqQvAR0kvUUau8e-3" source="copLugqQvAR0kvUUau8e-66">
          <mxGeometry relative="1" as="geometry">
            <mxPoint x="455" y="460" as="targetPoint" />
          </mxGeometry>
        </mxCell>
        <mxCell id="copLugqQvAR0kvUUau8e-50" value="" style="endArrow=none;html=1;rounded=0;labelBackgroundColor=default;strokeColor=#A6A6A6;strokeWidth=1;fontFamily=Helvetica;fontSize=11;fontColor=default;shape=connector;" edge="1" parent="copLugqQvAR0kvUUau8e-3">
          <mxGeometry width="50" height="50" relative="1" as="geometry">
            <mxPoint x="300" y="449.93" as="sourcePoint" />
            <mxPoint x="390" y="450" as="targetPoint" />
          </mxGeometry>
        </mxCell>
        <mxCell id="copLugqQvAR0kvUUau8e-51" value="" style="endArrow=none;html=1;rounded=0;labelBackgroundColor=default;strokeColor=#A6A6A6;strokeWidth=1;fontFamily=Helvetica;fontSize=11;fontColor=default;shape=connector;" edge="1" parent="copLugqQvAR0kvUUau8e-3">
          <mxGeometry width="50" height="50" relative="1" as="geometry">
            <mxPoint x="300" y="440" as="sourcePoint" />
            <mxPoint x="390" y="440.07" as="targetPoint" />
          </mxGeometry>
        </mxCell>
        <mxCell id="copLugqQvAR0kvUUau8e-52" value="" style="endArrow=none;html=1;rounded=0;labelBackgroundColor=default;strokeColor=#A6A6A6;strokeWidth=1;fontFamily=Helvetica;fontSize=11;fontColor=default;shape=connector;" edge="1" parent="copLugqQvAR0kvUUau8e-3">
          <mxGeometry width="50" height="50" relative="1" as="geometry">
            <mxPoint x="300" y="430" as="sourcePoint" />
            <mxPoint x="390" y="430.07" as="targetPoint" />
          </mxGeometry>
        </mxCell>
        <mxCell id="copLugqQvAR0kvUUau8e-53" value="" style="endArrow=none;html=1;rounded=0;labelBackgroundColor=default;strokeColor=#A6A6A6;strokeWidth=1;fontFamily=Helvetica;fontSize=11;fontColor=default;shape=connector;" edge="1" parent="copLugqQvAR0kvUUau8e-3">
          <mxGeometry width="50" height="50" relative="1" as="geometry">
            <mxPoint x="300" y="419.93" as="sourcePoint" />
            <mxPoint x="390" y="420" as="targetPoint" />
          </mxGeometry>
        </mxCell>
        <mxCell id="copLugqQvAR0kvUUau8e-54" value="" style="endArrow=none;html=1;rounded=0;labelBackgroundColor=default;strokeColor=#A6A6A6;strokeWidth=1;fontFamily=Helvetica;fontSize=11;fontColor=default;shape=connector;" edge="1" parent="copLugqQvAR0kvUUau8e-3">
          <mxGeometry width="50" height="50" relative="1" as="geometry">
            <mxPoint x="300" y="410" as="sourcePoint" />
            <mxPoint x="390" y="410.07" as="targetPoint" />
          </mxGeometry>
        </mxCell>
        <mxCell id="copLugqQvAR0kvUUau8e-55" value="" style="endArrow=none;html=1;rounded=0;labelBackgroundColor=default;strokeColor=#A6A6A6;strokeWidth=1;fontFamily=Helvetica;fontSize=11;fontColor=default;shape=connector;" edge="1" parent="copLugqQvAR0kvUUau8e-3">
          <mxGeometry width="50" height="50" relative="1" as="geometry">
            <mxPoint x="300" y="390" as="sourcePoint" />
            <mxPoint x="390" y="390.07" as="targetPoint" />
          </mxGeometry>
        </mxCell>
        <mxCell id="copLugqQvAR0kvUUau8e-56" value="" style="endArrow=none;html=1;rounded=0;labelBackgroundColor=default;strokeColor=#A6A6A6;strokeWidth=1;fontFamily=Helvetica;fontSize=11;fontColor=default;shape=connector;" edge="1" parent="copLugqQvAR0kvUUau8e-3">
          <mxGeometry width="50" height="50" relative="1" as="geometry">
            <mxPoint x="300" y="400" as="sourcePoint" />
            <mxPoint x="390" y="400.07" as="targetPoint" />
          </mxGeometry>
        </mxCell>
        <mxCell id="copLugqQvAR0kvUUau8e-57" value="" style="endArrow=none;html=1;rounded=0;labelBackgroundColor=default;strokeColor=#A6A6A6;strokeWidth=1;fontFamily=Helvetica;fontSize=11;fontColor=default;shape=connector;" edge="1" parent="copLugqQvAR0kvUUau8e-3">
          <mxGeometry width="50" height="50" relative="1" as="geometry">
            <mxPoint x="300" y="379.86" as="sourcePoint" />
            <mxPoint x="460" y="380" as="targetPoint" />
          </mxGeometry>
        </mxCell>
        <mxCell id="copLugqQvAR0kvUUau8e-58" value="" style="endArrow=none;html=1;rounded=0;labelBackgroundColor=default;strokeColor=#A6A6A6;strokeWidth=1;fontFamily=Helvetica;fontSize=11;fontColor=default;shape=connector;" edge="1" parent="copLugqQvAR0kvUUau8e-3">
          <mxGeometry width="50" height="50" relative="1" as="geometry">
            <mxPoint x="300" y="360" as="sourcePoint" />
            <mxPoint x="460" y="360.14" as="targetPoint" />
          </mxGeometry>
        </mxCell>
        <mxCell id="copLugqQvAR0kvUUau8e-59" value="" style="shape=stencil(nVTbcoMgEP0aH8PAIrfHjm3/wyakMjXooLn9fSHgNBiTacL44tnds2cvUNBqaOpeF4DrodfrsaDvBcChdqb+aj0M3tJEkCIGQgilInqMKEgE4ZCIDqPrfvTRbMYUZWyjnRmDlX4U+M37hI9W685an9B0dsgsV3ZPVhvrY/EpkuGY5Bz/Usre8+/0qF2GFvD5b1qS0eJnaGnlkXul0GrbOf3tur3dLIrZmraNHXuguK9DL28Mk3nXHfRfKSUCDJJLqldYZGXNxrecbSJtjb0iZQgU4Zyz1wnXexdlkhgskSSqZDBRkkXOE6TmY8Qk9Sd5w7I3Td4lIuEk+DzBSHAqpeSv6CUChWAFud4VQaHTfCZXoRKDkGUud+acZAEgRTFjIlebOz8zrelG0mxaGOHHF8PjdzbNvxH3dvQSdrPkFzS+KxfgFw==);whiteSpace=wrap;html=1;strokeWidth=10;fillColor=none;gradientColor=default;strokeColor=#eb7aebff;fontFamily=Helvetica;fontSize=11;fontColor=default;" vertex="1" parent="copLugqQvAR0kvUUau8e-3">
          <mxGeometry x="300" y="445" width="80" height="10" as="geometry" />
        </mxCell>
        <mxCell id="copLugqQvAR0kvUUau8e-60" value="" style="shape=stencil(nVTbbsMgDP2aPBbZpgTyOGXbf2QtXdEyEpH0sr8fCaCVXra1CCnKOfHxsXEoeD1sm14XBM3Q69VY8OeCaN8407y1HibPbAMoGQi/kAJ6CCgpRtPCgA6j6z70wazHGGXsVjszTix/KeDJfzNtXq86a31C09khY054L9YY62PhGMQgJPkKbzFl7/U/9ahdhhb0+m9ZzGThHllee+RWKbzedE6/u25n11fNbEzbho794rhvpl5eEIn+7Pb6p5QFsZIrQoV6AWVW19n5XU+XVFtjT1SXTAL3mx4XXO1c8IkpuEQJ/hkl8armkWL3gQnFOakqrRgWecGUrEpKBo88hi0Z+kXyPCzynAmSUopHCkA5dboCzAtAhlJUlOBUAAGTJGApc98LYAAoZZn7noyhEshzu/7j+88u/qBYZWf3h9Q81jcGz18Zt0Z2DruY+RkN18wMfAM=);whiteSpace=wrap;html=1;strokeWidth=10;strokeColor=#ecdc86;fillColor=none;fontFamily=Helvetica;fontSize=11;fontColor=default;" vertex="1" parent="copLugqQvAR0kvUUau8e-3">
          <mxGeometry x="300" y="425" width="80" height="20" as="geometry" />
        </mxCell>
        <mxCell id="copLugqQvAR0kvUUau8e-61" value="" style="shape=stencil(nVRbcoMwDDwNn/HIEn7w2SHtPWjiNJ4Swxjyun0NhmncJG0Tj39YSavVA2dUdtuqNRlC1bVm1We0zBAPlbfVex1gDJZtBDkwoYkogscIomY4HB7RrvfNpznadT8FWbc13vaDlV4zeAk+w6Vy1TgX8tnGdYnlwh7IKutCLJwiGcQk50lP/GoD/870xidohm//puUJLTxCS2VA7pVC5abx5sM3e7e+KWZj6zp27BfFbTX08sowm3fNwXyXolkhc60LMgtQabeS6d1ONnPW1l1w5kwBKZDF03yrvY8ieYxVTHIFKKfgM79FecIUnZ1xrlTzIic1VXmiyTtnPBzCyXuCBcOCSymeUcuDXNIF5D/UMhVgVYhULgJTKEDwVO4CGISKpaBULxITXAuuUr3B+/FBzf8iJYP6g2rc4Ds7Fh6He9s5hl2t94jGB2UEvgA=);whiteSpace=wrap;html=1;strokeWidth=10;strokeColor=#3f2b29;fillColor=none;flipV=1;flipH=1;fontFamily=Helvetica;fontSize=11;fontColor=default;" vertex="1" parent="copLugqQvAR0kvUUau8e-3">
          <mxGeometry x="300" y="405" width="80" height="30" as="geometry" />
        </mxCell>
        <mxCell id="copLugqQvAR0kvUUau8e-62" value="" style="shape=stencil(nVTbboMwDP0aHhs5NiHwOLHtP1ibrtFoQIFe9vczJGiL2m5rrbxwbB/7OCYZ1cOu6U2G0Ay9WY8ZPWeIx8bb5q1lGNmzC6DMhWSDPKCngGIpcDIZ0GH03Yc52c0Ys6zbGW/HyUsvGTxxzHSoXnfOcUHbuSHx/PAzWWMd58I5kEEo8hkbCl898+/NaHyCZvj6b1qZ0MI9tFQzcksK1dvOm3ffHdzmajNb27ZhYr903DfTLC8ci3vfHc23lFzoIi/LiswKdDqt9PquV1tIW+tSUqCiosf51gcfupQhWYtCapCoIqW8ynnGCINQJbHF6AWWQqsK8zJGU0qiIBrGNFpqg5qtivaIAMkKiOcsUwEoSMkyX7ZlEYAgNCpQMhWwAgFASuWFTiUgCaZRUqedc/j9l7f8oOnt/UE1r/WNxeMn49bKzmkXOz+j4ZmZgS8=);whiteSpace=wrap;html=1;strokeWidth=10;fillColor=none;strokeColor=#fa6863;fontFamily=Helvetica;fontSize=11;fontColor=default;" vertex="1" parent="copLugqQvAR0kvUUau8e-3">
          <mxGeometry x="300" y="385.0000000000001" width="80" height="40" as="geometry" />
        </mxCell>
        <mxCell id="copLugqQvAR0kvUUau8e-63" value="" style="shape=stencil(nVNdc4MgEPw1PobhQAEfO7b9HzQhlalRB02i/74oUONXJ63ji7vu3t5xRDRrclmriGDZ1OrYRvQ1IuQmjZYfhYWJZXIHUpQQzjljDr07FGIE9sHCoU1rqi9116fWq3SZK6PbgaVvEX6x/wwvzY5VWdqCuiqbGfPAWzOpS6vFnTPDrkg/+6qt/0W1yvhADo3I+9O28H9bmllkrxWanSujPk11LU+bYc66KNzEfklcy2GWKyLQl+qmplYIYkyQOE7UAbNZW4vj2672M6Wrca4QxLFIMGPcW8LMk6YO7sgjLEKp3sMHQHECaQp8CtdRx3GEU0FYcOo9DAhigbGgk+JvwQGjRFBKVsHF0jeEXyrI5vhCbr/+APPcTw173J2d07X3cm8vRtlqsUbU3eUR+AY=);whiteSpace=wrap;html=1;fillColor=none;strokeColor=#ae63fa;strokeWidth=10;points=[[0,1,0,0,0],[1,1,0,0,0]];fontFamily=Helvetica;fontSize=11;fontColor=default;" vertex="1" parent="copLugqQvAR0kvUUau8e-3">
          <mxGeometry x="300" y="365" width="40" height="10" as="geometry" />
        </mxCell>
        <mxCell id="copLugqQvAR0kvUUau8e-64" value="" style="shape=stencil(nVPBbsMgDP0ajkNgjzU7Tun2H6ylC1oKEaFt9vcjMZ2alkzdLC4828/m2TCs+0Z3hoHQfWc2keGaARx1sPq9TTAkT0MgcgWrZBWhJ0JBcvk0GqF9DP7TnOw25izrGhNsHL34ysRLihkP1hvvXCpovetnngt/ItPWpVwxEJmgIl90k3TrEv/eRBNmKIO3u2nl/2mxTsjSU7De+WA+gj+4bbGZnW1bUuyXjjs9annjOLv3/mguFOJzja6GVq7xo80hEJekZMXheRyuypSyyDlAOTrDwFFIEI/KPIi8JANmTQVXFSbLGbiY8be+peLV6qrpUhtQCIfyG7G47eeO71J5WpWFYaZvuLQGU9rNHk0ofd0J+AY=);whiteSpace=wrap;html=1;fillColor=none;strokeColor=#63e5e8;strokeWidth=10;fontFamily=Helvetica;fontSize=11;fontColor=default;" vertex="1" parent="copLugqQvAR0kvUUau8e-3">
          <mxGeometry x="340" y="365" width="60" height="10" as="geometry" />
        </mxCell>
        <mxCell id="copLugqQvAR0kvUUau8e-65" value="" style="endArrow=none;html=1;rounded=0;strokeWidth=10;strokeColor=#24b064;labelBackgroundColor=default;fontFamily=Helvetica;fontSize=11;fontColor=default;shape=connector;" edge="1" parent="copLugqQvAR0kvUUau8e-3">
          <mxGeometry width="50" height="50" relative="1" as="geometry">
            <mxPoint x="300" y="305" as="sourcePoint" />
            <mxPoint x="460" y="305" as="targetPoint" />
          </mxGeometry>
        </mxCell>
        <mxCell id="copLugqQvAR0kvUUau8e-66" value="" style="shape=stencil(vZXdcoMgEIWfhltGlkiSy45N34MaUpkacNAk5u2Dgqn1JzN1sDPeeJb9WM4yLKJJmfFCIIh4WYi0QvQdAVy5kfwztzLYSOZEYHgT7ygFp94m1bIy+lvc5LHyWVJlwsiqidIDit7smuajSaqVshtKrcpfkV7cwrhUNjeqHSxym9z9H4bYCYXd4iwqYVyAOBXBx1JyKCxZr+AnK3TNIzJZyWQczIyhzQFdXs3kf/J4u5rJ4cg/rPA2b1fymSzH0sQqc88fTU7aiC+jL+o4WcxJ5rl7ZV9UXPDm/R0FuvBZX0XfpOGliV750UFyqXoQhhlpBgEsQaUX4woi3jiKAfaEMQ8jA1oNk8Pn7uUYt8nMt76m06u9TPZ4t6HdPfnLmYfASXWuRVaf6ZKdyXP9bdNGF6RV3RxvhQc=);whiteSpace=wrap;html=1;strokeWidth=10;fillColor=none;strokeColor=#3d95fd;points=[[0,0,0,0,0],[1,1,0,0,0]];fontFamily=Helvetica;fontSize=11;fontColor=default;" vertex="1" parent="copLugqQvAR0kvUUau8e-3">
          <mxGeometry x="380" y="305" width="75" height="75" as="geometry" />
        </mxCell>
        <mxCell id="copLugqQvAR0kvUUau8e-67" value="" style="shape=stencil(nZPBkoMgDIafhisDARWPO273PVhLV2YtOGhb+/YFoR1ta2e7Dhe/JH9CEhCr+kZ2CgGRfafqAbFPBHCUTsvv1mPwliZCCpjxAgIK9BQpCAzhY5H2g7O/6qS3Q4rSplFOD8HKNoh8eJ9wWFVbY3xCbU2/sMzsXkxq42PJGMVITHJe/HVef68G5VKZkSL4+rMsXcjSd2RZ5cnaVVi1s079OHsw26fF7HTbxo69qLiToZcPhqt5b49q1iFMCJS85NmyVZi8astVq9VmplVgkolMcPofqfrgYl009Y9jSjkAT2L0Tm2E5FdiTgm5JU2Y4QwYyUVavpGl7eM4L4u8EMk7YYEFLYQo4f1L3+3z+enur43K85Vp+Xe2Nucp7GFRJhrf5gQu);whiteSpace=wrap;html=1;strokeWidth=10;fillColor=none;strokeColor=#f18046;fontFamily=Helvetica;fontSize=11;fontColor=default;" vertex="1" parent="copLugqQvAR0kvUUau8e-3">
          <mxGeometry x="300" y="305" width="80" height="35" as="geometry" />
        </mxCell>
        <mxCell id="copLugqQvAR0kvUUau8e-68" value="" style="shape=stencil(vZXdcoMgEIWfhltGlkiSy45N34MaUpkacNAk5u2Dgqn1JzN1sDPeeJb9WM4yLKJJmfFCIIh4WYi0QvQdAVy5kfwztzLYSOZEYHgT7ygFp94m1bIy+lvc5LHyWVJlwsiqidIDit7smuajSaqVshtKrcpfkV7cwrhUNjeqHSxym9z9H4bYCYXd4iwqYVyAOBXBx1JyKCxZr+AnK3TNIzJZyWQczIyhzQFdXs3kf/J4u5rJ4cg/rPA2b1fymSzH0sQqc88fTU7aiC+jL+o4WcxJ5rl7ZV9UXPDm/R0FuvBZX0XfpOGliV750UFyqXoQhhlpBgEsQaUX4woi3jiKAfaEMQ8jA1oNk8Pn7uUYt8nMt76m06u9TPZ4t6HdPfnLmYfASXWuRVaf6ZKdyXP9bdNGF6RV3RxvhQc=);whiteSpace=wrap;html=1;strokeWidth=10;fillColor=none;strokeColor=#000000;points=[[0,0,0,0,0],[1,1,0,0,0]];fontFamily=Helvetica;fontSize=11;fontColor=default;" vertex="1" parent="copLugqQvAR0kvUUau8e-3">
          <mxGeometry x="300" y="305" width="35" height="35" as="geometry" />
        </mxCell>
        <mxCell id="copLugqQvAR0kvUUau8e-6" value="Files" parent="0" />
        <mxCell id="copLugqQvAR0kvUUau8e-36" value="" style="group;fontFamily=Helvetica;fontSize=11;fontColor=default;" vertex="1" connectable="0" parent="copLugqQvAR0kvUUau8e-6">
          <mxGeometry x="490" y="400" width="80" height="90" as="geometry" />
        </mxCell>
        <mxCell id="copLugqQvAR0kvUUau8e-37" value="" style="shape=image;aspect=fixed;image=data:image/svg+xml,PD94bWwgdmVyc2lvbj0iMS4wIiBlbmNvZGluZz0iVVRGLTgiIHN0YW5kYWxvbmU9Im5vIj8+CjwhLS0gQ3JlYXRlZCB3aXRoIElua3NjYXBlIChodHRwOi8vd3d3Lmlua3NjYXBlLm9yZy8pIC0tPgoKPHN2ZwogICB3aWR0aD0iMjEuMTY2NjdtbSIKICAgaGVpZ2h0PSIyMy44MTI1MDJtbSIKICAgdmlld0JveD0iMCAwIDIxLjE2NjY3IDIzLjgxMjUwMiIKICAgdmVyc2lvbj0iMS4xIgogICBpZD0ic3ZnNzM2MiIKICAgeG1sbnM9Imh0dHA6Ly93d3cudzMub3JnLzIwMDAvc3ZnIgogICB4bWxuczpzdmc9Imh0dHA6Ly93d3cudzMub3JnLzIwMDAvc3ZnIj4KICA8ZGVmcwogICAgIGlkPSJkZWZzNzM1OSIgLz4KICA8ZwogICAgIGlkPSJsYXllcjEiCiAgICAgc3R5bGU9ImRpc3BsYXk6aW5saW5lIgogICAgIHRyYW5zZm9ybT0idHJhbnNsYXRlKDM3LjA0MTY3MywtMTQwLjIyOTE3KSI+CiAgICA8ZwogICAgICAgaWQ9ImcxODQ4OC0zLTIiCiAgICAgICB0cmFuc2Zvcm09InRyYW5zbGF0ZSgtMTY2LjY4NzQ5LDQ3LjYyNDk5NykiCiAgICAgICBzdHlsZT0iZGlzcGxheTppbmxpbmUiPgogICAgICA8cGF0aAogICAgICAgICBpZD0icGF0aDYyNzYtNC0wLTYiCiAgICAgICAgIHN0eWxlPSJmaWxsOiNmZmZmZmY7c3Ryb2tlLXdpZHRoOjAuMjMwNzAyIgogICAgICAgICBkPSJtIDEzMi4yOTE2Niw5My45MjcwNzIgdiAyMS4xNjY2NjggaCAxNS44NzUwMSBWIDk5LjIxODc0OCBsIC01LjI5MTY4LC01LjI5MTY3NiB6IiAvPgogICAgICA8cGF0aAogICAgICAgICBpZD0icGF0aDU4NjItMy03IgogICAgICAgICBkPSJtIDE0OS40ODk1OCw5Ny44OTU4MzIgYyAwLC0wLjI2NDU3NiAtMC4yNjQ1OCwtMC41MjkxNjQgLTAuNTI5MTcsLTAuNzkzNzUyIGwgLTQuNDk3OTEsLTMuOTY4NzQ4IGMgLTAuMjY0NTgsLTAuMjY0NTg4IC0wLjUyOTE3LC0wLjUyOTE2NCAtMC44Mjc4OCwtMC41MjkxNjQgaCAtMy40MDU0NSAtNy45Mzc1MSBjIC0wLjc5Mzc1LDAgLTEuMzIyOTIsMC41MjkxNjQgLTEuMzIyOTIsMS4zMjI5MTYgMCw3LjA1NTU1NiAwLDE0LjExMTEwNiAwLDIxLjE2NjY2NiAwLDAuNzkzNzUgMC41MjkxNywxLjMyMjkyIDEuMzIyOTIsMS4zMjI5MiBoIDcuOTM3NTEgNy45Mzc1IGMgMC43OTM3NCwwIDEuMzIyOTEsLTAuNTI5MTcgMS4zMjI5MSwtMS4zMjI5MiB6IG0gLTEuMzIyOTEsMTcuMTk3OTE4IEggMTMyLjI5MTY2IFYgOTMuOTI3MDg0IGggMTAuNTgzMzMgdiA0Ljc2MjUgYyAwLDAuMzE3NTA4IDAuMjAzNTMsMC41MjkxNjQgMC41MjkxNywwLjUyOTE2NCBoIDQuNzYyNTEgeiIKICAgICAgICAgc3R5bGU9InN0cm9rZS13aWR0aDowLjIzMTY3IiAvPgogICAgICA8cGF0aAogICAgICAgICBpZD0icmVjdDE4MzQ3LTYtMSIKICAgICAgICAgc3R5bGU9ImZpbGwtcnVsZTpldmVub2RkO3N0cm9rZS13aWR0aDowLjEyMjAyNztwYWludC1vcmRlcjpmaWxsIG1hcmtlcnMgc3Ryb2tlIgogICAgICAgICBkPSJtIDEzMS4wMTc1MiwxMDEuODY0NiBjIDYuMTQxMDksMCAxMi4yODIxNywwIDE4LjQyMzI2LDAgMC43NTk5MywwIDEuMzcxNzEsMC40OTcwNiAxLjM3MTcxLDEuMTE0NSB2IDIuODU0MjIgMi44NTQyNSBjIDAsMC42MTc0NCAtMC42MTE3OCwxLjExNDUgLTEuMzcxNzEsMS4xMTQ1IC02LjE0MTA5LDAgLTEyLjI4MjE3LDAgLTE4LjQyMzI2LDAgLTAuNzU5OTIsMCAtMS4zNzE3LC0wLjQ5NzA2IC0xLjM3MTcsLTEuMTE0NSB2IC0yLjg1NDI1IC0yLjg1NDIyIGMgMCwtMC42MTc0NCAwLjYxMTc4LC0xLjExNDUgMS4zNzE3LC0xLjExNDUgeiIgLz4KICAgIDwvZz4KICA8L2c+Cjwvc3ZnPgo=;fontFamily=Helvetica;fontSize=11;fontColor=default;" vertex="1" parent="copLugqQvAR0kvUUau8e-36">
          <mxGeometry width="80" height="90" as="geometry" />
        </mxCell>
        <mxCell id="copLugqQvAR0kvUUau8e-38" value="&lt;font style=&quot;font-size: 20px;&quot; color=&quot;#ffffff&quot; data-font-src=&quot;https://fonts.googleapis.com/css?family=Maven+Pro&quot; face=&quot;Maven Pro&quot;&gt;&lt;b&gt;fastq&lt;/b&gt;&lt;/font&gt;" style="text;html=1;strokeColor=none;fillColor=none;align=center;verticalAlign=middle;whiteSpace=wrap;rounded=0;fontSize=11;fontFamily=Helvetica;fontColor=default;" vertex="1" parent="copLugqQvAR0kvUUau8e-36">
          <mxGeometry x="10" y="35" width="60" height="30" as="geometry" />
        </mxCell>
        <mxCell id="copLugqQvAR0kvUUau8e-39" value="" style="group;fontFamily=Helvetica;fontSize=11;fontColor=default;" vertex="1" connectable="0" parent="copLugqQvAR0kvUUau8e-6">
          <mxGeometry x="590" y="400.0000000000001" width="90" height="100" as="geometry" />
        </mxCell>
        <mxCell id="copLugqQvAR0kvUUau8e-40" value="" style="shape=image;aspect=fixed;image=data:image/svg+xml,PD94bWwgdmVyc2lvbj0iMS4wIiBlbmNvZGluZz0iVVRGLTgiIHN0YW5kYWxvbmU9Im5vIj8+CjwhLS0gQ3JlYXRlZCB3aXRoIElua3NjYXBlIChodHRwOi8vd3d3Lmlua3NjYXBlLm9yZy8pIC0tPgoKPHN2ZwogICB3aWR0aD0iMjMuODEyNTFtbSIKICAgaGVpZ2h0PSIyNi40NTgzNDltbSIKICAgdmlld0JveD0iMCAwIDIzLjgxMjUxIDI2LjQ1ODM0OSIKICAgdmVyc2lvbj0iMS4xIgogICBpZD0ic3ZnNzM2MiIKICAgeG1sbnM9Imh0dHA6Ly93d3cudzMub3JnLzIwMDAvc3ZnIgogICB4bWxuczpzdmc9Imh0dHA6Ly93d3cudzMub3JnLzIwMDAvc3ZnIj4KICA8ZGVmcwogICAgIGlkPSJkZWZzNzM1OSIgLz4KICA8ZwogICAgIGlkPSJsYXllcjEiCiAgICAgc3R5bGU9ImRpc3BsYXk6aW5saW5lIgogICAgIHRyYW5zZm9ybT0idHJhbnNsYXRlKDM3LjA0MTY2NSwtMTY2LjY4NzUpIj4KICAgIDxnCiAgICAgICBpZD0iZzMtNC05IgogICAgICAgdHJhbnNmb3JtPSJ0cmFuc2xhdGUoLTE5MC40OTk5OSw3MS40Mzc1MDUpIgogICAgICAgc3R5bGU9ImRpc3BsYXk6aW5saW5lIj4KICAgICAgPGcKICAgICAgICAgaWQ9ImcxODQ4OC01NC00MS05IgogICAgICAgICB0cmFuc2Zvcm09InRyYW5zbGF0ZSgyNi40NTgzMzIsMi42NDU4NDQpIj4KICAgICAgICA8cGF0aAogICAgICAgICAgIGlkPSJwYXRoNjI3Ni00LTQtNS0yIgogICAgICAgICAgIHN0eWxlPSJmaWxsOiNmZmZmZmY7c3Ryb2tlLXdpZHRoOjAuMjMwNzAyIgogICAgICAgICAgIGQ9Im0gMTMyLjI5MTY2LDkzLjkyNzA3MiB2IDIxLjE2NjY2OCBoIDE1Ljg3NTAxIFYgOTkuMjE4NzQ4IGwgLTUuMjkxNjgsLTUuMjkxNjc2IHoiIC8+CiAgICAgICAgPHBhdGgKICAgICAgICAgICBpZD0icGF0aDU4NjItMS00LTEiCiAgICAgICAgICAgZD0ibSAxNDkuNDg5NTgsOTcuODk1ODMyIGMgMCwtMC4yNjQ1NzYgLTAuMjY0NTgsLTAuNTI5MTY0IC0wLjUyOTE3LC0wLjc5Mzc1MiBsIC00LjQ5NzkxLC0zLjk2ODc0OCBjIC0wLjI2NDU4LC0wLjI2NDU4OCAtMC41MjkxNywtMC41MjkxNjQgLTAuODI3ODgsLTAuNTI5MTY0IGwgLTQuNzI4MzcsLTJlLTUgLTYuNjE0NTksMmUtNSBjIC0wLjc5Mzc1LDJlLTYgLTEuMzIyOTIsMC41MjkxNjQgLTEuMzIyOTIsMS4zMjI5MTYgdiAyMS4xNjY2NjYgYyAwLDAuNzkzNzUgMC41MjkxNywxLjMyMjkyIDEuMzIyOTIsMS4zMjI5MiBoIDcuOTM3NTEgNy45Mzc1IGMgMC43OTM3NCwwIDEuMzIyOTEsLTAuNTI5MTcgMS4zMjI5MSwtMS4zMjI5MiB6IG0gLTEuMzIyOTEsMTcuMTk3OTE4IEggMTMyLjI5MTY2IFYgOTMuOTI3MDg0IGggMTAuNTgzMzMgdiA0Ljc2MjUgYyAwLDAuMzE3NTA4IDAuMjAzNTMsMC41MjkxNjQgMC41MjkxNywwLjUyOTE2NCBoIDQuNzYyNTEgeiIKICAgICAgICAgICBzdHlsZT0ic3Ryb2tlLXdpZHRoOjAuMjMxNjciIC8+CiAgICAgICAgPHBhdGgKICAgICAgICAgICBpZD0icmVjdDE4MzQ3LTItNy04IgogICAgICAgICAgIHN0eWxlPSJmaWxsLXJ1bGU6ZXZlbm9kZDtzdHJva2Utd2lkdGg6MC4xMjIwMjc7cGFpbnQtb3JkZXI6ZmlsbCBtYXJrZXJzIHN0cm9rZSIKICAgICAgICAgICBkPSJtIDEzMS4wMTc1MiwxMDEuODY0NiBoIDE4LjQyMzI2IGMgMC43NTk5MywwIDEuMzcxNzEsMC40OTcwNiAxLjM3MTcxLDEuMTE0NSBsIDFlLTUsMi44NTQyMSAtMWUtNSwyLjg1NDI2IGMgMCwwLjYxNzQ0IC0wLjYxMTc4LDEuMTE0NSAtMS4zNzE3MSwxLjExNDUgaCAtMTguNDIzMjYgYyAtMC43NTk5MiwwIC0xLjM3MTcsLTAuNDk3MDYgLTEuMzcxNywtMS4xMTQ1IHYgLTIuODU0MjUgLTIuODU0MjIgYyAwLC0wLjYxNzQ0IDAuNjExNzgsLTEuMTE0NSAxLjM3MTcsLTEuMTE0NSB6IiAvPgogICAgICAgIDx0ZXh0CiAgICAgICAgICAgeG1sOnNwYWNlPSJwcmVzZXJ2ZSIKICAgICAgICAgICBzdHlsZT0iZm9udC13ZWlnaHQ6Ym9sZDtmb250LXNpemU6NS4yOTE2N3B4O2ZvbnQtZmFtaWx5OidNYXZlbiBQcm8nOy1pbmtzY2FwZS1mb250LXNwZWNpZmljYXRpb246J01hdmVuIFBybywgQm9sZCc7dGV4dC1hbGlnbjpjZW50ZXI7dGV4dC1vcmllbnRhdGlvbjp1cHJpZ2h0O3RleHQtYW5jaG9yOm1pZGRsZTtmaWxsOiNmZmZmZmY7ZmlsbC1vcGFjaXR5OjE7c3Ryb2tlOm5vbmU7c3Ryb2tlLXdpZHRoOjAuMjI3OTUxO3N0cm9rZS1saW5lY2FwOnJvdW5kO3N0cm9rZS1saW5lam9pbjptaXRlcjtzdHJva2UtbWl0ZXJsaW1pdDowLjY7c3Ryb2tlLWRhc2hhcnJheTpub25lO3N0cm9rZS1kYXNob2Zmc2V0OjIuMDAwMDE7c3Ryb2tlLW9wYWNpdHk6MTtwYWludC1vcmRlcjpmaWxsIG1hcmtlcnMgc3Ryb2tlO3N0b3AtY29sb3I6IzAwMDAwMCIKICAgICAgICAgICB4PSIxNDAuMzM4OTYiCiAgICAgICAgICAgeT0iMTA3LjIxMTgiCiAgICAgICAgICAgaWQ9InRleHQxODU2OS02LTgtNCI+PHRzcGFuCiAgICAgICAgICAgICBpZD0idHNwYW4xODU2Ny00Mi02LTEiCiAgICAgICAgICAgICBzdHlsZT0iZmlsbDojZmZmZmZmO2ZpbGwtb3BhY2l0eToxO3N0cm9rZTpub25lO3N0cm9rZS13aWR0aDowLjIyNzk1MSIKICAgICAgICAgICAgIHg9IjE0MC4zMzg5NiIKICAgICAgICAgICAgIHk9IjEwNy4yMTE4Ij5mYXN0cTwvdHNwYW4+PC90ZXh0PgogICAgICA8L2c+CiAgICAgIDxnCiAgICAgICAgIGlkPSJnMTg0ODgtNTQtOC02LTEiCiAgICAgICAgIHRyYW5zZm9ybT0idHJhbnNsYXRlKDIzLjgxMjUwMiw1LjI5MTY2OTUpIj4KICAgICAgICA8cGF0aAogICAgICAgICAgIGlkPSJwYXRoNjI3Ni00LTQtNi03LTUiCiAgICAgICAgICAgc3R5bGU9ImZpbGw6I2ZmZmZmZjtzdHJva2Utd2lkdGg6MC4yMzA3MDIiCiAgICAgICAgICAgZD0ibSAxMzIuMjkxNjYsOTMuOTI3MDcyIHYgMjEuMTY2NjY4IGggMTUuODc1MDEgViA5OS4yMTg3NDggbCAtNS4yOTE2OCwtNS4yOTE2NzYgeiIgLz4KICAgICAgICA8cGF0aAogICAgICAgICAgIGlkPSJwYXRoNTg2Mi0xLTEtMC02IgogICAgICAgICAgIGQ9Im0gMTQ5LjQ4OTU4LDk3Ljg5NTgzMiBjIDAsLTAuMjY0NTc2IC0wLjI2NDU4LC0wLjUyOTE2NCAtMC41MjkxNywtMC43OTM3NTIgbCAtNC40OTc5MSwtMy45Njg3NDggYyAtMC4yNjQ1OCwtMC4yNjQ1ODggLTAuNTI5MTcsLTAuNTI5MTY0IC0wLjgyNzg4LC0wLjUyOTE2NCBoIC0zLjQwNTQ1IC03LjkzNzUxIGMgLTAuNzkzNzUsMCAtMS4zMjI5MiwwLjUyOTE2NCAtMS4zMjI5MiwxLjMyMjkxNiB2IDIxLjE2NjY2NiBjIDAsMC43OTM3NSAwLjUyOTE3LDEuMzIyOTIgMS4zMjI5MiwxLjMyMjkyIGwgOS4yNjA0MiwtMmUtNSA2LjYxNDU5LDJlLTUgYyAwLjc5Mzc0LDAgMS4zMjI5MSwtMC41MjkxNyAxLjMyMjkxLC0xLjMyMjkyIHogbSAtMS4zMjI5MSwxNy4xOTc5MTggSCAxMzIuMjkxNjYgViA5My45MjcwODQgaCAxMC41ODMzMyB2IDQuNzYyNSBjIDAsMC4zMTc1MDggMC4yMDM1MywwLjUyOTE2NCAwLjUyOTE3LDAuNTI5MTY0IGggNC43NjI1MSB6IgogICAgICAgICAgIHN0eWxlPSJzdHJva2Utd2lkdGg6MC4yMzE2NyIgLz4KICAgICAgICA8cGF0aAogICAgICAgICAgIGlkPSJyZWN0MTgzNDctMi01LTAtMiIKICAgICAgICAgICBzdHlsZT0iZmlsbC1ydWxlOmV2ZW5vZGQ7c3Ryb2tlLXdpZHRoOjAuMTIyMDI3O3BhaW50LW9yZGVyOmZpbGwgbWFya2VycyBzdHJva2UiCiAgICAgICAgICAgZD0ibSAxMzEuMDE3NTIsMTAxLjg2NDYgaCAxOC40MjMyNiBjIDAuNzU5OTMsMCAxLjM3MTcxLDAuNDk3MDYgMS4zNzE3MSwxLjExNDUgdiAyLjg1NDIyIDIuODU0MjUgYyAwLDAuNjE3NDQgLTAuNjExNzgsMS4xMTQ1IC0xLjM3MTcxLDEuMTE0NSBoIC0xOC40MjMyNiBjIC0wLjc1OTkyLDAgLTEuMzcxNywtMC40OTcwNiAtMS4zNzE3LC0xLjExNDUgbCAxZS01LC01LjUwMDA4IC0xZS01LC0wLjIwODM5IGMgLTJlLTUsLTAuNjE3NDQgMC42MTE3OCwtMS4xMTQ1IDEuMzcxNywtMS4xMTQ1IHoiIC8+CiAgICAgIDwvZz4KICAgIDwvZz4KICA8L2c+Cjwvc3ZnPgo=;imageBackground=default;fontFamily=Helvetica;fontSize=11;fontColor=default;" vertex="1" parent="copLugqQvAR0kvUUau8e-39">
          <mxGeometry width="90" height="100" as="geometry" />
        </mxCell>
        <mxCell id="copLugqQvAR0kvUUau8e-41" value="&lt;font style=&quot;font-size: 20px;&quot; color=&quot;#ffffff&quot; data-font-src=&quot;https://fonts.googleapis.com/css?family=Maven+Pro&quot; face=&quot;Maven Pro&quot;&gt;&lt;b&gt;bam&lt;/b&gt;&lt;/font&gt;" style="text;html=1;strokeColor=none;fillColor=none;align=center;verticalAlign=middle;whiteSpace=wrap;rounded=0;fontSize=11;fontFamily=Helvetica;fontColor=default;" vertex="1" parent="copLugqQvAR0kvUUau8e-39">
          <mxGeometry x="10" y="45" width="60" height="30" as="geometry" />
        </mxCell>
        <mxCell id="copLugqQvAR0kvUUau8e-42" value="" style="group;fontFamily=Helvetica;fontSize=11;fontColor=default;" vertex="1" connectable="0" parent="copLugqQvAR0kvUUau8e-6">
          <mxGeometry x="700" y="400.0000000000001" width="100" height="110" as="geometry" />
        </mxCell>
        <mxCell id="copLugqQvAR0kvUUau8e-43" value="" style="shape=image;aspect=fixed;image=data:image/svg+xml,PD94bWwgdmVyc2lvbj0iMS4wIiBlbmNvZGluZz0iVVRGLTgiIHN0YW5kYWxvbmU9Im5vIj8+CjwhLS0gQ3JlYXRlZCB3aXRoIElua3NjYXBlIChodHRwOi8vd3d3Lmlua3NjYXBlLm9yZy8pIC0tPgoKPHN2ZwogICB3aWR0aD0iMjYuNDU4MzI2bW0iCiAgIGhlaWdodD0iMjkuMTA0Mm1tIgogICB2aWV3Qm94PSIwIDAgMjYuNDU4MzI2IDI5LjEwNDIiCiAgIHZlcnNpb249IjEuMSIKICAgaWQ9InN2ZzczNjIiCiAgIHhtbG5zPSJodHRwOi8vd3d3LnczLm9yZy8yMDAwL3N2ZyIKICAgeG1sbnM6c3ZnPSJodHRwOi8vd3d3LnczLm9yZy8yMDAwL3N2ZyI+CiAgPGRlZnMKICAgICBpZD0iZGVmczczNTkiIC8+CiAgPGcKICAgICBpZD0ibGF5ZXIxIgogICAgIHN0eWxlPSJkaXNwbGF5OmlubGluZSIKICAgICB0cmFuc2Zvcm09InRyYW5zbGF0ZSgzNC4zOTU4MzMsLTE5My4xNDU4NCkiPgogICAgPGcKICAgICAgIGlkPSJnMi0wLTQiCiAgICAgICB0cmFuc2Zvcm09InRyYW5zbGF0ZSgtMjE2Ljk1ODMzLDk3Ljg5NTg0MykiCiAgICAgICBzdHlsZT0iZGlzcGxheTppbmxpbmUiPgogICAgICA8ZwogICAgICAgICBpZD0iZzE4NDg4LTU0LTQtMS01IgogICAgICAgICB0cmFuc2Zvcm09InRyYW5zbGF0ZSg1OC4yMDgzMzQsMi42NDU4MzY5KSI+CiAgICAgICAgPHBhdGgKICAgICAgICAgICBpZD0icGF0aDYyNzYtNC00LTY1LTUtOSIKICAgICAgICAgICBzdHlsZT0iZmlsbDojZmZmZmZmO3N0cm9rZS13aWR0aDowLjIzMDcwMiIKICAgICAgICAgICBkPSJtIDEzMi4yOTE2Niw5My45MjcwNzIgdiAyMS4xNjY2NjggaCAxNS44NzUwMSBWIDk5LjIxODc0OCBsIC01LjI5MTY4LC01LjI5MTY3NiB6IiAvPgogICAgICAgIDxwYXRoCiAgICAgICAgICAgaWQ9InBhdGg1ODYyLTEtMy00LTYiCiAgICAgICAgICAgZD0ibSAxNDkuNDg5NTgsOTcuODk1ODMyIGMgMCwtMC4yNjQ1NzYgLTAuMjY0NTgsLTAuNTI5MTY0IC0wLjUyOTE3LC0wLjc5Mzc1MiBsIC00LjQ5NzkxLC0zLjk2ODc0OCBjIC0wLjI2NDU4LC0wLjI2NDU4OCAtMC41MjkxNywtMC41MjkxNjQgLTAuODI3ODgsLTAuNTI5MTY0IGwgLTYuMDUxMjksLTEuM2UtNSAtNS4yOTE2NywxLjNlLTUgYyAtMC43OTM3NSwyZS02IC0xLjMyMjkyLDAuNTI5MTY0IC0xLjMyMjkyLDEuMzIyOTE2IHYgMjEuMTY2NjY2IGMgMCwwLjc5Mzc1IDAuNTI5MTcsMS4zMjI5MiAxLjMyMjkyLDEuMzIyOTIgaCA3LjkzNzUxIDcuOTM3NSBjIDAuNzkzNzQsMCAxLjMyMjkxLC0wLjUyOTE3IDEuMzIyOTEsLTEuMzIyOTIgeiBtIC0xLjMyMjkxLDE3LjE5NzkxOCBIIDEzMi4yOTE2NiBWIDkzLjkyNzA4NCBoIDEwLjU4MzMzIHYgNC43NjI1IGMgMCwwLjMxNzUwOCAwLjIwMzUzLDAuNTI5MTY0IDAuNTI5MTcsMC41MjkxNjQgaCA0Ljc2MjUxIHoiCiAgICAgICAgICAgc3R5bGU9InN0cm9rZS13aWR0aDowLjIzMTY3IiAvPgogICAgICAgIDxwYXRoCiAgICAgICAgICAgaWQ9InJlY3QxODM0Ny0yLTYtNi0wIgogICAgICAgICAgIHN0eWxlPSJmaWxsLXJ1bGU6ZXZlbm9kZDtzdHJva2Utd2lkdGg6MC4xMjIwMjc7cGFpbnQtb3JkZXI6ZmlsbCBtYXJrZXJzIHN0cm9rZSIKICAgICAgICAgICBkPSJtIDEzMS4wMTc1MiwxMDEuODY0NiBoIDE4LjQyMzI2IGMgMC43NTk5MywwIDEuMzcxNzEsMC40OTcwNiAxLjM3MTcxLDEuMTE0NSB2IDQuMTc3MTQgMS41MzEzMyBjIDAsMC42MTc0NCAtMC42MTE3OCwxLjExNDUgLTEuMzcxNzEsMS4xMTQ1IGggLTE4LjQyMzI2IGMgLTAuNzU5OTIsMCAtMS4zNzE3LC0wLjQ5NzA2IC0xLjM3MTcsLTEuMTE0NSB2IC0yLjg1NDI1IC0yLjg1NDIyIGMgMCwtMC42MTc0NCAwLjYxMTc4LC0xLjExNDUgMS4zNzE3LC0xLjExNDUgeiIgLz4KICAgICAgICA8dGV4dAogICAgICAgICAgIHhtbDpzcGFjZT0icHJlc2VydmUiCiAgICAgICAgICAgc3R5bGU9ImZvbnQtd2VpZ2h0OmJvbGQ7Zm9udC1zaXplOjUuMjkxNjdweDtmb250LWZhbWlseTonTWF2ZW4gUHJvJzstaW5rc2NhcGUtZm9udC1zcGVjaWZpY2F0aW9uOidNYXZlbiBQcm8sIEJvbGQnO3RleHQtYWxpZ246Y2VudGVyO3RleHQtb3JpZW50YXRpb246dXByaWdodDt0ZXh0LWFuY2hvcjptaWRkbGU7ZmlsbDojZmZmZmZmO2ZpbGwtb3BhY2l0eToxO3N0cm9rZTpub25lO3N0cm9rZS13aWR0aDowLjIyNzk1MTtzdHJva2UtbGluZWNhcDpyb3VuZDtzdHJva2UtbGluZWpvaW46bWl0ZXI7c3Ryb2tlLW1pdGVybGltaXQ6MC42O3N0cm9rZS1kYXNoYXJyYXk6bm9uZTtzdHJva2UtZGFzaG9mZnNldDoyLjAwMDAxO3N0cm9rZS1vcGFjaXR5OjE7cGFpbnQtb3JkZXI6ZmlsbCBtYXJrZXJzIHN0cm9rZTtzdG9wLWNvbG9yOiMwMDAwMDAiCiAgICAgICAgICAgeD0iMTQwLjMzODk2IgogICAgICAgICAgIHk9IjEwNy4yMTE4IgogICAgICAgICAgIGlkPSJ0ZXh0MTg1NjktNi00MS0zLTIiPjx0c3BhbgogICAgICAgICAgICAgaWQ9InRzcGFuMTg1NjctNDItNS0xLTYiCiAgICAgICAgICAgICBzdHlsZT0iZmlsbDojZmZmZmZmO2ZpbGwtb3BhY2l0eToxO3N0cm9rZTpub25lO3N0cm9rZS13aWR0aDowLjIyNzk1MSIKICAgICAgICAgICAgIHg9IjE0MC4zMzg5NiIKICAgICAgICAgICAgIHk9IjEwNy4yMTE4Ij5mYXN0cTwvdHNwYW4+PC90ZXh0PgogICAgICA8L2c+CiAgICAgIDxnCiAgICAgICAgIGlkPSJnMTg0ODgtNTQtOC0wLTMtNiIKICAgICAgICAgdHJhbnNmb3JtPSJ0cmFuc2xhdGUoNTUuNTYyNTA0LDUuMjkxNjYyNCkiPgogICAgICAgIDxwYXRoCiAgICAgICAgICAgaWQ9InBhdGg2Mjc2LTQtNC02LTktMDYtMSIKICAgICAgICAgICBzdHlsZT0iZmlsbDojZmZmZmZmO3N0cm9rZS13aWR0aDowLjIzMDcwMiIKICAgICAgICAgICBkPSJtIDEzMi4yOTE2Niw5My45MjcwNzIgdiAyMS4xNjY2NjggaCAxNS44NzUwMSBWIDk5LjIxODc0OCBsIC01LjI5MTY4LC01LjI5MTY3NiB6IiAvPgogICAgICAgIDxwYXRoCiAgICAgICAgICAgaWQ9InBhdGg1ODYyLTEtMS0zLTgtMCIKICAgICAgICAgICBkPSJtIDE0OS40ODk1OCw5Ny44OTU4MzIgYyAwLC0wLjI2NDU3NiAtMC4yNjQ1OCwtMC41MjkxNjQgLTAuNTI5MTcsLTAuNzkzNzUyIGwgLTQuNDk3OTEsLTMuOTY4NzQ4IGMgLTAuMjY0NTgsLTAuMjY0NTg4IC0wLjUyOTE3LC0wLjUyOTE2NCAtMC44Mjc4OCwtMC41MjkxNjQgaCAtMy40MDU0NSAtNy45Mzc1MSBjIC0wLjc5Mzc1LDAgLTEuMzIyOTIsMC41MjkxNjQgLTEuMzIyOTIsMS4zMjI5MTYgMCw3LjA1NTU1NiAwLDE0LjExMTEwNiAwLDIxLjE2NjY2NiAwLDAuNzkzNzUgMC41MjkxNywxLjMyMjkyIDEuMzIyOTIsMS4zMjI5MiBoIDcuOTM3NTEgNy45Mzc1IGMgMC43OTM3NCwwIDEuMzIyOTEsLTAuNTI5MTcgMS4zMjI5MSwtMS4zMjI5MiB6IG0gLTEuMzIyOTEsMTcuMTk3OTE4IEggMTMyLjI5MTY2IFYgOTMuOTI3MDg0IGggMTAuNTgzMzMgdiA0Ljc2MjUgYyAwLDAuMzE3NTA4IDAuMjAzNTMsMC41MjkxNjQgMC41MjkxNywwLjUyOTE2NCBoIDQuNzYyNTEgeiIKICAgICAgICAgICBzdHlsZT0ic3Ryb2tlLXdpZHRoOjAuMjMxNjciIC8+CiAgICAgICAgPHBhdGgKICAgICAgICAgICBpZD0icmVjdDE4MzQ3LTItNS0xLTAtNiIKICAgICAgICAgICBzdHlsZT0iZmlsbC1ydWxlOmV2ZW5vZGQ7c3Ryb2tlLXdpZHRoOjAuMTIyMDI3O3BhaW50LW9yZGVyOmZpbGwgbWFya2VycyBzdHJva2UiCiAgICAgICAgICAgZD0ibSAxMzEuMDE3NTIsMTAxLjg2NDYgYyA2LjE0MTA5LDAgMTIuMjgyMTcsMCAxOC40MjMyNiwwIDAuNzU5OTMsMCAxLjM3MTcxLDAuNDk3MDYgMS4zNzE3MSwxLjExNDUgdiAyLjg1NDIyIDIuODU0MjUgYyAwLDAuNjE3NDQgLTAuNjExNzgsMS4xMTQ1IC0xLjM3MTcxLDEuMTE0NSAtNi4xNDEwOSwwIC0xMi4yODIxNywwIC0xOC40MjMyNiwwIC0wLjc1OTkyLDAgLTEuMzcxNywtMC40OTcwNiAtMS4zNzE3LC0xLjExNDUgdiAtMi44NTQyNSAtMi44NTQyMiBjIDAsLTAuNjE3NDQgMC42MTE3OCwtMS4xMTQ1IDEuMzcxNywtMS4xMTQ1IHoiIC8+CiAgICAgICAgPHRleHQKICAgICAgICAgICB4bWw6c3BhY2U9InByZXNlcnZlIgogICAgICAgICAgIHN0eWxlPSJmb250LXdlaWdodDpib2xkO2ZvbnQtc2l6ZTo1LjI5MTY3cHg7Zm9udC1mYW1pbHk6J01hdmVuIFBybyc7LWlua3NjYXBlLWZvbnQtc3BlY2lmaWNhdGlvbjonTWF2ZW4gUHJvLCBCb2xkJzt0ZXh0LWFsaWduOmNlbnRlcjt0ZXh0LW9yaWVudGF0aW9uOnVwcmlnaHQ7dGV4dC1hbmNob3I6bWlkZGxlO2ZpbGw6I2ZmZmZmZjtmaWxsLW9wYWNpdHk6MTtzdHJva2U6bm9uZTtzdHJva2Utd2lkdGg6MC4yMjc5NTE7c3Ryb2tlLWxpbmVjYXA6cm91bmQ7c3Ryb2tlLWxpbmVqb2luOm1pdGVyO3N0cm9rZS1taXRlcmxpbWl0OjAuNjtzdHJva2UtZGFzaGFycmF5Om5vbmU7c3Ryb2tlLWRhc2hvZmZzZXQ6Mi4wMDAwMTtzdHJva2Utb3BhY2l0eToxO3BhaW50LW9yZGVyOmZpbGwgbWFya2VycyBzdHJva2U7c3RvcC1jb2xvcjojMDAwMDAwIgogICAgICAgICAgIHg9IjE0MC4zMzg5NiIKICAgICAgICAgICB5PSIxMDcuMjExOCIKICAgICAgICAgICBpZD0idGV4dDE4NTY5LTYtNC03LTItNyI+PHRzcGFuCiAgICAgICAgICAgICBpZD0idHNwYW4xODU2Ny00Mi0xLTUtNzEtMCIKICAgICAgICAgICAgIHN0eWxlPSJmaWxsOiNmZmZmZmY7ZmlsbC1vcGFjaXR5OjE7c3Ryb2tlOm5vbmU7c3Ryb2tlLXdpZHRoOjAuMjI3OTUxIgogICAgICAgICAgICAgeD0iMTQwLjMzODk2IgogICAgICAgICAgICAgeT0iMTA3LjIxMTgiPmZhc3RxPC90c3Bhbj48L3RleHQ+CiAgICAgIDwvZz4KICAgICAgPGcKICAgICAgICAgaWQ9ImcxODQ4OC01NC04LTAtOC02LTQiCiAgICAgICAgIHRyYW5zZm9ybT0idHJhbnNsYXRlKDUyLjkxNjY3NSw3LjkzNzUxNjIpIj4KICAgICAgICA8cGF0aAogICAgICAgICAgIGlkPSJwYXRoNjI3Ni00LTQtNi05LTAtMi0zIgogICAgICAgICAgIHN0eWxlPSJmaWxsOiNmZmZmZmY7c3Ryb2tlLXdpZHRoOjAuMjMwNzAyIgogICAgICAgICAgIGQ9Im0gMTMyLjI5MTY2LDkzLjkyNzA3MiB2IDIxLjE2NjY2OCBoIDE1Ljg3NTAxIFYgOTkuMjE4NzQ4IGwgLTUuMjkxNjgsLTUuMjkxNjc2IHoiIC8+CiAgICAgICAgPHBhdGgKICAgICAgICAgICBpZD0icGF0aDU4NjItMS0xLTMtOS04LTAiCiAgICAgICAgICAgZD0ibSAxNDkuNDg5NTgsOTcuODk1ODMyIGMgMCwtMC4yNjQ1NzYgLTAuMjY0NTgsLTAuNTI5MTY0IC0wLjUyOTE3LC0wLjc5Mzc1MiBsIC00LjQ5NzkxLC0zLjk2ODc0OCBjIC0wLjI2NDU4LC0wLjI2NDU4OCAtMC41MjkxNywtMC41MjkxNjQgLTAuODI3ODgsLTAuNTI5MTY0IGggLTMuNDA1NDUgLTcuOTM3NTEgYyAtMC43OTM3NSwwIC0xLjMyMjkyLDAuNTI5MTY0IC0xLjMyMjkyLDEuMzIyOTE2IHYgNy45Mzc0NzYgMTMuMjI5MTkgYyAwLDAuNzkzNzUgMC41MjkxNywxLjMyMjkyIDEuMzIyOTIsMS4zMjI5MiBsIDEwLjU4MzMzLC0zZS01IDUuMjkxNjgsM2UtNSBjIDAuNzkzNzQsMCAxLjMyMjkxLC0wLjUyOTE3IDEuMzIyOTEsLTEuMzIyOTIgeiBtIC0xLjMyMjkxLDE3LjE5NzkxOCBIIDEzMi4yOTE2NiBWIDkzLjkyNzA4NCBoIDEwLjU4MzMzIHYgNC43NjI1IGMgMCwwLjMxNzUwOCAwLjIwMzUzLDAuNTI5MTY0IDAuNTI5MTcsMC41MjkxNjQgaCA0Ljc2MjUxIHoiCiAgICAgICAgICAgc3R5bGU9InN0cm9rZS13aWR0aDowLjIzMTY3IiAvPgogICAgICAgIDxwYXRoCiAgICAgICAgICAgaWQ9InJlY3QxODM0Ny0yLTUtMS02LTItMCIKICAgICAgICAgICBzdHlsZT0iZmlsbC1ydWxlOmV2ZW5vZGQ7c3Ryb2tlLXdpZHRoOjAuMTIyMDI3O3BhaW50LW9yZGVyOmZpbGwgbWFya2VycyBzdHJva2UiCiAgICAgICAgICAgZD0ibSAxMzEuMDE3NTIsMTAxLjg2NDYgYyA2LjE0MTA5LDAgMTIuMjgyMTcsMCAxOC40MjMyNiwwIDAuNzU5OTMsMCAxLjM3MTcxLDAuNDk3MDYgMS4zNzE3MSwxLjExNDUgdiAyLjg1NDIyIDIuODU0MjUgYyAwLDAuNjE3NDQgLTAuNjExNzgsMS4xMTQ1IC0xLjM3MTcxLDEuMTE0NSAtNi4xNDEwOSwwIC0xMi4yODIxNywwIC0xOC40MjMyNiwwIC0wLjc1OTkyLDAgLTEuMzcxNywtMC40OTcwNiAtMS4zNzE3LC0xLjExNDUgdiAtMi44NTQyNSAtMi44NTQyMiBjIDAsLTAuNjE3NDQgMC42MTE3OCwtMS4xMTQ1IDEuMzcxNywtMS4xMTQ1IHoiIC8+CiAgICAgIDwvZz4KICAgIDwvZz4KICA8L2c+Cjwvc3ZnPgo=;fontFamily=Helvetica;fontSize=11;fontColor=default;" vertex="1" parent="copLugqQvAR0kvUUau8e-42">
          <mxGeometry width="100" height="110" as="geometry" />
        </mxCell>
        <mxCell id="copLugqQvAR0kvUUau8e-44" value="&lt;font style=&quot;font-size: 20px;&quot; color=&quot;#ffffff&quot; data-font-src=&quot;https://fonts.googleapis.com/css?family=Maven+Pro&quot; face=&quot;Maven Pro&quot;&gt;&lt;b&gt;vcf&lt;/b&gt;&lt;/font&gt;" style="text;html=1;strokeColor=none;fillColor=none;align=center;verticalAlign=middle;whiteSpace=wrap;rounded=0;fontSize=11;fontFamily=Helvetica;fontColor=default;" vertex="1" parent="copLugqQvAR0kvUUau8e-42">
          <mxGeometry x="10" y="55" width="60" height="30" as="geometry" />
        </mxCell>
        <mxCell id="copLugqQvAR0kvUUau8e-17" value="Steps" parent="0" />
        <mxCell id="copLugqQvAR0kvUUau8e-18" value="" style="shape=stencil(nVTbcoMgEP0aH8PAIrfHjm3/wyakMjXooLn9fSHgNBiTacL44tnds2cvUNBqaOpeF4DrodfrsaDvBcChdqb+aj0M3tJEkCIGQgilInqMKEgE4ZCIDqPrfvTRbMYUZWyjnRmDlX4U+M37hI9W685an9B0dsgsV3ZPVhvrY/EpkuGY5Bz/Usre8+/0qF2GFvD5b1qS0eJnaGnlkXul0GrbOf3tur3dLIrZmraNHXuguK9DL28Mk3nXHfRfKSUCDJJLqldYZGXNxrecbSJtjb0iZQgU4Zyz1wnXexdlkhgskSSqZDBRkkXOE6TmY8Qk9Sd5w7I3Td4lIuEk+DzBSHAqpeSv6CUChWAFud4VQaHTfCZXoRKDkGUud+acZAEgRTFjIlebOz8zrelG0mxaGOHHF8PjdzbNvxH3dvQSdrPkFzS+KxfgFw==);whiteSpace=wrap;html=1;strokeWidth=10;fillColor=none;gradientColor=default;strokeColor=#eb7aebff;fontFamily=Helvetica;fontSize=11;fontColor=default;" vertex="1" parent="copLugqQvAR0kvUUau8e-17">
          <mxGeometry x="480" y="290" width="80" height="10" as="geometry" />
        </mxCell>
        <mxCell id="copLugqQvAR0kvUUau8e-19" value="" style="shape=stencil(nVTbbsMgDP2aPBbZpgTyOGXbf2QtXdEyEpH0sr8fCaCVXra1CCnKOfHxsXEoeD1sm14XBM3Q69VY8OeCaN8407y1HibPbAMoGQi/kAJ6CCgpRtPCgA6j6z70wazHGGXsVjszTix/KeDJfzNtXq86a31C09khY054L9YY62PhGMQgJPkKbzFl7/U/9ahdhhb0+m9ZzGThHllee+RWKbzedE6/u25n11fNbEzbho794rhvpl5eEIn+7Pb6p5QFsZIrQoV6AWVW19n5XU+XVFtjT1SXTAL3mx4XXO1c8IkpuEQJ/hkl8armkWL3gQnFOakqrRgWecGUrEpKBo88hi0Z+kXyPCzynAmSUopHCkA5dboCzAtAhlJUlOBUAAGTJGApc98LYAAoZZn7noyhEshzu/7j+88u/qBYZWf3h9Q81jcGz18Zt0Z2DruY+RkN18wMfAM=);whiteSpace=wrap;html=1;strokeWidth=10;strokeColor=#ecdc86;fillColor=none;fontFamily=Helvetica;fontSize=11;fontColor=default;" vertex="1" parent="copLugqQvAR0kvUUau8e-17">
          <mxGeometry x="560" y="280" width="80" height="20" as="geometry" />
        </mxCell>
        <mxCell id="copLugqQvAR0kvUUau8e-20" value="" style="shape=stencil(nVRbcoMwDDwNn/HIEn7w2SHtPWjiNJ4Swxjyun0NhmncJG0Tj39YSavVA2dUdtuqNRlC1bVm1We0zBAPlbfVex1gDJZtBDkwoYkogscIomY4HB7RrvfNpznadT8FWbc13vaDlV4zeAk+w6Vy1TgX8tnGdYnlwh7IKutCLJwiGcQk50lP/GoD/870xidohm//puUJLTxCS2VA7pVC5abx5sM3e7e+KWZj6zp27BfFbTX08sowm3fNwXyXolkhc60LMgtQabeS6d1ONnPW1l1w5kwBKZDF03yrvY8ieYxVTHIFKKfgM79FecIUnZ1xrlTzIic1VXmiyTtnPBzCyXuCBcOCSymeUcuDXNIF5D/UMhVgVYhULgJTKEDwVO4CGISKpaBULxITXAuuUr3B+/FBzf8iJYP6g2rc4Ds7Fh6He9s5hl2t94jGB2UEvgA=);whiteSpace=wrap;html=1;strokeWidth=10;strokeColor=#3f2b29;fillColor=none;flipV=1;flipH=1;fontFamily=Helvetica;fontSize=11;fontColor=default;" vertex="1" parent="copLugqQvAR0kvUUau8e-17">
          <mxGeometry x="640" y="270" width="80" height="30" as="geometry" />
        </mxCell>
        <mxCell id="copLugqQvAR0kvUUau8e-21" value="" style="shape=stencil(nVTbboMwDP0aHhs5NiHwOLHtP1ibrtFoQIFe9vczJGiL2m5rrbxwbB/7OCYZ1cOu6U2G0Ay9WY8ZPWeIx8bb5q1lGNmzC6DMhWSDPKCngGIpcDIZ0GH03Yc52c0Ys6zbGW/HyUsvGTxxzHSoXnfOcUHbuSHx/PAzWWMd58I5kEEo8hkbCl898+/NaHyCZvj6b1qZ0MI9tFQzcksK1dvOm3ffHdzmajNb27ZhYr903DfTLC8ci3vfHc23lFzoIi/LiswKdDqt9PquV1tIW+tSUqCiosf51gcfupQhWYtCapCoIqW8ynnGCINQJbHF6AWWQqsK8zJGU0qiIBrGNFpqg5qtivaIAMkKiOcsUwEoSMkyX7ZlEYAgNCpQMhWwAgFASuWFTiUgCaZRUqedc/j9l7f8oOnt/UE1r/WNxeMn49bKzmkXOz+j4ZmZgS8=);whiteSpace=wrap;html=1;strokeWidth=10;fillColor=none;strokeColor=#fa6863;fontFamily=Helvetica;fontSize=11;fontColor=default;" vertex="1" parent="copLugqQvAR0kvUUau8e-17">
          <mxGeometry x="720" y="260.0000000000001" width="80" height="40" as="geometry" />
        </mxCell>
        <mxCell id="copLugqQvAR0kvUUau8e-26" value="Bridges" parent="0" />
        <mxCell id="copLugqQvAR0kvUUau8e-27" value="" style="shape=stencil(nVNdc4MgEPw1PobhQAEfO7b9HzQhlalRB02i/74oUONXJ63ji7vu3t5xRDRrclmriGDZ1OrYRvQ1IuQmjZYfhYWJZXIHUpQQzjljDr07FGIE9sHCoU1rqi9116fWq3SZK6PbgaVvEX6x/wwvzY5VWdqCuiqbGfPAWzOpS6vFnTPDrkg/+6qt/0W1yvhADo3I+9O28H9bmllkrxWanSujPk11LU+bYc66KNzEfklcy2GWKyLQl+qmplYIYkyQOE7UAbNZW4vj2672M6Wrca4QxLFIMGPcW8LMk6YO7sgjLEKp3sMHQHECaQp8CtdRx3GEU0FYcOo9DAhigbGgk+JvwQGjRFBKVsHF0jeEXyrI5vhCbr/+APPcTw173J2d07X3cm8vRtlqsUbU3eUR+AY=);whiteSpace=wrap;html=1;fillColor=none;strokeColor=#ae63fa;strokeWidth=10;points=[[0,1,0,0,0],[1,1,0,0,0]];fontFamily=Helvetica;fontSize=11;fontColor=default;" vertex="1" parent="copLugqQvAR0kvUUau8e-26">
          <mxGeometry x="750" y="135" width="40" height="10" as="geometry" />
        </mxCell>
        <mxCell id="copLugqQvAR0kvUUau8e-28" value="" style="shape=stencil(nVPBbsMgDP0ajkNgjzU7Tun2H6ylC1oKEaFt9vcjMZ2alkzdLC4828/m2TCs+0Z3hoHQfWc2keGaARx1sPq9TTAkT0MgcgWrZBWhJ0JBcvk0GqF9DP7TnOw25izrGhNsHL34ysRLihkP1hvvXCpovetnngt/ItPWpVwxEJmgIl90k3TrEv/eRBNmKIO3u2nl/2mxTsjSU7De+WA+gj+4bbGZnW1bUuyXjjs9annjOLv3/mguFOJzja6GVq7xo80hEJekZMXheRyuypSyyDlAOTrDwFFIEI/KPIi8JANmTQVXFSbLGbiY8be+peLV6qrpUhtQCIfyG7G47eeO71J5WpWFYaZvuLQGU9rNHk0ofd0J+AY=);whiteSpace=wrap;html=1;fillColor=none;strokeColor=#63e5e8;strokeWidth=10;fontFamily=Helvetica;fontSize=11;fontColor=default;" vertex="1" parent="copLugqQvAR0kvUUau8e-26">
          <mxGeometry x="740" y="185" width="60" height="10" as="geometry" />
        </mxCell>
        <mxCell id="copLugqQvAR0kvUUau8e-140" value="StartStop" parent="0" />
        <mxCell id="copLugqQvAR0kvUUau8e-141" value="" style="endArrow=none;html=1;rounded=0;strokeWidth=10;strokeColor=#24b064;labelBackgroundColor=default;fontFamily=Helvetica;fontSize=11;fontColor=default;shape=connector;" edge="1" parent="copLugqQvAR0kvUUau8e-140">
          <mxGeometry width="50" height="50" relative="1" as="geometry">
            <mxPoint x="320" y="194.88" as="sourcePoint" />
            <mxPoint x="400" y="194.88" as="targetPoint" />
          </mxGeometry>
        </mxCell>
        <mxCell id="copLugqQvAR0kvUUau8e-142" value="" style="shape=image;verticalLabelPosition=bottom;verticalAlign=top;imageAspect=0;aspect=0;image=data:image/svg+xml,PHN2ZyB4bWxucz0iaHR0cDovL3d3dy53My5vcmcvMjAwMC9zdmciIGlkPSJzdmc3MzYyIiB2ZXJzaW9uPSIxLjEiIHZpZXdCb3g9IjAgMCAyLjY0NTgyODIgNy45Mzc1IiBoZWlnaHQ9IjcuOTM3NW1tIiB3aWR0aD0iMi42NDU4MjgybW0iPiYjeGE7ICA8ZGVmcyBpZD0iZGVmczczNTkiLz4mI3hhOyAgPGcgdHJhbnNmb3JtPSJ0cmFuc2xhdGUoLTEwOC40NzkxNiwtNTIuOTE2NjY2KSIgaWQ9ImxheWVyOSI+JiN4YTsgICAgPHBhdGggaWQ9InBhdGgyNTAwLTUtMjItMi03IiBkPSJtIDEwOS44MDIwOCw1Mi45MTY2NjYgdiA3LjkzNzUiIHN0eWxlPSJmaWxsOm5vbmU7c3Ryb2tlOiMwMDAwMDA7c3Ryb2tlLXdpZHRoOjIuNjQ1ODM7c3Ryb2tlLWxpbmVjYXA6YnV0dDtzdHJva2UtbGluZWpvaW46bWl0ZXI7c3Ryb2tlLW1pdGVybGltaXQ6NDtzdHJva2UtZGFzaGFycmF5Om5vbmU7c3Ryb2tlLW9wYWNpdHk6MSIvPiYjeGE7ICA8L2c+JiN4YTs8L3N2Zz4=;points=[[0,0,0,0,0],[0,0.25,0,0,0],[0,0.5,0,0,0],[0,0.75,0,0,0],[0,1,0,0,0],[1,0,0,0,0],[1,0.25,0,0,0],[1,0.5,0,0,0],[1,0.75,0,0,0],[1,1,0,0,0]];fontFamily=Helvetica;fontSize=11;fontColor=default;" vertex="1" parent="copLugqQvAR0kvUUau8e-140">
          <mxGeometry x="400" y="180" width="10" height="30" as="geometry" />
        </mxCell>
        <mxCell id="copLugqQvAR0kvUUau8e-143" value="" style="shape=image;verticalLabelPosition=bottom;verticalAlign=top;imageAspect=0;aspect=0;image=data:image/svg+xml,PHN2ZyB4bWxucz0iaHR0cDovL3d3dy53My5vcmcvMjAwMC9zdmciIGlkPSJzdmc3MzYyIiB2ZXJzaW9uPSIxLjEiIHZpZXdCb3g9IjAgMCA2LjYxNTEwMDkgNy45Mzc1IiBoZWlnaHQ9IjcuOTM3NW1tIiB3aWR0aD0iNi42MTUxMDA5bW0iPiYjeGE7ICAmI3hhOyAgICAmI3hhOyAgJiN4YTsgIDxkZWZzIGlkPSJkZWZzNzM1OSIvPiYjeGE7ICA8ZyB0cmFuc2Zvcm09InRyYW5zbGF0ZSgtNjAuODUzNjUxLC01Mi45MTYxNDgpIiBpZD0ibGF5ZXI5Ij4mI3hhOyAgICA8cGF0aCBkPSJtIDYwLjg1MzY1LDUyLjkxNjE1IHYgNy45Mzc1IEggNjMuNSBMIDY3LjQ2ODc1LDU2Ljg4NTQxNyA2My41LDUyLjkxNjY2NyB2IC01LjE3ZS00IHoiIHN0eWxlPSJjb2xvcjojMDAwMDAwO2ZpbGw6IzAwMDAwMCIgaWQ9InBhdGgyNTAwLTUtMjItMiIvPiYjeGE7ICA8L2c+JiN4YTs8L3N2Zz4=;points=[[0,0.5,0,0,0],[0.78,0.5,0,0,0],[1,0.5,0,0,0]];fontFamily=Helvetica;fontSize=11;fontColor=default;" vertex="1" parent="copLugqQvAR0kvUUau8e-140">
          <mxGeometry x="300.00000000000006" y="180" width="30" height="30" as="geometry" />
        </mxCell>
        <mxCell id="copLugqQvAR0kvUUau8e-16" value="Lines" parent="0" />
        <mxCell id="copLugqQvAR0kvUUau8e-22" value="" style="endArrow=none;html=1;rounded=0;strokeWidth=10;strokeColor=#24b064;labelBackgroundColor=default;fontFamily=Helvetica;fontSize=11;fontColor=default;shape=connector;" edge="1" parent="copLugqQvAR0kvUUau8e-16">
          <mxGeometry width="50" height="50" relative="1" as="geometry">
            <mxPoint x="300" y="135" as="sourcePoint" />
            <mxPoint x="380" y="135" as="targetPoint" />
          </mxGeometry>
        </mxCell>
        <mxCell id="copLugqQvAR0kvUUau8e-23" value="" style="shape=stencil(nZPBkoMgDIafhisDARWPO273PVhLV2YtOGhb+/YFoR1ta2e7Dhe/JH9CEhCr+kZ2CgGRfafqAbFPBHCUTsvv1mPwliZCCpjxAgIK9BQpCAzhY5H2g7O/6qS3Q4rSplFOD8HKNoh8eJ9wWFVbY3xCbU2/sMzsXkxq42PJGMVITHJe/HVef68G5VKZkSL4+rMsXcjSd2RZ5cnaVVi1s079OHsw26fF7HTbxo69qLiToZcPhqt5b49q1iFMCJS85NmyVZi8astVq9VmplVgkolMcPofqfrgYl009Y9jSjkAT2L0Tm2E5FdiTgm5JU2Y4QwYyUVavpGl7eM4L4u8EMk7YYEFLYQo4f1L3+3z+enur43K85Vp+Xe2Nucp7GFRJhrf5gQu);whiteSpace=wrap;html=1;strokeWidth=10;fillColor=none;strokeColor=#f18046;fontFamily=Helvetica;fontSize=11;fontColor=default;" vertex="1" parent="copLugqQvAR0kvUUau8e-16">
          <mxGeometry x="420" y="135" width="80" height="35" as="geometry" />
        </mxCell>
        <mxCell id="copLugqQvAR0kvUUau8e-24" value="" style="shape=stencil(vZXdcoMgEIWfhltGlkiSy45N34MaUpkacNAk5u2Dgqn1JzN1sDPeeJb9WM4yLKJJmfFCIIh4WYi0QvQdAVy5kfwztzLYSOZEYHgT7ygFp94m1bIy+lvc5LHyWVJlwsiqidIDit7smuajSaqVshtKrcpfkV7cwrhUNjeqHSxym9z9H4bYCYXd4iwqYVyAOBXBx1JyKCxZr+AnK3TNIzJZyWQczIyhzQFdXs3kf/J4u5rJ4cg/rPA2b1fymSzH0sQqc88fTU7aiC+jL+o4WcxJ5rl7ZV9UXPDm/R0FuvBZX0XfpOGliV750UFyqXoQhhlpBgEsQaUX4woi3jiKAfaEMQ8jA1oNk8Pn7uUYt8nMt76m06u9TPZ4t6HdPfnLmYfASXWuRVaf6ZKdyXP9bdNGF6RV3RxvhQc=);whiteSpace=wrap;html=1;strokeWidth=10;fillColor=none;strokeColor=#3d95fd;points=[[0,0,0,0,0],[1,1,0,0,0]];fontFamily=Helvetica;fontSize=11;fontColor=default;" vertex="1" parent="copLugqQvAR0kvUUau8e-16">
          <mxGeometry x="540" y="135" width="75" height="75" as="geometry" />
        </mxCell>
        <mxCell id="copLugqQvAR0kvUUau8e-25" value="" style="shape=stencil(vZXdcoMgEIWfhltGlkiSy45N34MaUpkacNAk5u2Dgqn1JzN1sDPeeJb9WM4yLKJJmfFCIIh4WYi0QvQdAVy5kfwztzLYSOZEYHgT7ygFp94m1bIy+lvc5LHyWVJlwsiqidIDit7smuajSaqVshtKrcpfkV7cwrhUNjeqHSxym9z9H4bYCYXd4iwqYVyAOBXBx1JyKCxZr+AnK3TNIzJZyWQczIyhzQFdXs3kf/J4u5rJ4cg/rPA2b1fymSzH0sQqc88fTU7aiC+jL+o4WcxJ5rl7ZV9UXPDm/R0FuvBZX0XfpOGliV750UFyqXoQhhlpBgEsQaUX4woi3jiKAfaEMQ8jA1oNk8Pn7uUYt8nMt76m06u9TPZ4t6HdPfnLmYfASXWuRVaf6ZKdyXP9bdNGF6RV3RxvhQc=);whiteSpace=wrap;html=1;strokeWidth=10;fillColor=none;strokeColor=#000000;points=[[0,0,0,0,0],[1,1,0,0,0]];fontFamily=Helvetica;fontSize=11;fontColor=default;" vertex="1" parent="copLugqQvAR0kvUUau8e-16">
          <mxGeometry x="660" y="135" width="35" height="35" as="geometry" />
        </mxCell>
        <mxCell id="copLugqQvAR0kvUUau8e-5" value="Icons" parent="0" />
        <mxCell id="copLugqQvAR0kvUUau8e-7" value="" style="shape=image;verticalLabelPosition=bottom;verticalAlign=top;imageAspect=0;aspect=fixed;image=data:image/svg+xml,PHN2ZyB4bWxucz0iaHR0cDovL3d3dy53My5vcmcvMjAwMC9zdmciIGlkPSJzdmc3MzYyIiB2ZXJzaW9uPSIxLjEiIHZpZXdCb3g9IjAgMCA3LjkzNzQ5NjcgNy45Mzc0OTYyIiBoZWlnaHQ9IjcuOTM3NDk2Mm1tIiB3aWR0aD0iNy45Mzc0OTY3bW0iPiYjeGE7ICAmI3hhOyAgICAmI3hhOyAgJiN4YTsgIDxkZWZzIGlkPSJkZWZzNzM1OSIvPiYjeGE7ICA8ZyB0cmFuc2Zvcm09InRyYW5zbGF0ZSgtMy45ODk0MzAzLC0zMy4wNzI5MjEpIiBpZD0ibGF5ZXI1Ij4mI3hhOyAgICA8ZyBpZD0ibGF5ZXI2Ij4mI3hhOyAgICAgIDxjaXJjbGUgcj0iMi42NDU4MzMzIiBjeT0iMzcuMDQxNjY4IiBjeD0iNy45NTgxNzg1IiBpZD0icGF0aDM0NDciIHN0eWxlPSJmaWxsOiNmZmZmZmY7c3Ryb2tlOiMwMDAwMDA7c3Ryb2tlLXdpZHRoOjIuNjQ1ODM7c3Ryb2tlLWxpbmVjYXA6cm91bmQ7c3Ryb2tlLW1pdGVybGltaXQ6NDtzdHJva2UtZGFzaGFycmF5Om5vbmU7cGFpbnQtb3JkZXI6c3Ryb2tlIG1hcmtlcnMgZmlsbDtzdG9wLWNvbG9yOiMwMDAwMDAiLz4mI3hhOyAgICA8L2c+JiN4YTsgIDwvZz4mI3hhOzwvc3ZnPg==;fontFamily=Helvetica;fontSize=11;fontColor=default;" vertex="1" parent="copLugqQvAR0kvUUau8e-5">
          <mxGeometry x="35" y="160" width="30" height="30" as="geometry" />
        </mxCell>
        <mxCell id="copLugqQvAR0kvUUau8e-8" value="" style="shape=image;verticalLabelPosition=bottom;verticalAlign=top;imageAspect=0;aspect=fixed;image=data:image/svg+xml,PHN2ZyB4bWxucz0iaHR0cDovL3d3dy53My5vcmcvMjAwMC9zdmciIGlkPSJzdmc3MzYyIiB2ZXJzaW9uPSIxLjEiIHZpZXdCb3g9IjAgMCA3LjkzNzQ5ODEgMTUuODc1IiBoZWlnaHQ9IjE1Ljg3NW1tIiB3aWR0aD0iNy45Mzc0OTgxbW0iPiYjeGE7ICAmI3hhOyAgICAmI3hhOyAgJiN4YTsgIDxkZWZzIGlkPSJkZWZzNzM1OSIvPiYjeGE7ICA8ZyB0cmFuc2Zvcm09InRyYW5zbGF0ZSgtMjIuNTEwMjYyLC0zMy4wNzI5MTMpIiBpZD0ibGF5ZXI1Ij4mI3hhOyAgICA8ZyBpZD0ibGF5ZXI2Ij4mI3hhOyAgICAgIDxyZWN0IHRyYW5zZm9ybT0ic2NhbGUoLTEpIiByeT0iMi42NDU4MzMzIiB5PSItNDcuNjI0OTk2IiB4PSItMjkuMTI0ODQ2IiBoZWlnaHQ9IjEzLjIyOTE2NiIgd2lkdGg9IjUuMjkxNjY3OSIgaWQ9InJlY3Q5MTgiIHN0eWxlPSJmaWxsOiNmZmZmZmY7c3Ryb2tlOiMwMDAwMDA7c3Ryb2tlLXdpZHRoOjIuNjQ1ODM7c3Ryb2tlLWxpbmVjYXA6cm91bmQ7c3Ryb2tlLWRhc2hhcnJheTpub25lO3BhaW50LW9yZGVyOnN0cm9rZSBtYXJrZXJzIGZpbGw7c3RvcC1jb2xvcjojMDAwMDAwIi8+JiN4YTsgICAgPC9nPiYjeGE7ICA8L2c+JiN4YTs8L3N2Zz4=;fontFamily=Helvetica;fontSize=11;fontColor=default;" vertex="1" parent="copLugqQvAR0kvUUau8e-5">
          <mxGeometry x="115" y="160.0000000000001" width="30" height="60" as="geometry" />
        </mxCell>
        <mxCell id="copLugqQvAR0kvUUau8e-9" value="" style="shape=image;verticalLabelPosition=bottom;verticalAlign=top;imageAspect=0;aspect=fixed;image=data:image/svg+xml,PHN2ZyB4bWxucz0iaHR0cDovL3d3dy53My5vcmcvMjAwMC9zdmciIGlkPSJzdmc3MzYyIiB2ZXJzaW9uPSIxLjEiIHZpZXdCb3g9IjAgMCA3LjkzNzQ5NjIgMjMuODEyNTA0IiBoZWlnaHQ9IjIzLjgxMjUwNG1tIiB3aWR0aD0iNy45Mzc0OTYybW0iPiYjeGE7ICAmI3hhOyAgICAmI3hhOyAgJiN4YTsgIDxkZWZzIGlkPSJkZWZzNzM1OSIvPiYjeGE7ICA8ZyB0cmFuc2Zvcm09InRyYW5zbGF0ZSgtNDEuMDMxMDk1LC0zMy4wNzI5MTcpIiBpZD0ibGF5ZXI1Ij4mI3hhOyAgICA8ZyBpZD0ibGF5ZXI2Ij4mI3hhOyAgICAgIDxyZWN0IHJ5PSIyLjgyMjIyMjUiIHk9IjM0LjM5NTgzMiIgeD0iNDIuMzU0MDEyIiBoZWlnaHQ9IjIxLjE2NjY3IiB3aWR0aD0iNS4yOTE2NjY1IiBpZD0icmVjdDkxOC04IiBzdHlsZT0iZmlsbDojZmZmZmZmO3N0cm9rZTojMDAwMDAwO3N0cm9rZS13aWR0aDoyLjY0NTgzO3N0cm9rZS1saW5lY2FwOnJvdW5kO3N0cm9rZS1kYXNoYXJyYXk6bm9uZTtwYWludC1vcmRlcjpzdHJva2UgbWFya2VycyBmaWxsO3N0b3AtY29sb3I6IzAwMDAwMCIvPiYjeGE7ICAgIDwvZz4mI3hhOyAgPC9nPiYjeGE7PC9zdmc+;rotation=-180;fontFamily=Helvetica;fontSize=11;fontColor=default;" vertex="1" parent="copLugqQvAR0kvUUau8e-5">
          <mxGeometry x="195" y="160" width="30" height="90" as="geometry" />
        </mxCell>
        <mxCell id="copLugqQvAR0kvUUau8e-10" value="" style="shape=image;verticalLabelPosition=bottom;verticalAlign=top;imageAspect=0;aspect=fixed;image=data:image/svg+xml,PHN2ZyB4bWxucz0iaHR0cDovL3d3dy53My5vcmcvMjAwMC9zdmciIGlkPSJzdmc3MzYyIiB2ZXJzaW9uPSIxLjEiIHZpZXdCb3g9IjAgMCA3LjkzNzQ5NjIgMTUuODc1IiBoZWlnaHQ9IjE1Ljg3NW1tIiB3aWR0aD0iNy45Mzc0OTYybW0iPiYjeGE7ICAmI3hhOyAgICAmI3hhOyAgJiN4YTsgIDxkZWZzIGlkPSJkZWZzNzM1OSIvPiYjeGE7ICA8ZyB0cmFuc2Zvcm09InRyYW5zbGF0ZSgtMjIuNDg5NTg2LC05My45MjcwODMpIiBpZD0ibGF5ZXI1Ij4mI3hhOyAgICA8ZyBpZD0ibGF5ZXI4Ij4mI3hhOyAgICAgIDxwYXRoIGQ9Im0gMjYuNDU4MzMzLDk1LjI1IGEgMi42NDU4MzMzLDIuNjQ1ODMzMyAwIDAgMCAtMi42NDU4MzMsMi42NDU4MzMgMi42NDU4MzMzLDIuNjQ1ODMzMyAwIDAgMCAxLjMyMjkxNywyLjI5MTMzNyB2IDMuMzU0ODMgYSAyLjY0NTgzMzMsMi42NDU4MzMzIDAgMCAwIC0xLjMyMjkxNywyLjI5MTMzIDIuNjQ1ODMzMywyLjY0NTgzMzMgMCAwIDAgMi42NDU4MzMsMi42NDU4NCAyLjY0NTgzMzMsMi42NDU4MzMzIDAgMCAwIDIuNjQ1ODM0LC0yLjY0NTg0IDIuNjQ1ODMzMywyLjY0NTgzMzMgMCAwIDAgLTEuMzIyOTE3LC0yLjI5MTMzIHYgLTMuMzU0ODMgQSAyLjY0NTgzMzMsMi42NDU4MzMzIDAgMCAwIDI5LjEwNDE2Nyw5Ny44OTU4MzMgMi42NDU4MzMzLDIuNjQ1ODMzMyAwIDAgMCAyNi40NTgzMzMsOTUuMjUgWiIgc3R5bGU9ImZpbGw6I2ZmZmZmZjtzdHJva2U6IzAwMDAwMDtzdHJva2Utd2lkdGg6Mi42NDU4MztzdHJva2UtbGluZWNhcDpyb3VuZDtzdHJva2UtbWl0ZXJsaW1pdDo0O3N0cm9rZS1kYXNoYXJyYXk6bm9uZTtwYWludC1vcmRlcjpzdHJva2UgbWFya2VycyBmaWxsO3N0b3AtY29sb3I6IzAwMDAwMCIgaWQ9InBhdGgzNDQ3LTYtMjUiLz4mI3hhOyAgICA8L2c+JiN4YTsgIDwvZz4mI3hhOzwvc3ZnPg==;points=[[0.1,0.25,0,0,0],[0.1,0.75,0,0,0],[0.5,0,0,0,0],[0.5,1,0,0,0],[0.9,0.25,0,0,0],[0.9,0.75,0,0,0]];fontFamily=Helvetica;fontSize=11;fontColor=default;" vertex="1" parent="copLugqQvAR0kvUUau8e-5">
          <mxGeometry x="115" y="400" width="30" height="60" as="geometry" />
        </mxCell>
        <mxCell id="copLugqQvAR0kvUUau8e-11" value="" style="shape=image;verticalLabelPosition=bottom;verticalAlign=top;imageAspect=0;aspect=fixed;image=data:image/svg+xml,PHN2ZyB4bWxucz0iaHR0cDovL3d3dy53My5vcmcvMjAwMC9zdmciIGlkPSJzdmc3MzYyIiB2ZXJzaW9uPSIxLjEiIHZpZXdCb3g9IjAgMCA3LjkzNzUgMjMuODEyNSIgaGVpZ2h0PSIyMy44MTI1bW0iIHdpZHRoPSI3LjkzNzVtbSI+JiN4YTsgICYjeGE7ICAgICYjeGE7ICAmI3hhOyAgPGRlZnMgaWQ9ImRlZnM3MzU5Ii8+JiN4YTsgIDxnIHRyYW5zZm9ybT0idHJhbnNsYXRlKC00MS4wMTA0MTUsLTkzLjkyNzA4MykiIGlkPSJsYXllcjUiPiYjeGE7ICAgIDxnIGlkPSJsYXllcjgiPiYjeGE7ICAgICAgPHBhdGggZD0ibSA0NC45NzkxNjcsOTUuMjUgYSAyLjY0NTgzMzMsMi42NDU4MzMzIDAgMCAwIC0yLjY0NTgzNCwyLjY0NTgzMyAyLjY0NTgzMzMsMi42NDU4MzMzIDAgMCAwIDEuMzIyOTE3LDIuMjkxMzM3IHYgMy4zNTQ4MyBhIDIuNjQ1ODMzMywyLjY0NTgzMzMgMCAwIDAgLTEuMTkzMjA5LDEuNDczODEgMi42NDU4MzMzLDIuNjQ1ODMzMyAwIDAgMCAtMC4wNzE4MywwLjI2NzE3IDIuNjQ1ODMzMywyLjY0NTgzMzMgMCAwIDAgLTAuMDU3ODgsMC41NTAzNSAyLjY0NTgzMzMsMi42NDU4MzMzIDAgMCAwIDEuMzIyOTE3LDIuMjkxMzQgdiAzLjM1NDgzIGEgMi42NDU4MzMzLDIuNjQ1ODMzMyAwIDAgMCAtMS4zMjI5MTcsMi4yOTEzMyAyLjY0NTgzMzMsMi42NDU4MzMzIDAgMCAwIDIuNjQ1ODM0LDIuNjQ1ODQgMi42NDU4MzMzLDIuNjQ1ODMzMyAwIDAgMCAyLjY0NTgzMywtMi42NDU4NCAyLjY0NTgzMzMsMi42NDU4MzMzIDAgMCAwIC0xLjMyMjkxNywtMi4yOTEzMyB2IC0zLjM1NDgzIGEgMi42NDU4MzMzLDIuNjQ1ODMzMyAwIDAgMCAwLjIzMjAyOCwtMC4xNTA5IDIuNjQ1ODMzMywyLjY0NTgzMzMgMCAwIDAgMC4yMTU0OSwtMC4xNzQxNSAyLjY0NTgzMzMsMi42NDU4MzMzIDAgMCAwIDAuMTk1ODU0LC0wLjE5NTg1IDIuNjQ1ODMzMywyLjY0NTgzMzMgMCAwIDAgMC4xNzQxNDksLTAuMjE1NDkgMi42NDU4MzMzLDIuNjQ1ODMzMyAwIDAgMCAwLjE1MDg5NiwtMC4yMzIwMyAyLjY0NTgzMzMsMi42NDU4MzMzIDAgMCAwIDAuMTI1NTczLC0wLjI0NzAxIDIuNjQ1ODMzMywyLjY0NTgzMzMgMCAwIDAgMC4wOTkyMiwtMC4yNTgzOSAyLjY0NTgzMzMsMi42NDU4MzMzIDAgMCAwIDAuMDcxODMsLTAuMjY3MTYgMi42NDU4MzMzLDIuNjQ1ODMzMyAwIDAgMCAwLjA0MzQxLC0wLjI3Mzg5IDIuNjQ1ODMzMywyLjY0NTgzMzMgMCAwIDAgMC4wMTQ0NywtMC4yNzY0NyAyLjY0NTgzMzMsMi42NDU4MzMzIDAgMCAwIC0wLjAxNDQ3LC0wLjI3NjQ3IDIuNjQ1ODMzMywyLjY0NTgzMzMgMCAwIDAgLTAuMDQyODksLTAuMjcxMyAyLjY0NTgzMzMsMi42NDU4MzMzIDAgMCAwIC0wLjAwMTYsLTAuMDA2IDIuNjQ1ODMzMywyLjY0NTgzMzMgMCAwIDAgLTAuMDcwOCwtMC4yNjQwNyAyLjY0NTgzMzMsMi42NDU4MzMzIDAgMCAwIC0wLjA5OTIyLC0wLjI1ODM4IDIuNjQ1ODMzMywyLjY0NTgzMzMgMCAwIDAgLTAuMTI1NTczLC0wLjI0NzAxIDIuNjQ1ODMzMywyLjY0NTgzMzMgMCAwIDAgLTAuMTUwODk2LC0wLjIzMjAzIDIuNjQ1ODMzMywyLjY0NTgzMzMgMCAwIDAgLTAuMTc0MTQ5LC0wLjIxNTQ5IDIuNjQ1ODMzMywyLjY0NTgzMzMgMCAwIDAgLTAuMTk1ODU0LC0wLjE5NTg1IDIuNjQ1ODMzMywyLjY0NTgzMzMgMCAwIDAgLTAuMjE1NDksLTAuMTc0MTUgMi42NDU4MzMzLDIuNjQ1ODMzMyAwIDAgMCAtMC4yMzIwMjgsLTAuMTUwOSB2IC0zLjM1NDgzIEEgMi42NDU4MzMzLDIuNjQ1ODMzMyAwIDAgMCA0Ny42MjUsOTcuODk1ODMzIDIuNjQ1ODMzMywyLjY0NTgzMzMgMCAwIDAgNDQuOTc5MTY3LDk1LjI1IFoiIHN0eWxlPSJmaWxsOiNmZmZmZmY7c3Ryb2tlOiMwMDAwMDA7c3Ryb2tlLXdpZHRoOjIuNjQ1ODM7c3Ryb2tlLWxpbmVjYXA6cm91bmQ7c3Ryb2tlLW1pdGVybGltaXQ6NDtzdHJva2UtZGFzaGFycmF5Om5vbmU7cGFpbnQtb3JkZXI6c3Ryb2tlIG1hcmtlcnMgZmlsbDtzdG9wLWNvbG9yOiMwMDAwMDAiIGlkPSJwYXRoMzQ0Ny02LTI1LTMiLz4mI3hhOyAgICA8L2c+JiN4YTsgIDwvZz4mI3hhOzwvc3ZnPg==;points=[[0.1,0.5,0,0,0],[0.5,0,0,0,0],[0.5,1,0,0,0],[0.9,0.5,0,0,0]];fontFamily=Helvetica;fontSize=11;fontColor=default;" vertex="1" parent="copLugqQvAR0kvUUau8e-5">
          <mxGeometry x="195" y="400" width="30" height="90" as="geometry" />
        </mxCell>
        <mxCell id="copLugqQvAR0kvUUau8e-12" value="" style="shape=image;verticalLabelPosition=bottom;verticalAlign=top;imageAspect=0;aspect=fixed;image=data:image/svg+xml,PHN2ZyB4bWxucz0iaHR0cDovL3d3dy53My5vcmcvMjAwMC9zdmciIGlkPSJzdmc3MzYyIiB2ZXJzaW9uPSIxLjEiIHZpZXdCb3g9IjAgMCA3LjkzNzQ5ODEgNy45Mzc1IiBoZWlnaHQ9IjcuOTM3NW1tIiB3aWR0aD0iNy45Mzc0OTgxbW0iPiYjeGE7ICAmI3hhOyAgICAmI3hhOyAgJiN4YTsgIDxkZWZzIGlkPSJkZWZzNzM1OSIvPiYjeGE7ICA8ZyB0cmFuc2Zvcm09InRyYW5zbGF0ZSgtMy45ODk0Mjk4LC02Mi4xNzcwODQpIiBpZD0ibGF5ZXI1Ij4mI3hhOyAgICA8ZyBpZD0ibGF5ZXI3Ij4mI3hhOyAgICAgIDxyZWN0IHJ5PSIwLjc5Mzc0ODc0IiB5PSI2My41IiB4PSI1LjMxMjM0NDYiIGhlaWdodD0iNS4yOTE2NjU2IiB3aWR0aD0iNS4yOTE2Njc5IiBpZD0icmVjdDkxOC05LTciIHN0eWxlPSJmaWxsOiNmZmZmZmY7c3Ryb2tlOiMwMDAwMDA7c3Ryb2tlLXdpZHRoOjIuNjQ1ODM7c3Ryb2tlLWxpbmVjYXA6cm91bmQ7cGFpbnQtb3JkZXI6c3Ryb2tlIG1hcmtlcnMgZmlsbDtzdG9wLWNvbG9yOiMwMDAwMDAiLz4mI3hhOyAgICA8L2c+JiN4YTsgIDwvZz4mI3hhOzwvc3ZnPg==;fontFamily=Helvetica;fontSize=11;fontColor=default;" vertex="1" parent="copLugqQvAR0kvUUau8e-5">
          <mxGeometry x="35" y="280" width="30" height="30" as="geometry" />
        </mxCell>
        <mxCell id="copLugqQvAR0kvUUau8e-13" value="" style="shape=image;verticalLabelPosition=bottom;verticalAlign=top;imageAspect=0;aspect=fixed;image=data:image/svg+xml,PHN2ZyB4bWxucz0iaHR0cDovL3d3dy53My5vcmcvMjAwMC9zdmciIGlkPSJzdmc3MzYyIiB2ZXJzaW9uPSIxLjEiIHZpZXdCb3g9IjAgMCA3LjkzNzQ5ODEgMTUuODc1IiBoZWlnaHQ9IjE1Ljg3NW1tIiB3aWR0aD0iNy45Mzc0OTgxbW0iPiYjeGE7ICAmI3hhOyAgICAmI3hhOyAgJiN4YTsgIDxkZWZzIGlkPSJkZWZzNzM1OSIvPiYjeGE7ICA8ZyB0cmFuc2Zvcm09InRyYW5zbGF0ZSgtMjIuNTEwMjYyLC02Mi4xNzcwODQpIiBpZD0ibGF5ZXI1Ij4mI3hhOyAgICA8ZyBpZD0ibGF5ZXI3Ij4mI3hhOyAgICAgIDxyZWN0IHJ5PSIwLjc5Mzc0ODc0IiB5PSI2My41IiB4PSIyMy44MzMxNzgiIGhlaWdodD0iMTMuMjI5MTY2IiB3aWR0aD0iNS4yOTE2Njc5IiBpZD0icmVjdDkxOC05IiBzdHlsZT0iZmlsbDojZmZmZmZmO3N0cm9rZTojMDAwMDAwO3N0cm9rZS13aWR0aDoyLjY0NTgzO3N0cm9rZS1saW5lY2FwOnJvdW5kO3BhaW50LW9yZGVyOnN0cm9rZSBtYXJrZXJzIGZpbGw7c3RvcC1jb2xvcjojMDAwMDAwIi8+JiN4YTsgICAgPC9nPiYjeGE7ICA8L2c+JiN4YTs8L3N2Zz4=;fontFamily=Helvetica;fontSize=11;fontColor=default;" vertex="1" parent="copLugqQvAR0kvUUau8e-5">
          <mxGeometry x="115" y="280" width="30" height="60" as="geometry" />
        </mxCell>
        <mxCell id="copLugqQvAR0kvUUau8e-14" value="" style="shape=image;verticalLabelPosition=bottom;verticalAlign=top;imageAspect=0;aspect=fixed;image=data:image/svg+xml,PHN2ZyB4bWxucz0iaHR0cDovL3d3dy53My5vcmcvMjAwMC9zdmciIGlkPSJzdmc3MzYyIiB2ZXJzaW9uPSIxLjEiIHZpZXdCb3g9IjAgMCA3LjkzNzQ5NjIgMjMuODEyNTA0IiBoZWlnaHQ9IjIzLjgxMjUwNG1tIiB3aWR0aD0iNy45Mzc0OTYybW0iPiYjeGE7ICAmI3hhOyAgICAmI3hhOyAgJiN4YTsgIDxkZWZzIGlkPSJkZWZzNzM1OSIvPiYjeGE7ICA8ZyB0cmFuc2Zvcm09InRyYW5zbGF0ZSgtNDEuMDMxMDk1LC02Mi4xNzcwOCkiIGlkPSJsYXllcjUiPiYjeGE7ICAgIDxnIGlkPSJsYXllcjciPiYjeGE7ICAgICAgPHJlY3Qgcnk9IjAuODQ2NjY1NDQiIHk9IjYzLjQ5OTk5NiIgeD0iNDIuMzU0MDEyIiBoZWlnaHQ9IjIxLjE2NjY3IiB3aWR0aD0iNS4yOTE2NjY1IiBpZD0icmVjdDkxOC04LTIiIHN0eWxlPSJmaWxsOiNmZmZmZmY7c3Ryb2tlOiMwMDAwMDA7c3Ryb2tlLXdpZHRoOjIuNjQ1ODM7c3Ryb2tlLWxpbmVjYXA6cm91bmQ7cGFpbnQtb3JkZXI6c3Ryb2tlIG1hcmtlcnMgZmlsbDtzdG9wLWNvbG9yOiMwMDAwMDAiLz4mI3hhOyAgICA8L2c+JiN4YTsgIDwvZz4mI3hhOzwvc3ZnPg==;fontFamily=Helvetica;fontSize=11;fontColor=default;" vertex="1" parent="copLugqQvAR0kvUUau8e-5">
          <mxGeometry x="195" y="280" width="30" height="90" as="geometry" />
        </mxCell>
        <mxCell id="copLugqQvAR0kvUUau8e-15" value="" style="shape=image;verticalLabelPosition=bottom;verticalAlign=top;imageAspect=0;aspect=fixed;image=data:image/svg+xml,PHN2ZyB4bWxucz0iaHR0cDovL3d3dy53My5vcmcvMjAwMC9zdmciIGlkPSJzdmc3MzYyIiB2ZXJzaW9uPSIxLjEiIHZpZXdCb3g9IjAgMCA3LjkzNzQ5NjcgNy45Mzc0OTYyIiBoZWlnaHQ9IjcuOTM3NDk2Mm1tIiB3aWR0aD0iNy45Mzc0OTY3bW0iPiYjeGE7ICAmI3hhOyAgICAmI3hhOyAgJiN4YTsgIDxkZWZzIGlkPSJkZWZzNzM1OSIvPiYjeGE7ICA8ZyB0cmFuc2Zvcm09InRyYW5zbGF0ZSgtMy45ODk0MzAzLC0zMy4wNzI5MjEpIiBpZD0ibGF5ZXI1Ij4mI3hhOyAgICA8ZyBpZD0ibGF5ZXI2Ij4mI3hhOyAgICAgIDxjaXJjbGUgcj0iMi42NDU4MzMzIiBjeT0iMzcuMDQxNjY4IiBjeD0iNy45NTgxNzg1IiBpZD0icGF0aDM0NDciIHN0eWxlPSJmaWxsOiNmZmZmZmY7c3Ryb2tlOiMwMDAwMDA7c3Ryb2tlLXdpZHRoOjIuNjQ1ODM7c3Ryb2tlLWxpbmVjYXA6cm91bmQ7c3Ryb2tlLW1pdGVybGltaXQ6NDtzdHJva2UtZGFzaGFycmF5Om5vbmU7cGFpbnQtb3JkZXI6c3Ryb2tlIG1hcmtlcnMgZmlsbDtzdG9wLWNvbG9yOiMwMDAwMDAiLz4mI3hhOyAgICA8L2c+JiN4YTsgIDwvZz4mI3hhOzwvc3ZnPg==;fontFamily=Helvetica;fontSize=11;fontColor=default;" vertex="1" parent="copLugqQvAR0kvUUau8e-5">
          <mxGeometry x="35" y="400" width="30" height="30" as="geometry" />
        </mxCell>
      </root>
    </mxGraphModel>
  </diagram>
</mxfile>
